<?xml version="1.0" encoding="UTF-8"?>
<svg xmlns="http://www.w3.org/2000/svg" width="40" height="40" viewBox="0 0 40 40" fill="none">
  <rect width="40" height="40" rx="8" fill="#2652E4" fill-opacity="0.1"></rect>
  <g clip-path="url(#clip0_25_392301)">
    <path d="M26.2249 15.9375L23.7249 17.3094C23.537 17.4031 23.3201 17.4204 23.1198 17.3577C22.9194 17.295 22.751 17.1572 22.65 16.9732C22.549 16.7891 22.5232 16.5731 22.5779 16.3705C22.6326 16.1678 22.7637 15.9941 22.9436 15.8859C22.9777 15.8669 23.0132 15.8507 23.0499 15.8375L25.7186 14.8359C25.8624 14.7823 26.0211 14.785 26.163 14.8436C26.3048 14.9021 26.4193 15.0122 26.4834 15.1516C26.5474 15.291 26.5564 15.4496 26.5085 15.5953C26.4605 15.7411 26.3592 15.8633 26.2249 15.9375Z" fill="#FFC298"></path>
    <path d="M26.0938 18.2812L23.7032 18.9515C23.4999 19.0043 23.284 18.9751 23.102 18.8704C22.9199 18.7656 22.7863 18.5936 22.7298 18.3913C22.6732 18.189 22.6984 17.9726 22.7998 17.7887C22.9012 17.6047 23.0707 17.4679 23.2719 17.4077C23.3119 17.3969 23.3527 17.3891 23.3938 17.3843L25.8579 17.0905C26.0091 17.0746 26.1609 17.1157 26.2833 17.2059C26.4058 17.2961 26.4901 17.4289 26.5197 17.5781C26.5492 17.7273 26.5219 17.8821 26.4431 18.0122C26.3643 18.1423 26.2397 18.2382 26.0938 18.2812Z" fill="#FFC298"></path>
    <path d="M14.1768 25.4203L14.7564 24.2984C14.7564 24.2984 15.4955 24.0968 17.5174 25.2109C19.5393 26.325 19.7283 26.9468 19.7283 26.9468C19.7283 26.9468 19.2596 27.8843 19.0189 27.8843C18.3814 27.9297 15.2486 26.0937 14.1768 25.4203Z" fill="#892E1D"></path>
    <path d="M25.8295 20.0077L24.267 19.7484L24.8436 19.6437L23.8842 20.1562C23.7514 20.228 23.5966 20.248 23.4499 20.2122C23.3032 20.1765 23.175 20.0875 23.0901 19.9626C23.0053 19.8376 22.9699 19.6857 22.9907 19.5361C23.0116 19.3865 23.0872 19.25 23.203 19.153L24.0295 18.4577C24.104 18.3947 24.1932 18.3515 24.2887 18.3321C24.3843 18.3127 24.4833 18.3178 24.5764 18.3468H24.5998L26.1123 18.8249C26.2574 18.8725 26.3792 18.9729 26.4536 19.1062C26.528 19.2395 26.5495 19.3959 26.5139 19.5443C26.4782 19.6927 26.3881 19.8223 26.2613 19.9073C26.1345 19.9923 25.9804 20.0265 25.8295 20.003V20.0077Z" fill="#FFC298"></path>
    <path d="M25.781 21.75L23.3653 22.0938C23.1774 22.1205 22.9866 22.0715 22.8348 21.9575C22.683 21.8435 22.5827 21.6739 22.556 21.486C22.5292 21.2981 22.5783 21.1072 22.6922 20.9554C22.8062 20.8036 22.9758 20.7033 23.1638 20.6766H23.2278L25.6653 20.55C25.8149 20.5517 25.9586 20.6086 26.0687 20.7097C26.1789 20.8109 26.2478 20.9492 26.2621 21.0981C26.2765 21.247 26.2353 21.3959 26.1464 21.5163C26.0576 21.6366 25.9275 21.7199 25.781 21.75Z" fill="#FFC298"></path>
    <path d="M17.7029 16.9578C17.7029 16.9578 16.3389 18.0875 15.8701 19.05C15.4014 20.0125 14.9326 26.4343 14.9326 26.4343L18.4529 28.5093C18.6867 27.8588 19.0017 27.2403 19.3904 26.6687C19.9795 25.8468 21.7342 25.2812 22.1717 24.2718C22.6092 23.2625 21.6217 18.0828 21.642 17.9312C21.6623 17.7796 17.7029 16.9578 17.7029 16.9578Z" fill="#FFC298"></path>
    <path d="M17.8797 17.9312C17.8797 17.9312 16.6922 19.3858 16.7703 20.3655C16.8152 20.9476 16.9622 21.5173 17.2047 22.0483L18.375 19.8171L17.8797 17.9312Z" fill="#E1927A"></path>
    <path d="M19.2186 22.4999C19.2186 22.4999 19.1404 24.5093 18.3826 25.2671C17.7442 25.9484 17.1428 26.6635 16.5811 27.4093L18.4561 28.5171C18.6898 27.8665 19.0048 27.2481 19.3936 26.6765C19.9826 25.8546 21.7373 25.289 22.1748 24.2796C22.3217 23.9358 22.3045 23.1108 22.2186 22.1655L20.8123 22.2905L19.2186 22.4999Z" fill="#E1927A"></path>
    <path d="M26.0938 23.3031V11.0719C26.0938 10.4799 25.6139 10 25.0219 10H18.5719C17.9799 10 17.5 10.4799 17.5 11.0719V23.3031C17.5 23.8951 17.9799 24.375 18.5719 24.375H25.0219C25.6139 24.375 26.0938 23.8951 26.0938 23.3031Z" fill="#2652E4"></path>
    <path d="M25.1562 22.5469V11.5156C25.1562 11.1963 24.8974 10.9375 24.5781 10.9375H19.0156C18.6963 10.9375 18.4375 11.1963 18.4375 11.5156V22.5469C18.4375 22.8662 18.6963 23.125 19.0156 23.125H24.5781C24.8974 23.125 25.1562 22.8662 25.1562 22.5469Z" fill="white"></path>
    <path d="M13.1592 26.6484C13.1592 26.6484 14.5936 24.6047 14.7561 24.3047C14.8842 24.6938 15.8701 26.0734 16.9686 26.5891C18.067 27.1047 19.3529 27.3219 19.7279 26.9531L18.6467 30C18.6467 30 15.017 30.0188 13.1592 26.6484Z" fill="#AA4628"></path>
    <path d="M23.9109 20H19.6828C19.5128 20 19.375 20.1378 19.375 20.3078V21.5672C19.375 21.7372 19.5128 21.875 19.6828 21.875H23.9109C24.0809 21.875 24.2188 21.7372 24.2188 21.5672V20.3078C24.2188 20.1378 24.0809 20 23.9109 20Z" fill="#BDE5EC"></path>
    <path d="M22.1283 19.5719L21.5626 19.7469L20.9939 19.9031C20.6126 20.0078 20.2298 20.1047 19.8408 20.1953L20.2845 20.0125C19.8736 20.4562 19.6283 21.014 19.4423 21.6765C19.2583 22.4013 19.1149 23.1358 19.0126 23.8765C18.9788 24.0918 18.9029 24.2983 18.7892 24.4842C18.6756 24.6701 18.5264 24.8318 18.3503 24.96C18.1741 25.0883 17.9744 25.1806 17.7626 25.2317C17.5508 25.2828 17.331 25.2917 17.1158 25.2578C16.9005 25.2239 16.694 25.148 16.5081 25.0344C16.3222 24.9207 16.1605 24.7716 16.0323 24.5954C15.904 24.4193 15.8117 24.2196 15.7606 24.0078C15.7095 23.796 15.7007 23.5762 15.7345 23.3609C15.7597 23.2122 15.8038 23.0673 15.8658 22.9297C16.2157 22.1254 16.6132 21.3428 17.0564 20.5859C17.3075 20.1678 17.599 19.7753 17.9267 19.414C18.2701 19.0314 18.6688 18.7022 19.1095 18.4375L19.3079 18.3203C19.3824 18.2769 19.4671 18.2542 19.5533 18.2547C19.922 18.2344 20.2939 18.2062 20.6658 18.1719L21.2251 18.125L21.7751 18.0594H21.8064C22.0022 18.0323 22.2009 18.0805 22.3626 18.1941C22.5243 18.3078 22.6369 18.4785 22.6777 18.6719C22.7186 18.8653 22.6846 19.067 22.5826 19.2363C22.4806 19.4056 22.3183 19.53 22.1283 19.5844V19.5719Z" fill="#FFC298"></path>
    <path d="M18.5201 27.9282C18.5038 28.215 18.3752 28.4839 18.1623 28.6767C17.967 28.8329 17.8076 28.7704 17.8076 28.5204C17.8251 28.2346 17.9522 27.9665 18.1623 27.772C18.3607 27.6079 18.5201 27.6782 18.5201 27.9282Z" fill="#3B0B1B"></path>
    <path d="M24.2033 16.3171C24.2033 16.2796 24.1439 16.2421 24.1049 16.2328C23.6382 16.1223 23.1695 16.0182 22.6986 15.9203C22.6766 15.9196 22.6548 15.9242 22.6349 15.9337C22.6151 15.9432 22.5978 15.9574 22.5846 15.9749C22.5393 16.0484 22.5002 16.1312 22.4611 16.2031C22.4439 16.2374 22.4283 16.2718 22.4127 16.3062C22.3736 16.3937 22.3377 16.3765 22.2346 16.3781C21.7549 16.3765 20.533 15.1562 20.5502 14.6874C20.5502 14.5859 20.5346 14.5499 20.6221 14.5109C20.6705 14.489 20.7205 14.4656 20.7674 14.4406C20.8299 14.4093 20.8924 14.3749 20.9533 14.3374C20.9704 14.3241 20.9842 14.307 20.9937 14.2875C21.0032 14.268 21.0081 14.2466 21.008 14.2249C20.9038 13.7562 20.7997 13.2874 20.6955 12.8187C20.6902 12.7966 20.6796 12.776 20.6647 12.7589C20.6497 12.7417 20.6308 12.7285 20.6096 12.7203C20.5441 12.7085 20.4776 12.7038 20.4111 12.7062H20.3799C19.9111 12.7328 19.4424 13.1015 19.4424 14.0406C19.4424 15.3578 21.2908 17.4874 22.8908 17.4874C23.7955 17.4874 24.1705 17.0484 24.2205 16.5999C24.2291 16.5053 24.2233 16.41 24.2033 16.3171Z" fill="#E44450"></path>
    <path d="M21.8921 13.7954C22.2021 13.7954 22.4993 13.9185 22.7185 14.1377C22.9377 14.3569 23.0608 14.6542 23.0608 14.9642" stroke="#ECC6C3" stroke-width="2" stroke-miterlimit="10"></path>
    <path d="M21.8921 12.8828C22.1655 12.8826 22.4363 12.9363 22.689 13.0408C22.9417 13.1453 23.1713 13.2986 23.3648 13.4918C23.5582 13.6851 23.7116 13.9146 23.8163 14.1672C23.921 14.4199 23.9749 14.6906 23.9749 14.9641" stroke="#ECC6C3" stroke-width="2" stroke-miterlimit="10"></path>
    <path d="M21.8921 14.5078V14.9641H22.3437C22.3441 14.8437 22.2968 14.7282 22.2121 14.6426C22.1275 14.5571 22.0124 14.5086 21.8921 14.5078Z" fill="#ECC6C3"></path>
  </g>
  <defs>
    <clipPath id="clip0_25_392301">
      <rect width="20" height="20" fill="white" transform="translate(10 10)"></rect>
    </clipPath>
  </defs>
</svg>
