<?xml version="1.0" encoding="UTF-8"?>
<svg xmlns="http://www.w3.org/2000/svg" width="40" height="40" viewBox="0 0 40 40" fill="none">
  <rect width="40" height="40" rx="8" fill="#FFF5E9"></rect>
  <g clip-path="url(#clip0_1_48086)">
    <path d="M20 30C25.5228 30 30 25.5228 30 20C30 14.4772 25.5228 10 20 10C14.4772 10 10 14.4772 10 20C10 25.5228 14.4772 30 20 30Z" fill="#F7931A"></path>
    <path d="M24.4931 18.7625C24.6894 17.4525 23.6913 16.7481 22.3275 16.2781L22.77 14.5031L21.69 14.2344L21.2588 15.9625C20.975 15.8912 20.6838 15.825 20.3931 15.7587L20.8275 14.0194L19.7475 13.75L19.305 15.5244C19.07 15.4706 18.8388 15.4181 18.615 15.3619L18.6163 15.3562L17.1263 14.9844L16.8388 16.1381C16.8388 16.1381 17.6406 16.3219 17.6238 16.3331C18.0613 16.4425 18.14 16.7319 18.1269 16.9619L17.6231 18.9837C17.6531 18.9912 17.6919 19.0025 17.7356 19.0194L17.6213 18.9913L16.915 21.8237C16.8613 21.9562 16.7256 22.1556 16.4194 22.08C16.4306 22.0956 15.6344 21.8844 15.6344 21.8844L15.0981 23.1206L16.5044 23.4713C16.7656 23.5369 17.0219 23.6056 17.2738 23.67L16.8269 25.465L17.9063 25.7337L18.3488 23.9587C18.6438 24.0381 18.93 24.1119 19.21 24.1819L18.7688 25.9494L19.8488 26.2181L20.2956 24.4269C22.1381 24.7756 23.5231 24.635 24.1063 22.9688C24.5763 21.6275 24.0831 20.8531 23.1138 20.3488C23.82 20.1863 24.3513 19.7219 24.4931 18.7625ZM22.0244 22.2238C21.6913 23.5656 19.4319 22.84 18.6994 22.6581L19.2931 20.28C20.0256 20.4631 22.3738 20.825 22.0244 22.2238ZM22.3588 18.7431C22.0544 19.9638 20.1744 19.3431 19.565 19.1913L20.1025 17.035C20.7119 17.1869 22.6763 17.47 22.3588 18.7431Z" fill="white"></path>
  </g>
  <defs>
    <clipPath id="clip0_1_48086">
      <rect width="20" height="20" fill="white" transform="translate(10 10)"></rect>
    </clipPath>
  </defs>
</svg>
