<?xml version="1.0" encoding="UTF-8"?>
<svg xmlns="http://www.w3.org/2000/svg" width="40" height="40" viewBox="0 0 40 40" fill="none">
  <rect width="40" height="40" rx="8" fill="#E6F7FD"></rect>
  <g clip-path="url(#clip0_1_48179)">
    <path d="M27.8718 20H25.7267C25.7321 19.2372 25.609 18.4788 25.3623 17.7569C25.8423 17.4816 26.2726 17.1273 26.6349 16.709C27.4337 17.6191 27.8735 18.7891 27.8718 20Z" fill="#00ACEA"></path>
    <path d="M25.7267 20H27.8718C27.8735 21.2109 27.4337 22.3809 26.6349 23.291C26.2726 22.8729 25.8426 22.5186 25.3628 22.2431C25.6092 21.521 25.7321 20.7628 25.7267 20Z" fill="#FEDB41"></path>
    <path d="M23.2871 15.0199C24.5802 15.1257 25.7812 15.7317 26.6346 16.7089C26.2723 17.1272 25.842 17.4815 25.3621 17.7569C24.9338 16.5339 24.1341 15.5466 23.0034 15.0044C23.0985 15.007 23.1933 15.0118 23.2871 15.0199Z" fill="#FEDB41"></path>
    <path d="M26.6346 23.2911C25.7809 24.2688 24.5792 24.8748 23.2855 24.9801C23.1923 24.9883 23.0985 24.9931 23.0039 24.9956C24.1346 24.4534 24.9341 23.4661 25.3625 22.2432C25.8423 22.5187 26.2723 22.873 26.6346 23.2911Z" fill="#00ACEA"></path>
    <path d="M25.7266 19.9999H22.8745V18.4118H22.8872C23.7555 18.415 24.6091 18.1891 25.3622 17.7568C25.6089 18.4787 25.732 19.237 25.7266 19.9999Z" fill="#FEDB41"></path>
    <path d="M22.8745 20H25.7266C25.732 20.7628 25.609 21.521 25.3627 22.2431C24.6094 21.8108 23.7555 21.5849 22.8872 21.5881H22.8745V20Z" fill="#00ACEA"></path>
    <path d="M23.0035 15.0045C24.1343 15.5468 24.9339 16.5341 25.3622 17.757C24.6091 18.1892 23.7555 18.4151 22.8872 18.4119H22.8745V15.0029C22.9176 15.0029 22.9602 15.0032 23.0032 15.0045H23.0035Z" fill="#00ACEA"></path>
    <path d="M25.3627 22.2431C24.9343 23.4661 24.1348 24.4533 23.004 24.9956H23.0035C22.9605 24.9969 22.9176 24.9972 22.8745 24.9972V21.5882H22.8872C23.7555 21.585 24.6094 21.8109 25.3627 22.2431Z" fill="#FEDB41"></path>
    <path d="M23.2875 25.7942V28.0175C23.2875 28.923 22.5535 29.6569 21.6481 29.6569H13.7678C12.8624 29.6569 12.1284 28.923 12.1284 28.0175V25.7942H23.2875ZM18.5665 27.7254C18.5664 27.2513 18.1821 26.8671 17.7081 26.8671C17.2341 26.8673 16.8499 27.2515 16.8497 27.7255C16.8497 28.1996 17.2339 28.5838 17.708 28.584C18.1821 28.584 18.5665 28.1996 18.5665 27.7254Z" fill="#00ACEA"></path>
    <path d="M19.1148 23.2911C20.033 24.3428 21.35 24.9611 22.7456 24.9956C22.7886 24.9969 22.8317 24.9972 22.8748 24.9972C22.9178 24.9972 22.9607 24.9969 23.0038 24.9956H23.0043C23.0989 24.9931 23.1927 24.9883 23.2859 24.9801L23.2875 24.9972V25.7943H12.1284V13.562H23.2875V15.0201C23.1937 15.012 23.0989 15.0072 23.0038 15.0046H23.0035C22.9604 15.0033 22.9178 15.003 22.8748 15.003C22.8317 15.003 22.7891 15.0033 22.7465 15.0046C20.8096 15.0546 19.0759 16.2195 18.2982 17.9942C17.5205 19.7688 17.8387 21.8332 19.1148 23.2911Z" fill="#00EFD1"></path>
    <path d="M23.2875 11.9824V13.5618H12.1284V11.9824C12.1284 11.0769 12.8624 10.343 13.7678 10.343H21.6481C22.5535 10.343 23.2875 11.0769 23.2875 11.9824Z" fill="#00ACEA"></path>
    <path d="M22.8744 24.5426V24.9971C22.8314 24.9971 22.7883 24.9968 22.7452 24.9955C21.6163 24.4541 20.8171 23.4689 20.3887 22.248C21.1453 21.8144 22.0024 21.5869 22.8744 21.5881V24.5426Z" fill="#00ACEA"></path>
    <path d="M22.8749 20V21.5881C22.0028 21.5868 21.1457 21.8143 20.3891 22.248C20.1413 21.5247 20.0175 20.7646 20.0231 20H22.8749Z" fill="#FEDB41"></path>
    <path d="M22.8749 18.4119V20H20.0231C20.0175 19.2354 20.1413 18.4754 20.3891 17.752C21.1459 18.1855 22.0028 18.413 22.8749 18.4119Z" fill="#00ACEA"></path>
    <path d="M22.8744 15.4574V18.4119C22.0024 18.4131 21.1454 18.1856 20.3887 17.752C20.8174 16.5312 21.6166 15.546 22.7462 15.0045C22.7888 15.0032 22.8314 15.0029 22.8744 15.0029V15.4574Z" fill="#FEDB41"></path>
    <path d="M22.7464 15.0044C21.6168 15.5458 20.8176 16.531 20.3889 17.7519C19.9094 17.4773 19.4788 17.1248 19.1147 16.7089C20.033 15.6571 21.3504 15.0387 22.7464 15.0044Z" fill="#00ACEA"></path>
    <path d="M20.3889 22.248C20.8173 23.4689 21.6165 24.4541 22.7455 24.9955C21.35 24.961 20.0329 24.3427 19.1147 23.291C19.4788 22.8751 19.9094 22.5226 20.3889 22.248Z" fill="#FEDB41"></path>
    <path d="M20.389 17.752C20.1412 18.4754 20.0174 19.2354 20.023 20H17.8779C17.8763 18.7891 18.3159 17.6191 19.1148 16.709C19.4789 17.1249 19.9095 17.4774 20.389 17.752Z" fill="#FEDB41"></path>
    <path d="M20.023 20C20.0174 20.7646 20.1412 21.5247 20.389 22.248C19.9095 22.5226 19.4789 22.8751 19.1148 23.291C18.3159 22.3809 17.8763 21.2109 17.8779 20H20.023Z" fill="#00ACEA"></path>
    <path d="M17.7079 26.8672C18.1821 26.8672 18.5664 27.2514 18.5664 27.7256C18.5664 28.1996 18.1821 28.584 17.708 28.584C17.2338 28.584 16.8496 28.1996 16.8496 27.7254C16.8498 27.2516 17.234 26.8673 17.7079 26.8672Z" fill="#00EFD1"></path>
    <path d="M19.103 11.5164H16.3132C16.1322 11.5164 15.9854 11.6632 15.9854 11.8442C15.9854 12.0253 16.1322 12.1721 16.3132 12.1721H19.103C19.2841 12.1721 19.4309 12.0253 19.4309 11.8442C19.4309 11.6632 19.2841 11.5164 19.103 11.5164Z" fill="#083863"></path>
    <path d="M17.7076 28.9119C18.3627 28.912 18.8939 28.381 18.8941 27.7259C18.8942 27.0707 18.3632 26.5395 17.7079 26.5393C17.0528 26.5393 16.5216 27.0703 16.5215 27.7254C16.5223 28.3802 17.0528 28.9109 17.7076 28.9119ZM17.7076 27.195C18.0006 27.195 18.2383 27.4325 18.2383 27.7256C18.2383 28.0186 18.0007 28.2561 17.7078 28.2561C17.4146 28.2561 17.1772 28.0186 17.1772 27.7254C17.1777 27.4328 17.415 27.1955 17.7076 27.195Z" fill="#083863"></path>
    <path d="M23.6065 14.7267V11.9824C23.6065 10.8975 22.7326 10 21.6479 10H13.7676C12.6828 10 11.8032 10.8975 11.8032 11.9824V28.0176C11.8032 29.1025 12.6828 30 13.7676 30H21.6479C22.7326 30 23.6065 29.1025 23.6065 28.0176V25.2731C26.2368 24.9055 28.1939 22.6558 28.1939 19.9998C28.1939 17.3441 26.2368 15.0943 23.6065 14.7267ZM22.9508 28.0177C22.9508 28.7409 22.3711 29.3443 21.6479 29.3443H13.7676C13.0444 29.3443 12.459 28.7407 12.459 28.0176V26.1066H22.9508V28.0177ZM22.9508 14.676C22.8688 14.6747 22.8057 14.6747 22.7335 14.6768C19.8479 14.753 17.5483 17.1143 17.5489 20.0011C17.5496 22.8877 19.8501 25.2483 22.7358 25.3232C22.7819 25.3247 22.8238 25.325 22.8699 25.325C22.8983 25.325 22.9506 25.3243 22.9506 25.324V25.4508H12.459V13.8934H22.9508V14.676ZM19.9966 17.8965C19.823 18.4735 19.7239 19.0702 19.7019 19.6721H18.2172C18.2798 18.7793 18.598 17.9233 19.1338 17.2064C19.3966 17.4659 19.6857 17.6972 19.9966 17.8965ZM19.5639 16.7087C20.0672 16.2033 20.6794 15.8195 21.3537 15.5866C20.872 16.0664 20.4892 16.6361 20.2273 17.2635C19.9892 17.0996 19.7672 16.9139 19.5639 16.7087ZM19.7019 20.3279C19.7239 20.9298 19.823 21.5266 19.9966 22.1035C19.6857 22.3028 19.3967 22.5341 19.134 22.7936C18.598 22.0767 18.2798 21.2207 18.2172 20.3279H19.7019ZM20.2271 22.7366C20.4889 23.3639 20.8715 23.9336 21.3532 24.4134C20.6791 24.1803 20.0672 23.7966 19.5639 23.2913C19.7672 23.0861 19.9892 22.9004 20.2271 22.7366ZM20.7922 22.4014C21.3383 22.1299 21.9326 21.9688 22.5409 21.9274V24.5156C21.7622 24.0479 21.1709 23.3264 20.7922 22.4017V22.4014ZM20.5812 21.7767C20.4522 21.3038 20.3774 20.8178 20.3582 20.3279H22.5409V21.2705C21.8618 21.315 21.197 21.4868 20.5812 21.7767ZM20.3582 19.6721C20.3774 19.1822 20.4522 18.6962 20.5814 18.2231C21.1971 18.5132 21.8618 18.6848 22.5409 18.7295V19.6721H20.3582ZM20.7924 17.5983C21.1712 16.6736 21.7622 15.9521 22.5409 15.4848V18.0726C21.9326 18.0312 21.3383 17.87 20.7924 17.5983ZM22.9508 13.2377H12.459V11.9824C12.459 11.2593 13.0444 10.6557 13.7676 10.6557H21.6479C22.3711 10.6557 22.9508 11.2593 22.9508 11.9824V13.2377ZM26.1869 16.7095C25.984 16.9161 25.7621 17.103 25.5239 17.2677C25.2611 16.6368 24.8762 16.0638 24.3913 15.5821C25.0688 15.8142 25.6834 16.2001 26.1869 16.7095ZM23.1967 15.4844C23.9754 15.9527 24.5688 16.676 24.9476 17.6034C24.4009 17.8748 23.8057 18.0345 23.1967 18.0738V15.4844ZM23.1967 18.7308C23.879 18.694 24.5474 18.5233 25.1639 18.2284C25.294 18.6996 25.3702 19.1839 25.3912 19.6721H23.1967V18.7308ZM23.1967 20.3279H25.3912C25.3701 20.8161 25.2939 21.3004 25.1639 21.7716C24.5474 21.4769 23.879 21.3062 23.1967 21.2692V20.3279ZM23.1967 24.5157V21.9256C23.806 21.9645 24.4014 22.1246 24.9479 22.3964C24.5691 23.324 23.9754 24.0475 23.1967 24.5157ZM24.3924 24.4174C24.8768 23.9357 25.2615 23.3632 25.5244 22.7326C25.7623 22.8972 25.9842 23.0842 26.1869 23.2905C25.6837 23.7996 25.0694 24.1853 24.3924 24.4173V24.4174ZM26.6166 22.7925C26.3545 22.5314 26.0655 22.2989 25.7545 22.0988C25.927 21.5233 26.0255 20.9282 26.0476 20.3279H27.5321C27.4697 21.2202 27.1517 22.0756 26.6166 22.7923V22.7925ZM26.0476 19.6721C26.0255 19.0718 25.9269 18.4767 25.7541 17.9014C26.0654 17.7012 26.3543 17.4688 26.6166 17.2077C27.1517 17.9244 27.4697 18.7798 27.5321 19.6721H26.0476Z" fill="#083863"></path>
  </g>
  <defs>
    <clipPath id="clip0_1_48179">
      <rect width="20" height="20" fill="white" transform="translate(10 10)"></rect>
    </clipPath>
  </defs>
</svg>
