<?xml version="1.0" encoding="UTF-8"?>
<svg xmlns="http://www.w3.org/2000/svg" width="40" height="40" viewBox="0 0 40 40" fill="none">
  <rect width="40" height="40" rx="8" fill="#FFFCEB"></rect>
  <g clip-path="url(#clip0_25_392448)">
    <path d="M27.9492 29.707H12.0508V17.0117L20 13.125L27.9492 17.0117V29.707Z" fill="#F5F5F7"></path>
    <mask id="mask0_25_392448" style="mask-type:luminance" maskUnits="userSpaceOnUse" x="10" y="10" width="20" height="20">
      <path d="M10 10H30V30H10V10Z" fill="white"></path>
    </mask>
    <g mask="url(#mask0_25_392448)">
      <path d="M20 13.125L19.4141 13.4115L26.7773 17.0117V21.8233C26.7773 25.0782 24.989 28.0699 22.1221 29.6111L21.9435 29.707H26.7773H27.9492V17.0117L20 13.125Z" fill="#E5E1E5"></path>
      <path d="M20 29.4141C19.8382 29.4141 19.707 29.2829 19.707 29.1211V25.8082C19.707 25.6464 19.8382 25.5152 20 25.5152C20.1618 25.5152 20.293 25.6464 20.293 25.8082V29.1211C20.293 29.2829 20.1618 29.4141 20 29.4141Z" fill="#E5E1E5"></path>
      <path d="M20.8789 21.9761C20.7171 21.9761 20.5859 21.8449 20.5859 21.6831V20.3753C20.5859 20.2135 20.7171 20.0824 20.8789 20.0824C21.0407 20.0824 21.1719 20.2135 21.1719 20.3753V21.6831C21.1719 21.8449 21.0407 21.9761 20.8789 21.9761Z" fill="#E5E1E5"></path>
      <path d="M19.1211 21.9761C18.9593 21.9761 18.8281 21.8449 18.8281 21.6831V20.3753C18.8281 20.2135 18.9593 20.0824 19.1211 20.0824C19.2829 20.0824 19.4141 20.2135 19.4141 20.3753V21.6831C19.4141 21.8449 19.2829 21.9761 19.1211 21.9761Z" fill="#E5E1E5"></path>
      <path d="M20.0002 25.8081C18.9268 25.8081 18.0566 24.9379 18.0566 23.8646V21.9475C18.0566 21.8015 18.175 21.6831 18.3211 21.6831H21.6793C21.8253 21.6831 21.9437 21.8015 21.9437 21.9475V23.8646C21.9437 24.9379 21.0736 25.8081 20.0002 25.8081Z" fill="#60B7FF"></path>
      <path d="M21.6791 21.6833H20.5072C20.6532 21.6833 20.7716 21.8017 20.7716 21.9477V23.8648C20.7716 24.734 20.201 25.4697 19.4141 25.7182C19.599 25.7767 19.7957 25.8083 20 25.8083C21.0734 25.8083 21.9435 24.9382 21.9435 23.8648V21.9477C21.9435 21.8017 21.8251 21.6833 21.6791 21.6833Z" fill="#26A6FE"></path>
      <path d="M29.4268 18.6732L20 14.121L10.5732 18.6732C10.4435 18.7358 10.293 18.6413 10.293 18.4973V16.7436C10.293 16.6687 10.3358 16.6003 10.4034 16.5677L20 11.9335L29.5966 16.5677C29.6641 16.6003 29.707 16.6687 29.707 16.7436V18.4973C29.707 18.6413 29.5564 18.7358 29.4268 18.6732Z" fill="#D77F4A"></path>
      <path d="M29.5966 16.5677L20 11.9335L19.4141 12.2165L27.8208 16.276C28.2137 16.4658 28.5352 16.978 28.5352 17.4143V18.2426L29.4268 18.6732C29.5565 18.7358 29.707 18.6414 29.707 18.4973V16.7436C29.707 16.6687 29.6642 16.6003 29.5966 16.5677Z" fill="#C86D36"></path>
      <path d="M18.8281 13.7387L16.7404 13.5107L15.2286 14.2377C15.2838 14.9459 14.8973 15.615 14.2562 15.9209L10.293 17.8127V18.4973C10.293 18.6413 10.4435 18.7358 10.5732 18.6732L19.4141 14.404L18.8281 13.7387Z" fill="#C86D36"></path>
      <path d="M29.4727 28.5352H10.5273C10.3979 28.5352 10.293 28.6401 10.293 28.7695V29.4727C10.293 29.6021 10.3979 29.707 10.5273 29.707H29.4727C29.6021 29.707 29.707 29.6021 29.707 29.4727V28.7695C29.707 28.6401 29.6021 28.5352 29.4727 28.5352Z" fill="#9B8E99"></path>
      <path d="M29.4727 28.5352H28.3008C28.4302 28.5352 28.5352 28.6401 28.5352 28.7695V29.4727C28.5352 29.6021 28.4302 29.707 28.3008 29.707H29.4727C29.6021 29.707 29.707 29.6021 29.707 29.4727V28.7695C29.707 28.6401 29.6021 28.5352 29.4727 28.5352Z" fill="#918291"></path>
      <path d="M24.1365 14.4293C24.1365 16.7138 22.2846 18.5657 20.0001 18.5657C17.7157 18.5657 15.8638 16.7138 15.8638 14.4293C15.8638 12.1449 17.7157 10.2929 20.0001 10.2929C22.2846 10.2929 24.1365 12.1449 24.1365 14.4293Z" fill="#FEDF30"></path>
      <path d="M21.2384 10.4816C22.2836 11.2323 22.9645 12.4583 22.9645 13.8434C22.9645 16.1278 21.1126 17.9797 18.8282 17.9797C18.3968 17.9797 17.9808 17.9136 17.5898 17.7911C18.2685 18.2785 19.1007 18.5657 20 18.5657C22.2845 18.5657 24.1364 16.7138 24.1364 14.4293C24.1364 12.5763 22.9179 11.0079 21.2384 10.4816Z" fill="#FAC600"></path>
      <path d="M20.7599 11.6192C20.9939 11.6173 21.1499 11.832 21.0715 12.0343C20.8633 12.5721 20.6327 13.103 20.4079 13.6341C20.3943 13.6663 20.4041 13.6797 20.4307 13.6951C20.8516 13.938 21.2716 14.1827 21.693 14.425C21.9005 14.5443 21.9336 14.7873 21.7604 14.9516C20.9972 15.6755 20.2329 16.3982 19.4688 17.1211C19.3406 17.2424 19.2145 17.2699 19.0831 17.2063C18.9399 17.137 18.8697 16.9741 18.9281 16.8232C19.0078 16.6172 19.0952 16.4141 19.1801 16.2101C19.3169 15.881 19.4538 15.5519 19.5924 15.2236C19.6066 15.19 19.5947 15.1781 19.569 15.1633C19.1428 14.9182 18.7124 14.678 18.2915 14.424C18.0956 14.3057 18.0724 14.0645 18.2395 13.9063C19.0031 13.1828 19.769 12.4616 20.5311 11.7364C20.6013 11.6696 20.6785 11.6218 20.7599 11.6192Z" fill="#FEA95C"></path>
      <path d="M21.6931 14.425C21.2718 14.1827 20.8518 13.9381 20.4309 13.6951C20.4042 13.6797 20.3945 13.6663 20.4081 13.6341C20.6329 13.103 20.8635 12.5721 21.0717 12.0343C21.1501 11.8319 20.9941 11.6173 20.7601 11.6192C20.6786 11.6218 20.6015 11.6696 20.5312 11.7365C20.2566 11.9978 19.9812 12.2583 19.7058 12.5189C19.6703 12.6342 19.4545 13.0814 19.3348 13.3928C19.2721 13.5559 19.337 13.74 19.4882 13.8276C19.8325 14.0268 20.1764 14.2267 20.5212 14.425C20.7288 14.5444 20.7619 14.7873 20.5887 14.9516C20.1023 15.4129 19.6153 15.8735 19.1283 16.3342C19.0602 16.4966 18.9919 16.659 18.9283 16.8232C18.8699 16.9742 18.9401 17.137 19.0832 17.2063C19.2146 17.2699 19.3408 17.2424 19.469 17.1211C20.233 16.3982 20.9974 15.6755 21.7606 14.9516C21.9337 14.7873 21.9007 14.5444 21.6931 14.425Z" fill="#FE9738"></path>
      <path d="M24.2036 15.8259C24.3499 15.3866 24.4293 14.9171 24.4293 14.4294C24.4293 14.4189 24.429 14.4084 24.4289 14.398L29.4141 16.8052V18.3419L24.2036 15.8259ZM20 18.2728C17.8807 18.2728 16.1566 16.5486 16.1566 14.4294C16.1566 12.3101 17.8807 10.5859 20 10.5859C22.1193 10.5859 23.8434 12.3101 23.8434 14.4294C23.8434 16.5486 22.1193 18.2728 20 18.2728ZM29.4141 29.4141H10.5859V28.8281H29.4141V29.4141ZM18.3495 23.8647V21.9762H21.6505V23.8647C21.6505 24.7748 20.9101 25.5152 20 25.5152C19.0899 25.5152 18.3495 24.7748 18.3495 23.8647ZM27.9492 25.1711C28.111 25.1711 28.2422 25.0399 28.2422 24.8781V18.4267L29.2998 18.9373C29.4516 19.0105 29.628 19.001 29.7714 18.911C29.9145 18.8211 30 18.6664 30 18.4973V16.7438C30 16.5571 29.8913 16.3845 29.7239 16.3041L24.3723 13.7199C24.0317 11.6136 22.2009 10 20 10C17.5576 10 15.5706 11.987 15.5706 14.4294C15.5706 14.9171 15.6501 15.3866 15.7964 15.8259L10.5859 18.3419V16.8052L14.7643 14.7875C14.91 14.7171 14.9711 14.542 14.9007 14.3963C14.8304 14.2506 14.6553 14.1895 14.5095 14.2598L10.2768 16.3038C10.1086 16.3845 10 16.5572 10 16.7438V18.4973C10 18.6664 10.0854 18.8211 10.2286 18.911C10.3721 19.0011 10.5485 19.0105 10.7004 18.9373L11.7578 18.4267V28.2422H10.5273C10.2365 28.2422 10 28.4788 10 28.7695V29.4727C10 29.7634 10.2365 30 10.5273 30H29.4727C29.7634 30 30 29.7634 30 29.4727V28.7695C30 28.4788 29.7634 28.2422 29.4727 28.2422H28.2422V26.05C28.2422 25.8882 28.111 25.757 27.9492 25.757C27.7874 25.757 27.6562 25.8882 27.6562 26.05V28.2422H20.293V26.0814C21.3882 25.9373 22.2365 24.9986 22.2365 23.8647V21.9476C22.2365 21.6403 21.9864 21.3902 21.6791 21.3902H21.1719V20.3754C21.1719 20.2136 21.0407 20.0825 20.8789 20.0825C20.7171 20.0825 20.5859 20.2136 20.5859 20.3754V21.3902H19.4141V20.3754C19.4141 20.2136 19.2829 20.0825 19.1211 20.0825C18.9593 20.0825 18.8281 20.2136 18.8281 20.3754V21.3902H18.3209C18.0135 21.3902 17.7635 21.6403 17.7635 21.9476V23.8647C17.7635 24.9986 18.6118 25.9373 19.707 26.0814V28.2422H12.3437V18.1438L16.0187 16.3692C16.7391 17.842 18.253 18.8587 20 18.8587C21.747 18.8587 23.2608 17.842 23.9813 16.3692L27.6562 18.1438V24.8781C27.6562 25.0399 27.7874 25.1711 27.9492 25.1711ZM21.5588 14.739C20.7568 15.4998 19.2949 16.9077 19.2176 16.9456C19.2119 16.9434 19.1979 16.9382 19.2014 16.9289C19.4041 16.3995 19.6558 15.827 19.8624 15.3376C19.9205 15.2 19.8975 15.0143 19.7151 14.9093C19.2916 14.6657 18.8636 14.4271 18.443 14.1732C18.4117 14.1543 18.4131 14.1454 18.441 14.119C18.9437 13.6427 20.6052 12.0293 20.7771 11.9135C20.7926 11.9168 20.7983 11.9252 20.7984 11.9286C20.5912 12.4625 20.3602 12.9955 20.1382 13.5199C20.0681 13.6855 20.1268 13.8579 20.2843 13.9488C20.7053 14.1919 21.1254 14.4368 21.547 14.679C21.5899 14.7036 21.5914 14.7081 21.5588 14.739ZM21.8391 14.171C21.4798 13.9644 21.1214 13.7561 20.7626 13.5485C20.9583 13.0888 21.1608 12.6148 21.3447 12.1402C21.4154 11.9579 21.3912 11.753 21.28 11.5922C21.0544 11.2657 20.621 11.2466 20.3291 11.5242C19.561 12.255 18.8024 12.9693 18.038 13.6937C17.8905 13.8334 17.8178 14.0232 17.8384 14.2143C17.8589 14.4036 17.9689 14.5714 18.1402 14.6748C18.5052 14.8952 18.873 15.1027 19.2377 15.3111C19.0562 15.7393 18.8326 16.2583 18.6549 16.7175C18.5421 17.009 18.6714 17.3325 18.9554 17.47C19.1786 17.578 19.4357 17.5571 19.6702 17.3339C20.4171 16.6232 21.2121 15.8756 21.9621 15.1641C22.1112 15.0226 22.1837 14.8316 22.1608 14.64C22.1377 14.4463 22.0205 14.2754 21.8391 14.171Z" fill="black"></path>
    </g>
  </g>
  <defs>
    <clipPath id="clip0_25_392448">
      <rect width="20" height="20" fill="white" transform="translate(10 10)"></rect>
    </clipPath>
  </defs>
</svg>
