<?xml version="1.0" encoding="UTF-8"?>
<svg xmlns="http://www.w3.org/2000/svg" width="40" height="40" viewBox="0 0 40 40" fill="none">
  <rect width="40" height="40" rx="8" fill="#EDF1FA"></rect>
  <g clip-path="url(#clip0_17_391191)">
    <g clip-path="url(#clip1_17_391191)">
      <path d="M26.8848 26.8848C30.6979 23.0716 30.6979 16.8893 26.8848 13.0762C23.0716 9.26303 16.8893 9.26303 13.0762 13.0762C9.26303 16.8893 9.26303 23.0716 13.0762 26.8848C16.8893 30.6979 23.0716 30.6979 26.8848 26.8848Z" fill="#A4C9FF"></path>
      <path d="M19.9824 29.9023C14.5115 29.9023 10.0605 25.4514 10.0605 19.9805C10.0605 14.5095 14.5115 10.0586 19.9824 10.0586C25.4534 10.0586 29.9043 14.5095 29.9043 19.9805C29.9043 25.4514 25.4534 29.9023 19.9824 29.9023ZM19.9824 10.3711C14.6838 10.3711 10.373 14.6819 10.373 19.9805C10.373 25.2791 14.6838 29.5898 19.9824 29.5898C25.281 29.5898 29.5918 25.2791 29.5918 19.9805C29.5918 14.6819 25.2811 10.3711 19.9824 10.3711Z" fill="#A4C9FF"></path>
      <path d="M19.9826 28.2921C24.5731 28.2921 28.2943 24.5709 28.2943 19.9804C28.2943 15.39 24.5731 11.6687 19.9826 11.6687C15.3922 11.6687 11.6709 15.39 11.6709 19.9804C11.6709 24.5709 15.3922 28.2921 19.9826 28.2921Z" fill="#A4C9FF"></path>
      <path d="M23.931 19.9829H16.0342L19.6507 26.9592C19.7901 27.2282 20.175 27.2282 20.3144 26.9592L23.931 19.9829Z" fill="#E0EBFC"></path>
      <path d="M19.9826 28.4484C15.3133 28.4484 11.5146 24.6496 11.5146 19.9804C11.5146 15.3112 15.3134 11.5125 19.9826 11.5125C24.6518 11.5125 28.4507 15.3111 28.4507 19.9804C28.4507 24.6497 24.6519 28.4484 19.9826 28.4484ZM19.9826 11.825C15.4857 11.825 11.8271 15.4835 11.8271 19.9804C11.8271 24.4774 15.4857 28.1359 19.9826 28.1359C24.4796 28.1359 28.1381 24.4774 28.1381 19.9804C28.1381 15.4835 24.4796 11.825 19.9826 11.825Z" fill="#A4C9FF"></path>
      <path d="M19.9825 27.3171C19.7838 27.3171 19.6034 27.2074 19.512 27.031L15.8955 20.0548C15.8703 20.0063 15.8724 19.9483 15.9006 19.9017C15.9289 19.8552 15.9796 19.8267 16.0342 19.8267H23.9309C23.9855 19.8267 24.0361 19.8551 24.0645 19.9017C24.0928 19.9484 24.0948 20.0063 24.0696 20.0548L20.4531 27.031C20.3617 27.2074 20.1813 27.3171 19.9825 27.3171ZM16.2912 20.1391L19.7894 26.8871C19.8275 26.9606 19.8998 27.0046 19.9826 27.0046C20.0654 27.0046 20.1376 26.9606 20.1758 26.8871L23.674 20.1391H16.2912Z" fill="#3762CC"></path>
      <path d="M20.3144 13.0067C20.175 12.7377 19.7901 12.7377 19.6507 13.0067L16.0342 19.983L19.7975 23.2898C19.9033 23.3828 20.0618 23.3828 20.1675 23.2898L23.9308 19.983L20.3144 13.0067Z" fill="#E0EBFC"></path>
      <path d="M19.9825 23.5154C19.8794 23.5154 19.7764 23.4793 19.6943 23.4071L15.931 20.1003C15.8771 20.0529 15.8624 19.9749 15.8955 19.911L19.5119 12.9348C19.6034 12.7583 19.7837 12.6487 19.9825 12.6487C20.1812 12.6487 20.3616 12.7583 20.453 12.9348L24.0696 19.911C24.1026 19.9748 24.088 20.0529 24.0341 20.1003L20.2708 23.4071C20.1886 23.4793 20.0855 23.5154 19.9825 23.5154ZM16.2292 19.9463L19.9007 23.1724C19.9473 23.2133 20.0177 23.2134 20.0645 23.1724L23.7359 19.9463L20.1757 13.0786C20.1376 13.0051 20.0654 12.9612 19.9826 12.9612C19.8998 12.9612 19.8276 13.0051 19.7894 13.0786L16.2292 19.9463Z" fill="#3762CC"></path>
      <path d="M19.9824 27.3171C19.8962 27.3171 19.8262 27.2471 19.8262 27.1609V12.8049C19.8262 12.7187 19.8962 12.6487 19.9824 12.6487C20.0687 12.6487 20.1387 12.7187 20.1387 12.8049V27.1609C20.1387 27.2472 20.0687 27.3171 19.9824 27.3171Z" fill="#3762CC"></path>
    </g>
  </g>
  <defs>
    <clipPath id="clip0_17_391191">
      <rect width="20" height="20" fill="white" transform="translate(10 10)"></rect>
    </clipPath>
    <clipPath id="clip1_17_391191">
      <rect width="20" height="20" fill="white" transform="translate(10 10)"></rect>
    </clipPath>
  </defs>
</svg>
