<?xml version="1.0" encoding="UTF-8"?>
<svg xmlns="http://www.w3.org/2000/svg" width="40" height="40" viewBox="0 0 40 40" fill="none">
  <rect width="40" height="40" rx="8" fill="#EEEFFF"></rect>
  <path d="M20.3956 10C14.6632 10 10 14.4961 10 20.0244C10.5755 33.3271 30.2195 33.3234 30.7913 20.0244C30.7913 14.4961 26.1281 10 20.3956 10ZM24.9771 26.0167H17.7522C17.6632 26.0162 17.5756 25.9946 17.4966 25.9535C17.4177 25.9125 17.3496 25.8532 17.2981 25.7807C17.2466 25.7081 17.2131 25.6243 17.2004 25.5362C17.1877 25.4482 17.1961 25.3583 17.225 25.2742L18.7955 20.4922L15.8884 20.8969C15.7407 20.917 15.591 20.8777 15.4723 20.7876C15.3536 20.6974 15.2756 20.5638 15.2554 20.4161C15.2352 20.2684 15.2745 20.1187 15.3647 20C15.4548 19.8813 15.5885 19.8032 15.7362 19.783L19.1816 19.3041L20.7929 14.3959C20.8392 14.2556 20.9393 14.1394 21.0712 14.0729C21.2032 14.0064 21.3561 13.995 21.4965 14.0413C21.6368 14.0876 21.753 14.1877 21.8195 14.3197C21.886 14.4516 21.8973 14.6045 21.851 14.7449L20.3956 19.1556L23.6517 18.7026C23.7994 18.6824 23.9491 18.7218 24.0678 18.8119C24.1865 18.9021 24.2645 19.0357 24.2847 19.1834C24.3049 19.3311 24.2656 19.4808 24.1754 19.5995C24.0853 19.7182 23.9516 19.7963 23.8039 19.8165L20.0244 20.3325L18.5393 24.9029H24.9771C25.1248 24.9029 25.2665 24.9616 25.3709 25.066C25.4754 25.1704 25.5341 25.3121 25.5341 25.4598C25.5341 25.6075 25.4754 25.7492 25.3709 25.8536C25.2665 25.958 25.1248 26.0167 24.9771 26.0167Z" fill="url(#paint0_linear_24_391488)"></path>
  <defs>
    <linearGradient id="paint0_linear_24_391488" x1="10" y1="19.9984" x2="30.7913" y2="19.9984" gradientUnits="userSpaceOnUse">
      <stop stop-color="#00C0FF"></stop>
      <stop offset="1" stop-color="#5558FF"></stop>
    </linearGradient>
  </defs>
</svg>
