<?xml version="1.0" encoding="UTF-8"?>
<svg xmlns="http://www.w3.org/2000/svg" width="40" height="40" viewBox="0 0 40 40" fill="none">
  <rect width="40" height="40" rx="8" fill="#FFECEF"></rect>
  <g clip-path="url(#clip0_25_393002)">
    <path d="M27.647 19.4119V20.5883H28.8234V21.7648H29.9999V20.5883V19.6079V19.4119H27.647Z" fill="#FF9F22"></path>
    <path d="M24.1177 19.4119H26.4706V20.5883H24.1177V19.4119Z" fill="#FF9F22"></path>
    <path d="M20.5884 19.4119H22.9413V20.5883H20.5884V19.4119Z" fill="#FF9F22"></path>
    <path d="M17.0586 19.4119H19.4115V20.5883H17.0586V19.4119Z" fill="#FFDA44"></path>
    <path d="M13.5293 19.4119H15.8822V20.5883H13.5293V19.4119Z" fill="#FFDA44"></path>
    <path d="M10 19.6079V20.5883V21.7648H11.1765V20.5883H12.3529V19.4119H10V19.6079Z" fill="#FFDA44"></path>
    <path d="M28.8234 26.4707H27.647V27.6471H29.9999V27.4511V26.4707V25.2942H28.8234V26.4707Z" fill="#FF9F22"></path>
    <path d="M11.1765 25.2942H10V26.4707V27.4511V27.6471H12.3529V26.4707H11.1765V25.2942Z" fill="#FFDA44"></path>
    <path d="M24.1177 26.4707H26.4706V27.6472H24.1177V26.4707Z" fill="#FF9F22"></path>
    <path d="M20.5884 26.4707H22.9413V27.6472H20.5884V26.4707Z" fill="#FF9F22"></path>
    <path d="M17.0586 26.4707H19.4115V27.6472H17.0586V26.4707Z" fill="#FFDA44"></path>
    <path d="M13.5293 26.4707H15.8822V27.6472H13.5293V26.4707Z" fill="#FFDA44"></path>
    <path d="M10 22.9412H11.1765V24.1176H10V22.9412Z" fill="#FFDA44"></path>
    <path d="M28.8237 22.9412H30.0002V24.1176H28.8237V22.9412Z" fill="#FF9F22"></path>
    <path d="M15.6089 21.937L14.777 22.7689L13.9451 21.937L13.1133 22.7689L13.9452 23.6008L13.1133 24.4327L13.9451 25.2645L14.777 24.4327L15.6089 25.2645L16.4408 24.4327L15.6089 23.6008L16.4408 22.7689L15.6089 21.937Z" fill="#FFDA44"></path>
    <path d="M20.8586 23.6009L21.6908 24.4327L20.8586 25.2649L20.0269 24.4327V22.7692L20.8586 21.937L21.6908 22.7692L20.8586 23.6009Z" fill="#FF9F22"></path>
    <path d="M20.0267 22.7692V24.4327L19.1949 25.2649L18.3628 24.4327L19.1949 23.6009L18.3628 22.7692L19.1949 21.937L20.0267 22.7692Z" fill="#FFDA44"></path>
    <path d="M26.8866 22.7689L26.0548 21.937L25.2228 22.7689L24.391 21.937L23.5591 22.7689L24.391 23.6008L23.5591 24.4327L24.391 25.2645L25.2228 24.4327L26.0548 25.2645L26.8866 24.4327L26.0547 23.6008L26.8866 22.7689Z" fill="#FF9F22"></path>
    <path d="M12.1325 18.2354H11.9851C10.8905 18.2354 10 17.3449 10 16.2502V14.3382C10 13.2435 10.8905 12.353 11.9851 12.353H12.1325C13.2271 12.353 14.1176 13.2435 14.1176 14.3382V14.706H12.9412V14.3382C12.9412 13.8922 12.5784 13.5295 12.1325 13.5295H11.9851C11.5393 13.5295 11.1765 13.8922 11.1765 14.3382V16.2502C11.1765 16.6962 11.5393 17.0589 11.9851 17.0589H12.1325C12.5784 17.0589 12.9412 16.6962 12.9412 16.2502V15.8824H14.1176V16.2502C14.1176 17.3449 13.2271 18.2354 12.1325 18.2354Z" fill="#FF415B"></path>
    <path d="M17.4265 18.2354H17.2791C16.1845 18.2354 15.2939 17.3449 15.2939 16.2502V14.3382C15.2939 13.2435 16.1845 12.353 17.2791 12.353H17.4265C18.521 12.353 19.4116 13.2435 19.4116 14.3382V16.2502C19.4116 17.3449 18.521 18.2354 17.4265 18.2354ZM17.2791 13.5295C16.8332 13.5295 16.4704 13.8922 16.4704 14.3382V16.2502C16.4704 16.6962 16.8332 17.0589 17.2791 17.0589H17.4265C17.8723 17.0589 18.2351 16.6962 18.2351 16.2502V14.3382C18.2351 13.8922 17.8723 13.5295 17.4265 13.5295H17.2791Z" fill="#FF415B"></path>
    <path d="M22.7209 18.2354H20.5884V12.353H22.7209C23.8155 12.353 24.706 13.2435 24.706 14.3382V16.2502C24.706 17.3449 23.8155 18.2354 22.7209 18.2354ZM21.7648 17.0589H22.7209C23.1668 17.0589 23.5296 16.6962 23.5296 16.2502V14.3382C23.5296 13.8922 23.1668 13.5295 22.7209 13.5295H21.7648V17.0589Z" fill="#B40042"></path>
    <path d="M30 13.5295V12.353H25.8823V18.2354H30V17.0589H27.0588V15.8824H29.2157V14.706H27.0588V13.5295H30Z" fill="#B40042"></path>
  </g>
  <defs>
    <clipPath id="clip0_25_393002">
      <rect width="20" height="20" fill="white" transform="translate(10 10)"></rect>
    </clipPath>
  </defs>
</svg>
