<?xml version="1.0" encoding="UTF-8"?>
<svg xmlns="http://www.w3.org/2000/svg" width="40" height="40" viewBox="0 0 40 40" fill="none">
  <rect width="40" height="40" rx="8" fill="#FFEEEE"></rect>
  <path d="M20.0002 29.6666C25.3389 29.6666 29.6668 25.3387 29.6668 19.9999C29.6668 14.6612 25.3389 10.3333 20.0002 10.3333C14.6614 10.3333 10.3335 14.6612 10.3335 19.9999C10.3335 25.3387 14.6614 29.6666 20.0002 29.6666Z" fill="#FF5252"></path>
  <path d="M20 30C14.4867 30 10 25.5133 10 20C10 14.4867 14.4867 10 20 10C25.5133 10 30 14.4867 30 20C30 25.5133 25.5133 30 20 30ZM20 10.6667C14.8533 10.6667 10.6667 14.8533 10.6667 20C10.6667 25.1467 14.8533 29.3333 20 29.3333C25.1467 29.3333 29.3333 25.1467 29.3333 20C29.3333 14.8533 25.1467 10.6667 20 10.6667Z" fill="#FF5252"></path>
  <path d="M20.6671 19.5333C20.5071 19.5333 20.3605 19.4133 20.3405 19.2466C20.3138 19.0666 20.4405 18.8933 20.6205 18.8666L26.2871 18.0266C26.4671 18.0066 26.6405 18.1266 26.6671 18.3066C26.6938 18.4866 26.5671 18.6599 26.3871 18.6866L20.7205 19.5266C20.7005 19.5266 20.6805 19.5333 20.6671 19.5333Z" fill="white"></path>
  <path d="M20.6668 19.5332C20.5935 19.5332 20.5202 19.5066 20.4535 19.4599L14.7868 14.8399C14.6468 14.7266 14.6202 14.5132 14.7402 14.3732C14.8602 14.2332 15.0668 14.2066 15.2068 14.3266L20.8735 18.9466C21.0135 19.0599 21.0402 19.2732 20.9202 19.4132C20.8602 19.4866 20.7668 19.5332 20.6668 19.5332Z" fill="white"></path>
  <path d="M19.6201 27.0868C19.6067 27.0868 19.5867 27.0868 19.5734 27.0868C19.3934 27.0601 19.2667 26.8934 19.2867 26.7134L20.3334 19.1601C20.3467 19.0801 20.3867 19.0068 20.4467 18.9534L23.8867 15.9334C24.0267 15.8134 24.2334 15.8268 24.3601 15.9668C24.4801 16.1068 24.4667 16.3134 24.3267 16.4401L20.9801 19.3801L19.9467 26.8001C19.9267 26.9668 19.7801 27.0868 19.6201 27.0868Z" fill="white"></path>
  <path d="M19.6201 27.0867C19.6001 27.0867 19.5868 27.0867 19.5668 27.08C19.4468 27.06 19.3468 26.98 19.3068 26.8667L14.6868 14.7C14.6468 14.5867 14.6668 14.46 14.7401 14.3667C14.8134 14.2733 14.9401 14.2333 15.0534 14.2533L24.1601 15.8467C24.2268 15.86 24.2868 15.8867 24.3334 15.94L26.5601 18.12C26.6801 18.24 26.6934 18.4333 26.5868 18.5667L19.8801 26.96C19.8134 27.04 19.7201 27.0867 19.6201 27.0867ZM15.5201 15.0067L19.7201 26.0867L25.8801 18.38L23.9468 16.48L15.5201 15.0067Z" fill="white"></path>
</svg>
