<?xml version="1.0" encoding="UTF-8"?>
<svg xmlns="http://www.w3.org/2000/svg" width="40" height="40" viewBox="0 0 40 40" fill="none">
  <rect width="40" height="40" rx="8" fill="#F0F9F7"></rect>
  <g clip-path="url(#clip0_1_48098)">
    <path d="M20 30C25.5228 30 30 25.5228 30 20C30 14.4772 25.5228 10 20 10C14.4772 10 10 14.4772 10 20C10 25.5228 14.4772 30 20 30Z" fill="#26A17B"></path>
    <path fill-rule="evenodd" clip-rule="evenodd" d="M21.2013 20.8645V20.8632C21.1325 20.8682 20.7781 20.8895 19.9875 20.8895C19.3562 20.8895 18.9119 20.8707 18.7556 20.8632V20.8651C16.3256 20.7582 14.5119 20.3351 14.5119 19.8288C14.5119 19.3232 16.3256 18.9001 18.7556 18.7913V20.4438C18.9144 20.4551 19.3694 20.482 19.9981 20.482C20.7525 20.482 21.1306 20.4507 21.2013 20.4445V18.7926C23.6263 18.9007 25.4356 19.3238 25.4356 19.8288C25.4356 20.3351 23.6263 20.757 21.2013 20.8645ZM21.2013 18.6207V17.142H24.585V14.887H15.3719V17.142H18.7556V18.6201C16.0056 18.7463 13.9375 19.2913 13.9375 19.9438C13.9375 20.5963 16.0056 21.1407 18.7556 21.2676V26.0063H21.2013V21.2663C23.9469 21.1401 26.01 20.5957 26.01 19.9438C26.01 19.292 23.9469 18.7476 21.2013 18.6207Z" fill="white"></path>
  </g>
  <defs>
    <clipPath id="clip0_1_48098">
      <rect width="20" height="20" fill="white" transform="translate(10 10)"></rect>
    </clipPath>
  </defs>
</svg>
