<?xml version="1.0" encoding="UTF-8"?>
<svg xmlns="http://www.w3.org/2000/svg" width="40" height="40" viewBox="0 0 40 40" fill="none">
  <rect width="40" height="40" rx="8" fill="#F9F7EB"></rect>
  <g clip-path="url(#clip0_5386_102052)">
    <path d="M20.3175 16.5325H18.8887V19.3494H21.1366V20.5287H18.8887V23.3454H20.3875C20.7726 23.3454 23.5491 23.3889 23.5448 20.0682C23.5405 16.7476 20.8519 16.5325 20.3175 16.5325Z" fill="#C2A633"></path>
    <path d="M20.0781 9.94165C14.5552 9.94165 10.0781 14.4187 10.0781 19.9416C10.0781 25.4644 14.5552 29.9415 20.0781 29.9415C25.6009 29.9415 30.078 25.4644 30.078 19.9416C30.078 14.4187 25.6009 9.94165 20.0781 9.94165ZM20.471 25.3425H16.8495V20.528H15.5729V19.3486H16.8494V14.5337H19.9576C20.6928 14.5337 25.5631 14.381 25.5631 20.0285C25.5631 25.7693 20.471 25.3425 20.471 25.3425H20.471Z" fill="#C2A633"></path>
  </g>
  <defs>
    <clipPath id="clip0_5386_102052">
      <rect width="19.9999" height="19.9999" fill="white" transform="translate(10.0796 9.94434)"></rect>
    </clipPath>
  </defs>
</svg>
