<?xml version="1.0" encoding="UTF-8"?>
<svg xmlns="http://www.w3.org/2000/svg" width="220" height="47" viewBox="0 0 220 47" fill="none">
  <path d="M45.7513 46.2452C45.5421 46.036 45.4375 45.7745 45.4375 45.4084V12.7237C45.4375 12.3576 45.5421 12.0962 45.7513 11.887C45.9604 11.6778 46.2219 11.5732 46.588 11.5732H48.6798C49.0459 11.5732 49.3074 11.6778 49.5165 11.887C49.7257 12.0962 49.8303 12.3576 49.8303 12.7237V14.8678C51.713 12.3576 54.4323 11.1025 57.9361 11.1025C61.3876 11.1025 63.9501 12.2007 65.6759 14.3972C67.4016 16.5936 68.2907 19.3652 68.3953 22.7644C68.4476 23.1305 68.4476 23.7058 68.4476 24.4379C68.4476 25.1701 68.4476 25.7453 68.3953 26.1114C68.2907 29.4583 67.4016 32.23 65.6759 34.4264C63.9501 36.6228 61.3876 37.721 57.9361 37.721C54.4323 37.721 51.7653 36.4659 49.9349 33.9557V45.4084C49.9349 45.7222 49.8303 45.9837 49.6211 46.2452C49.412 46.4543 49.1505 46.5589 48.7844 46.5589H46.588C46.2219 46.5589 45.9604 46.4543 45.7513 46.2452ZM62.1198 31.6024C63.218 30.1381 63.7932 28.2032 63.8978 25.7976C63.9501 25.4838 63.9501 25.0132 63.9501 24.3856C63.9501 18.0578 61.5968 14.9201 56.9425 14.9201C54.6415 14.9201 52.9158 15.7045 51.7653 17.2211C50.6147 18.7377 49.9872 20.568 49.9349 22.6076C49.8826 22.9736 49.8826 23.6012 49.8826 24.5425C49.8826 25.4838 49.8826 26.1114 49.9349 26.4774C49.9872 28.4647 50.6148 30.1904 51.8176 31.6547C53.0204 33.119 54.7461 33.8511 56.9425 33.8511C59.2958 33.8511 61.0216 33.119 62.1198 31.6024Z" fill="white"></path>
  <path d="M72.9456 36.8839C72.7364 36.6747 72.6318 36.4133 72.6318 36.0472V12.7234C72.6318 12.4096 72.7364 12.0958 72.9456 11.8866C73.1548 11.6775 73.4163 11.5206 73.7823 11.5206H75.8742C76.2402 11.5206 76.5017 11.6252 76.7109 11.8343C76.9201 12.0435 77.0247 12.3573 77.0247 12.6711V14.8152C78.3843 12.5665 80.6331 11.4683 83.8754 11.4683H85.8103C86.1764 11.4683 86.4379 11.5729 86.647 11.782C86.8562 11.9912 86.9608 12.2527 86.9608 12.6188V14.4491C86.9608 14.7629 86.8562 15.0244 86.647 15.2858C86.4379 15.495 86.1764 15.5996 85.8103 15.5996H82.9864C81.156 15.5996 79.744 16.1226 78.7504 17.1685C77.7045 18.2144 77.1815 19.6264 77.1815 21.4567V35.9949C77.1815 36.3087 77.077 36.5701 76.8155 36.8316C76.6063 37.0408 76.2925 37.1454 75.9788 37.1454H73.7823C73.4163 37.1977 73.1548 37.0931 72.9456 36.8839Z" fill="white"></path>
  <path d="M90.7248 34.531C88.7376 32.4391 87.6394 29.6152 87.4302 26.0068L87.3779 24.3333L87.4302 22.7122C87.6394 19.1561 88.7376 16.3321 90.7248 14.2403C92.7121 12.1485 95.4315 11.1025 98.7784 11.1025C102.387 11.1025 105.211 12.253 107.198 14.5541C109.185 16.8551 110.179 19.9928 110.179 23.915V24.804C110.179 25.1177 110.074 25.3792 109.865 25.6407C109.656 25.8499 109.394 25.9545 109.028 25.9545H91.9276V26.3728C92.0322 28.517 92.6598 30.3473 93.9149 31.8639C95.17 33.3805 96.7388 34.1126 98.7261 34.1126C100.295 34.1126 101.55 33.7988 102.491 33.2236C103.485 32.596 104.217 31.9685 104.688 31.3409C105.002 30.9226 105.211 30.7134 105.368 30.6088C105.524 30.5042 105.786 30.5042 106.204 30.5042H108.348C108.662 30.5042 108.924 30.6088 109.133 30.7657C109.342 30.9226 109.447 31.1317 109.447 31.3932C109.447 32.1254 109.028 33.0144 108.139 34.008C107.25 35.0016 105.995 35.8906 104.374 36.6228C102.753 37.3549 100.87 37.721 98.7784 37.721C95.4315 37.6687 92.7644 36.6228 90.7248 34.531ZM105.681 22.5553V22.3984C105.681 20.0974 105.054 18.2147 103.799 16.8028C102.544 15.3385 100.87 14.6586 98.7784 14.6586C96.6343 14.6586 94.9608 15.3908 93.758 16.8028C92.5552 18.267 91.9276 20.0974 91.9276 22.3984V22.5553H105.681Z" fill="white"></path>
  <path d="M117.669 36.9388C116.101 36.2066 114.95 35.3699 114.218 34.4286C113.486 33.4873 113.067 32.7028 113.067 32.0753C113.067 31.7615 113.172 31.5 113.433 31.2908C113.643 31.1339 113.904 31.0294 114.166 31.0294H116.257C116.467 31.0294 116.623 31.0817 116.728 31.134C116.833 31.1863 116.99 31.3431 117.199 31.5523C117.931 32.4936 118.82 33.1735 119.761 33.6964C120.703 34.2194 121.958 34.4809 123.526 34.4809C125.305 34.4809 126.717 34.1671 127.762 33.4873C128.808 32.8074 129.384 31.8661 129.384 30.611C129.384 29.7743 129.174 29.1467 128.704 28.6238C128.233 28.1531 127.501 27.6824 126.403 27.3164C125.357 26.898 123.736 26.4796 121.644 26.009C118.768 25.3814 116.78 24.4924 115.578 23.2896C114.375 22.0868 113.8 20.5702 113.8 18.6876C113.8 17.4848 114.166 16.282 114.898 15.1838C115.63 14.0333 116.676 13.1443 118.14 12.4121C119.552 11.7323 121.278 11.3662 123.265 11.3662C125.357 11.3662 127.083 11.7323 128.547 12.4121C130.011 13.092 131.109 13.9287 131.842 14.8177C132.574 15.759 132.94 16.4912 132.94 17.1187C132.94 17.4325 132.835 17.6417 132.626 17.8509C132.417 18.06 132.155 18.1646 131.842 18.1646H129.959C129.488 18.1646 129.174 18.0078 128.965 17.6417C128.39 17.0141 127.919 16.5435 127.553 16.1774C127.187 15.8113 126.612 15.5499 125.88 15.2884C125.148 15.0269 124.259 14.9223 123.16 14.9223C121.539 14.9223 120.336 15.2361 119.447 15.9159C118.611 16.5958 118.192 17.4848 118.192 18.583C118.192 19.2629 118.349 19.8381 118.715 20.3088C119.081 20.7794 119.761 21.2501 120.807 21.6162C121.801 22.0345 123.317 22.4529 125.357 22.8712C128.495 23.5511 130.691 24.4401 131.998 25.6952C133.306 26.898 133.933 28.4669 133.933 30.4018C133.933 31.8138 133.515 33.0689 132.731 34.2194C131.946 35.3699 130.743 36.2589 129.122 36.9388C127.553 37.6186 125.618 37.9324 123.422 37.9324C121.121 38.037 119.238 37.6709 117.669 36.9388Z" fill="white"></path>
  <path d="M139.308 28.5691V15.3906H135.438C135.124 15.3906 134.863 15.286 134.654 15.0768C134.444 14.8676 134.34 14.6062 134.34 14.2924V12.7235C134.34 12.4097 134.444 12.1483 134.654 11.9391C134.863 11.7299 135.124 11.6253 135.438 11.6253H139.308V3.4149C139.308 3.10112 139.413 2.83964 139.622 2.57817C139.831 2.36898 140.092 2.2644 140.406 2.2644H142.55C142.864 2.2644 143.125 2.36898 143.387 2.57817C143.596 2.78735 143.701 3.04883 143.701 3.4149V11.573H149.819C150.133 11.573 150.395 11.6776 150.656 11.8868C150.865 12.096 150.97 12.3574 150.97 12.6712V14.2401C150.97 14.5539 150.865 14.8153 150.656 15.0245C150.447 15.2337 150.185 15.3383 149.819 15.3383H143.701V28.203C143.701 29.8765 143.962 31.1316 144.537 31.9683C145.06 32.805 146.002 33.2757 147.309 33.2757H150.29C150.604 33.2757 150.865 33.3803 151.074 33.5895C151.284 33.7986 151.388 34.0601 151.388 34.4262V36.0473C151.388 36.3611 151.284 36.6226 151.074 36.8841C150.865 37.0933 150.604 37.1978 150.29 37.1978H146.943C141.87 37.1978 139.308 34.3216 139.308 28.5691Z" fill="white"></path>
  <path d="M154.526 36.8841C154.316 36.6749 154.212 36.4134 154.212 36.0473V12.6712C154.212 12.3574 154.316 12.096 154.526 11.8868C154.735 11.6776 154.996 11.573 155.362 11.573H157.454C157.768 11.573 158.029 11.6776 158.239 11.8868C158.448 12.096 158.552 12.3574 158.552 12.6712V14.3447C160.33 12.1482 162.736 11.05 165.769 11.05C169.378 11.05 171.94 12.5666 173.457 15.5998C174.241 14.2401 175.392 13.1419 176.856 12.3051C178.32 11.4684 179.941 11.05 181.772 11.05C184.439 11.05 186.687 11.9914 188.361 13.8217C190.087 15.6521 190.923 18.3191 190.923 21.8229V36.0473C190.923 36.3611 190.819 36.6226 190.61 36.8841C190.4 37.0932 190.139 37.1978 189.773 37.1978H187.629C187.315 37.1978 187.054 37.0932 186.792 36.8841C186.583 36.6749 186.478 36.4134 186.478 36.0473V22.2413C186.478 19.6265 185.955 17.7439 184.857 16.5934C183.759 15.4429 182.347 14.9199 180.569 14.9199C179 14.9199 177.64 15.4952 176.49 16.6457C175.339 17.7962 174.816 19.6788 174.816 22.2413V36.0473C174.816 36.3611 174.712 36.6226 174.503 36.8841C174.293 37.0932 174.032 37.1978 173.666 37.1978H171.522C171.208 37.1978 170.947 37.0932 170.685 36.8841C170.476 36.6749 170.371 36.4134 170.371 36.0473V22.2413C170.371 19.6265 169.796 17.7962 168.698 16.6457C167.547 15.4952 166.135 14.9199 164.462 14.9199C162.893 14.9199 161.533 15.4952 160.383 16.6457C159.232 17.7962 158.709 19.6265 158.709 22.189V36.0473C158.709 36.3611 158.605 36.6226 158.396 36.8841C158.186 37.0932 157.925 37.1978 157.559 37.1978H155.415C154.996 37.1978 154.735 37.0932 154.526 36.8841Z" fill="white"></path>
  <path d="M195.839 6.44748C195.63 6.2383 195.525 5.97682 195.525 5.61075V3.04827C195.525 2.73449 195.63 2.42072 195.839 2.21153C196.048 2.00235 196.31 1.84546 196.676 1.84546H199.604C199.918 1.84546 200.232 1.95006 200.441 2.21153C200.65 2.42072 200.807 2.73449 200.807 3.04827V5.61075C200.807 5.92452 200.703 6.186 200.441 6.44748C200.232 6.65666 199.918 6.76124 199.604 6.76124H196.676C196.31 6.76124 196.048 6.65666 195.839 6.44748ZM196.258 36.8835C196.048 36.6743 195.944 36.4128 195.944 36.0468V12.6707C195.944 12.3569 196.048 12.0954 196.258 11.8862C196.467 11.677 196.728 11.5724 197.094 11.5724H199.238C199.552 11.5724 199.814 11.677 200.075 11.8862C200.284 12.0954 200.389 12.3569 200.389 12.6707V36.0468C200.389 36.3605 200.284 36.622 200.075 36.8835C199.866 37.0927 199.604 37.1973 199.238 37.1973H197.094C196.728 37.1973 196.467 37.0927 196.258 36.8835Z" fill="white"></path>
  <path d="M207.919 28.5691V15.3906H204.049C203.736 15.3906 203.474 15.286 203.265 15.0768C203.056 14.8676 202.951 14.6062 202.951 14.2924V12.7235C202.951 12.4097 203.056 12.1483 203.265 11.9391C203.474 11.7299 203.736 11.6253 204.049 11.6253H207.919V3.4149C207.919 3.10112 208.024 2.83964 208.233 2.57817C208.442 2.36898 208.704 2.2644 209.017 2.2644H211.162C211.475 2.2644 211.737 2.36898 211.998 2.57817C212.207 2.78735 212.312 3.04883 212.312 3.4149V11.573H218.431C218.744 11.573 219.006 11.6776 219.267 11.8868C219.477 12.096 219.581 12.3574 219.581 12.6712V14.2401C219.581 14.5539 219.477 14.8153 219.267 15.0245C219.058 15.2337 218.797 15.3383 218.431 15.3383H212.312V28.203C212.312 29.8765 212.574 31.1316 213.149 31.9683C213.672 32.805 214.613 33.2757 215.92 33.2757H218.901C219.215 33.2757 219.477 33.3803 219.686 33.5895C219.895 33.7986 220 34.0601 220 34.4262V36.0473C220 36.3611 219.895 36.6226 219.686 36.8841C219.477 37.0933 219.215 37.1978 218.901 37.1978H215.554C210.482 37.1978 207.919 34.3216 207.919 28.5691Z" fill="white"></path>
  <path d="M29.0231 2.12062C27.4933 0.946812 25.5483 0.561194 23.6837 1.05699L3.41971 6.48954C1.37297 7.03619 0 8.82867 0 10.9475V38.9874C0 41.1019 1.37297 42.8944 3.41971 43.4411L14.6492 46.454C15.0476 46.5599 15.4544 46.615 15.8527 46.615C16.8528 46.615 17.8317 46.2887 18.6495 45.6573C19.7979 44.7759 20.4547 43.4411 20.4547 41.9961V33.1184L26.8704 31.3979C29.557 30.6775 31.43 28.2325 31.43 25.4484V7.01076C31.4342 5.07843 30.5528 3.29866 29.0231 2.12062ZM17.4079 33.9405V41.9961C17.4079 42.4876 17.1833 42.9368 16.7977 43.2377C16.4078 43.5343 15.912 43.636 15.4417 43.5089L4.21214 40.496C3.13579 40.2078 3.05104 39.2671 3.05104 38.9874C3.05104 38.7077 3.13579 37.7627 4.21214 37.4746L17.4079 33.9405ZM28.3832 25.4526C28.3832 26.8553 27.4382 28.0926 26.0822 28.4571L3.41971 34.5295C3.29258 34.5634 3.1697 34.6015 3.04681 34.6439V10.9475C3.04681 10.6635 3.13156 9.7228 4.2079 9.43465L24.4719 4.00209C24.7389 3.93005 25.0143 3.89615 25.2813 3.89615C25.9551 3.89615 26.6119 4.11651 27.1628 4.54026C27.9382 5.13352 28.3789 6.03612 28.3789 7.01076V25.4526H28.3832Z" fill="white"></path>
</svg>
