<svg width="24" height="49" viewBox="0 0 24 49" fill="none" xmlns="http://www.w3.org/2000/svg">
<path d="M2.80261 48.8011C2.5394 48.8026 2.27847 48.7522 2.0348 48.6526C1.79112 48.5531 1.56949 48.4065 1.38261 48.2211C1.19516 48.0352 1.04637 47.814 0.94483 47.5702C0.843293 47.3265 0.791016 47.0651 0.791016 46.8011C0.791016 46.5371 0.843293 46.2757 0.94483 46.0319C1.04637 45.7882 1.19516 45.567 1.38261 45.3811L17.7226 29.0411C18.8462 27.9161 19.4773 26.3911 19.4773 24.8011C19.4773 23.2111 18.8462 21.6861 17.7226 20.5611L1.38261 4.22115C1.006 3.84454 0.794429 3.33375 0.794429 2.80115C0.794429 2.26855 1.006 1.75776 1.38261 1.38115C1.75922 1.00454 2.27001 0.792969 2.80261 0.792969C3.33522 0.792969 3.846 1.00454 4.22261 1.38115L20.5626 17.7211C21.4939 18.65 22.2327 19.7536 22.7369 20.9685C23.241 22.1834 23.5005 23.4858 23.5005 24.8011C23.5005 26.1165 23.241 27.4189 22.7369 28.6338C22.2327 29.8487 21.4939 30.9522 20.5626 31.8811L4.22261 48.2211C4.03573 48.4065 3.8141 48.5531 3.57043 48.6526C3.32675 48.7522 3.06583 48.8026 2.80261 48.8011Z" fill="#326CF6"/>
</svg>
