<svg width="23" height="49" viewBox="0 0 23 49" fill="none" xmlns="http://www.w3.org/2000/svg">
<path d="M20.7789 48.8011C20.5157 48.8026 20.2548 48.7522 20.0111 48.6526C19.7674 48.5531 19.5458 48.4065 19.3589 48.2211L3.01893 31.8811C2.08767 30.9522 1.34881 29.8487 0.84468 28.6338C0.340551 27.4189 0.0810547 26.1165 0.0810547 24.8011C0.0810547 23.4858 0.340551 22.1834 0.84468 20.9685C1.34881 19.7536 2.08767 18.65 3.01893 17.7211L19.3589 1.38115C19.5454 1.19467 19.7668 1.04675 20.0104 0.945832C20.2541 0.844912 20.5152 0.792969 20.7789 0.792969C21.0426 0.792969 21.3038 0.844912 21.5474 0.945832C21.7911 1.04675 22.0125 1.19467 22.1989 1.38115C22.3854 1.56763 22.5333 1.78901 22.6343 2.03265C22.7352 2.2763 22.7871 2.53743 22.7871 2.80115C22.7871 3.06487 22.7352 3.326 22.6343 3.56965C22.5333 3.81329 22.3854 4.03467 22.1989 4.22115L5.85893 20.5611C4.73533 21.6861 4.10421 23.2111 4.10421 24.8011C4.10421 26.3911 4.73533 27.9161 5.85893 29.0411L22.1989 45.3811C22.3864 45.567 22.5352 45.7882 22.6367 46.0319C22.7383 46.2757 22.7905 46.5371 22.7905 46.8011C22.7905 47.0651 22.7383 47.3265 22.6367 47.5702C22.5352 47.814 22.3864 48.0352 22.1989 48.2211C22.012 48.4065 21.7904 48.5531 21.5467 48.6526C21.3031 48.7522 21.0421 48.8026 20.7789 48.8011Z" fill="#326CF6"/>
</svg>
