<svg width="63" height="63" viewBox="0 0 63 63" fill="none" xmlns="http://www.w3.org/2000/svg">
<g clip-path="url(#clip0_343_58165)">
<rect width="63" height="63" rx="31.5" fill="white"/>
<path d="M53.9635 53.9631C66.3695 41.5571 66.3695 21.4429 53.9635 9.03693C41.5574 -3.36909 21.4433 -3.3691 9.0373 9.03691C-3.36871 21.4429 -3.36872 41.5571 9.0373 53.9631C21.4433 66.3691 41.5575 66.3691 53.9635 53.9631Z" fill="#F7D8BA"/>
<mask id="mask0_343_58165" style="mask-type:luminance" maskUnits="userSpaceOnUse" x="-1" y="-1" width="65" height="65">
<path d="M53.9625 53.9631C66.3685 41.5571 66.3685 21.4429 53.9625 9.03693C41.5565 -3.36909 21.4423 -3.3691 9.03633 9.03691C-3.36969 21.4429 -3.36969 41.5571 9.03633 53.9631C21.4423 66.3691 41.5565 66.3691 53.9625 53.9631Z" fill="white"/>
</mask>
<g mask="url(#mask0_343_58165)">
<path d="M25.7992 13.7994C25.7992 13.7994 29.476 8.8215 35.9913 12.1417C43.1364 15.7814 39.2744 23.6303 39.2744 23.6303L23.9238 20.7223L25.7992 13.7994Z" fill="#1E0B02"/>
<path d="M22.7288 23.6674C22.7288 23.6674 18.714 15.7815 25.7989 13.7949L27.0723 18.0227L22.7288 23.6674Z" fill="#1E0B02"/>
<path d="M26.1332 27.3075C26.1795 28.8819 24.9385 30.197 23.3641 30.2387C21.7897 30.285 20.4746 29.044 20.4329 27.4696C20.3866 25.8951 21.6276 24.58 23.202 24.5384C24.7764 24.4921 26.0915 25.7331 26.1332 27.3075Z" fill="#E8B499"/>
<path d="M21.6641 26.989C21.6641 26.989 22.7986 26.4379 23.8775 28.406" stroke="#C47268" stroke-width="0.318912" stroke-miterlimit="10" stroke-linecap="round" stroke-linejoin="round"/>
<path d="M36.5518 27.3896C36.5518 28.964 37.8298 30.2421 39.4042 30.2421C40.9787 30.2421 42.2567 28.964 42.2567 27.3896C42.2567 25.8152 40.9787 24.5371 39.4042 24.5371C37.8252 24.5325 36.5518 25.8105 36.5518 27.3896Z" fill="#E8B499"/>
<path d="M41.0104 26.9413C41.0104 26.9413 39.862 26.4227 38.834 28.4231" stroke="#C47268" stroke-width="0.318912" stroke-miterlimit="10" stroke-linecap="round" stroke-linejoin="round"/>
<path d="M34.9998 33.9607C34.9998 33.9607 33.393 35.0952 31.9251 35.3777C30.4572 35.6555 29.0356 34.8081 29.0171 34.7988C28.9985 34.7896 27.3037 33.8125 27.3037 33.8125L26.6045 43.2034L26.7943 43.3609C29.281 45.4123 32.8605 45.4354 35.3749 43.4211L35.7407 43.1247L34.9998 33.9607Z" fill="#E8B499"/>
<path d="M26.6045 32.8262C26.6045 32.8262 28.2021 38.0588 31.8834 37.9986C34.9072 37.9523 35.3934 32.8262 35.3934 32.8262H26.6045Z" fill="#1E0B02"/>
<path d="M39.0484 22.4214C39.0669 25.6443 38.6177 28.432 38.1685 30.4093C37.7286 32.3449 36.0246 33.7016 34.2418 34.7991L33.9176 34.9982C32.0283 36.1605 30.4678 36.1976 28.5368 35.1001C26.5919 33.9934 24.7814 32.5255 24.3553 30.4509C23.5774 26.6816 23.4709 22.5001 23.4709 22.5001C23.4709 22.5001 22.3734 13.776 30.778 13.8918C39.178 14.0075 39.0484 22.4214 39.0484 22.4214Z" fill="#E8B499"/>
<path d="M28.3155 24.9815C28.3155 25.3566 28.0099 25.6622 27.6348 25.6622C27.2597 25.6622 26.9541 25.3566 26.9541 24.9815C26.9541 24.6064 27.2597 24.3008 27.6348 24.3008C28.0099 24.3008 28.3155 24.6018 28.3155 24.9815Z" fill="#1E0B02"/>
<path d="M34.9835 24.9815C34.9835 25.3566 34.6779 25.6622 34.3028 25.6622C33.9277 25.6622 33.6221 25.3566 33.6221 24.9815C33.6221 24.6064 33.9277 24.3008 34.3028 24.3008C34.6825 24.3008 34.9835 24.6018 34.9835 24.9815Z" fill="#1E0B02"/>
<path d="M30.3516 26.7598V27.848H31.236" stroke="#C47268" stroke-width="0.318912" stroke-miterlimit="10" stroke-linecap="round" stroke-linejoin="round"/>
<path d="M25.1006 22.1059L29.5414 21.703C29.5414 21.703 29.1431 20.55 27.3464 20.7399C25.5081 20.9344 25.1006 22.1059 25.1006 22.1059Z" fill="black"/>
<path d="M36.5531 22.1059L32.1123 21.703C32.1123 21.703 32.5105 20.55 34.3072 20.7399C36.141 20.9344 36.5531 22.1059 36.5531 22.1059Z" fill="black"/>
<path d="M28.833 29.3984H33.2136C33.2136 29.3984 33.0098 30.7413 30.9585 30.7413C28.9071 30.7413 28.833 29.3984 28.833 29.3984Z" fill="white"/>
<path d="M23.7542 26.6311C23.7542 26.6311 24.083 15.9482 23.9487 15.6426C23.9487 15.638 20.1608 19.1387 23.7542 26.6311Z" fill="#1E0B02"/>
<path d="M38.7297 26.5529L38.1602 14.9531C38.1602 14.9531 41.8045 18.5697 38.7297 26.5529Z" fill="#1E0B02"/>
<path d="M27.2681 14.6934C27.2681 14.6934 24.6611 15.3972 24.749 17.958C24.837 20.5187 23.1052 23.0331 23.1052 23.0331L22.3133 20.477C22.318 20.477 21.7113 15.7075 27.2681 14.6934Z" fill="#1E0B02"/>
<path d="M26.6092 14.9054C26.6092 14.9054 28.5587 13.7987 30.4989 16.2344C32.152 18.3135 36.5141 20.4575 39.098 18.42C39.098 18.42 37.4541 12.5299 31.0314 12.6503C24.6087 12.7707 26.6092 14.9054 26.6092 14.9054Z" fill="#1E0B02"/>
<path d="M53.1763 62.9997H9C9.80573 59.6564 10.6346 56.6835 11.4542 54.3682C12.6675 50.9508 14.4132 48.9503 15.858 47.8112C17.2981 46.6674 18.4372 46.3803 18.4372 46.3803L21.5027 45.0977L40.8959 45.1162L43.7391 46.3803C43.7391 46.3803 48.2956 47.5287 50.7221 54.3682C51.5417 56.6835 52.3706 59.6564 53.1763 62.9997Z" fill="#EF758D"/>
<path d="M31.4349 41.0137L40.9 45.1164C40.9 45.1164 31.1756 53.9054 21.5068 45.0979L31.4349 41.0137Z" fill="#E8B499"/>
<path d="M21.5029 45.0977C21.5029 45.0977 24.874 49.0846 31.1763 49.0846C37.4786 49.0846 40.8961 45.1162 40.8961 45.1162" stroke="white" stroke-width="0.897603" stroke-miterlimit="10"/>
</g>
</g>
<defs>
<clipPath id="clip0_343_58165">
<rect width="63" height="63" rx="31.5" fill="white"/>
</clipPath>
</defs>
</svg>
