<svg width="64" height="64" viewBox="0 0 64 64" fill="none" xmlns="http://www.w3.org/2000/svg">
<g clip-path="url(#clip0_613_2169)">
<rect x="0.5" y="0.796875" width="63" height="63" rx="31.5" fill="white"/>
<path d="M54.463 54.76C66.869 42.3539 66.869 22.2398 54.463 9.8338C42.057 -2.57222 21.9428 -2.57223 9.53682 9.83379C-2.8692 22.2398 -2.8692 42.3539 9.53681 54.76C21.9428 67.166 42.057 67.166 54.463 54.76Z" fill="#F7D8BA"/>
<mask id="mask0_613_2169" style="mask-type:luminance" maskUnits="userSpaceOnUse" x="0" y="0" width="64" height="65">
<path d="M54.4625 54.76C66.8685 42.3539 66.8685 22.2398 54.4625 9.8338C42.0565 -2.57222 21.9423 -2.57223 9.53633 9.83379C-2.86969 22.2398 -2.86969 42.3539 9.53633 54.76C21.9423 67.166 42.0565 67.166 54.4625 54.76Z" fill="white"/>
</mask>
<g mask="url(#mask0_613_2169)">
<path d="M63.1504 65.7481H1.85645C4.68263 53.0612 12.2678 50.5271 12.2678 50.5271L26.8876 43.6892L32.4276 43.6387H32.5793L38.1249 43.6892L52.7446 50.5271C52.7446 50.5271 60.3242 53.0612 63.1504 65.7481Z" fill="white"/>
<path d="M35.8555 7.24639C35.8555 7.24639 40.9572 4.97084 42.7664 9.26911C44.5082 13.4044 37.5916 17.3487 37.5916 17.3487L35.8555 7.24639Z" fill="#1E0B02"/>
<path d="M26.3146 24.4003C26.3708 26.3106 24.865 27.9063 22.9546 27.9569C21.0443 28.0131 19.4486 26.5073 19.398 24.5969C19.3418 22.6866 20.8476 21.0909 22.758 21.0403C24.6683 20.9897 26.2584 22.4899 26.3146 24.4003Z" fill="#C67D69"/>
<path d="M20.8862 24.0119C20.8862 24.0119 22.2628 23.3433 23.5719 25.7313" stroke="#A8523F" stroke-width="0.420388" stroke-miterlimit="10" stroke-linecap="round" stroke-linejoin="round"/>
<path d="M42.4113 27.9573C44.3228 27.9573 45.8724 26.4078 45.8724 24.4962C45.8724 22.5847 44.3228 21.0352 42.4113 21.0352C40.4998 21.0352 38.9502 22.5847 38.9502 24.4962C38.9502 26.4078 40.4998 27.9573 42.4113 27.9573Z" fill="#C67D69"/>
<path d="M44.361 23.9562C44.361 23.9562 42.9676 23.3269 41.7202 25.7542" stroke="#A8523F" stroke-width="0.420388" stroke-miterlimit="10" stroke-linecap="round" stroke-linejoin="round"/>
<path d="M37.0743 32.4747C37.0743 32.4747 35.1246 33.8513 33.3435 34.194C31.5624 34.5311 29.8375 33.5029 29.815 33.4917C29.7925 33.4805 27.7361 32.2949 27.7361 32.2949L26.8877 43.6896L27.1181 43.8806C30.1353 46.3697 34.4785 46.3978 37.5294 43.9536L37.9733 43.594L37.0743 32.4747Z" fill="#C67D69"/>
<path d="M26.8877 31.0938C26.8877 31.0938 28.8261 37.4428 33.293 37.3698C36.9619 37.3136 37.5519 31.0938 37.5519 31.0938H26.8877Z" fill="#1E0B02"/>
<path d="M41.9805 18.474C42.003 22.3846 41.458 25.767 40.9129 28.1662C40.3792 30.5148 38.8509 32.1611 36.6821 33.4927L36.2888 33.7343C33.9964 35.1446 31.0297 35.1895 28.6867 33.8579C26.3269 32.515 24.6694 30.7339 24.1469 28.2168C23.2029 23.6432 23.0737 18.5695 23.0737 18.5695C23.0737 18.5695 21.7421 7.98397 31.9399 8.12443C42.1378 8.2649 41.9805 18.474 41.9805 18.474Z" fill="#C67D69"/>
<path d="M28.1297 22.4019C28.5858 22.4019 28.9556 22.0321 28.9556 21.5759C28.9556 21.1198 28.5858 20.75 28.1297 20.75C27.6735 20.75 27.3037 21.1198 27.3037 21.5759C27.3037 22.0321 27.6735 22.4019 28.1297 22.4019Z" fill="#1E0B02"/>
<path d="M36.2263 22.4019C36.6825 22.4019 37.0523 22.0321 37.0523 21.5759C37.0523 21.1198 36.6825 20.75 36.2263 20.75C35.7702 20.75 35.4004 21.1198 35.4004 21.5759C35.4004 22.0321 35.7702 22.4019 36.2263 22.4019Z" fill="#1E0B02"/>
<path d="M31.4272 22.7832V25.0588H32.8993" stroke="#A8523F" stroke-width="0.420388" stroke-miterlimit="10" stroke-linecap="round" stroke-linejoin="round"/>
<path d="M25.0562 18.0916L30.4444 17.6084C30.4444 17.6084 29.9612 16.2093 27.7812 16.4397C25.5562 16.6644 25.0562 18.0916 25.0562 18.0916Z" fill="black"/>
<path d="M38.9513 18.0916L33.563 17.6084C33.563 17.6084 34.0462 16.2093 36.2262 16.4397C38.4512 16.6644 38.9513 18.0916 38.9513 18.0916Z" fill="black"/>
<path d="M29.5845 26.9414H34.8997C34.8997 26.9414 34.6525 28.5708 32.1634 28.5708C29.6744 28.5708 29.5845 26.9414 29.5845 26.9414Z" fill="white"/>
<path d="M23.426 23.5753C23.426 23.5753 24.9375 12.1301 24.1958 10.2422C24.1958 10.2422 19.0603 14.4899 23.426 23.5753Z" fill="#1E0B02"/>
<path d="M41.5968 23.4849C41.5968 23.4849 39.9 12.551 40.372 9.41016C40.3664 9.41016 45.322 13.7983 41.5968 23.4849Z" fill="#1E0B02"/>
<path d="M40.0131 8.62984L35.3103 7.91627L34.8945 7.10156L32.411 7.47801L29.9276 7.10156L29.5118 7.91627L24.809 8.62984L24.1797 11.147L24.337 14.0462C24.337 14.0462 25.0787 10.7593 27.6689 11.4111C28.2813 11.5628 29.0117 11.8212 29.8658 11.9954C30.6636 12.1696 31.4278 12.2483 32.1413 12.2595C32.2256 12.2595 32.3155 12.2595 32.3998 12.2595C32.4841 12.2595 32.574 12.2595 32.6582 12.2595C33.3774 12.2483 34.136 12.1696 34.9338 11.9954C35.7878 11.8212 36.5351 11.619 37.1307 11.4111C39.5299 10.5739 40.4176 13.8945 40.4176 13.8945L40.6199 11.147L40.0131 8.62984Z" fill="#1E0B02"/>
<path d="M39.9176 11.4894C39.9176 11.4894 36.861 14.2201 32.9448 12.1187C32.9448 12.1187 22.9829 18.2543 20.168 11.5737C17.825 6.00562 27.5565 -1.55709 37.5971 6.96079L39.9176 11.4894Z" fill="#1E0B02"/>
<path d="M26.8875 43.6893L23.623 45.1894C23.623 45.1894 23.5893 50.6676 32.4612 50.3811C41.5634 50.0889 41.5072 45.2737 41.5072 45.2737L37.9731 43.5938L26.8875 43.6893Z" fill="#C67D69"/>
</g>
</g>
<defs>
<clipPath id="clip0_613_2169">
<rect x="0.5" y="0.796875" width="63" height="63" rx="31.5" fill="white"/>
</clipPath>
</defs>
</svg>
