<svg width="64" height="64" viewBox="0 0 64 64" fill="none" xmlns="http://www.w3.org/2000/svg">
<g clip-path="url(#clip0_739_3976)">
<rect x="0.5" y="0.796875" width="63" height="63" rx="31.5" fill="white"/>
<path d="M54.463 54.76C66.869 42.3539 66.869 22.2398 54.463 9.8338C42.057 -2.57222 21.9428 -2.57223 9.53682 9.83379C-2.8692 22.2398 -2.8692 42.3539 9.53681 54.76C21.9428 67.166 42.057 67.166 54.463 54.76Z" fill="#F7D8BA"/>
<mask id="mask0_739_3976" style="mask-type:luminance" maskUnits="userSpaceOnUse" x="0" y="0" width="64" height="65">
<path d="M54.4625 54.76C66.8685 42.3539 66.8685 22.2398 54.4625 9.8338C42.0565 -2.57222 21.9423 -2.57223 9.53633 9.83379C-2.86969 22.2398 -2.86969 42.3539 9.53633 54.76C21.9423 67.166 42.0565 67.166 54.4625 54.76Z" fill="white"/>
</mask>
<g mask="url(#mask0_739_3976)">
<path d="M23.2138 20.0267C23.2138 20.0267 21.9314 27.3537 13.1159 32.6742C3.71711 38.3466 9.07278 56.3648 25.5321 56.7621C43.4094 57.1946 52.4965 34.8567 42.1623 16.6172L23.2138 20.0267Z" fill="#D46919"/>
<path d="M52.9037 51.3863C51.9834 48.9322 49.1673 45.7088 43.7161 44.8539L33.5529 42.8574L23.3897 44.8539C17.9384 45.7088 15.1223 48.9322 14.202 51.3863L12.0698 61.0013H21.3932L22.0721 61.7808L33.3869 64.0086L45.0185 61.0064H45.7024H55.0259L52.9037 51.3863Z" fill="white"/>
<path d="M23.0732 44.9594L34.0913 42.7266L44.3752 44.9292L44.149 45.0951C37.868 49.616 29.4095 49.4098 23.0732 44.9594Z" fill="#E0A78F"/>
<path d="M28.0573 28.6576C28.1227 30.297 26.8403 31.6799 25.2009 31.7453C23.5615 31.8106 22.1786 30.5283 22.1132 28.8889C22.0479 27.2495 23.3302 25.8666 24.9696 25.8012C26.614 25.7358 27.9969 27.0182 28.0573 28.6576Z" fill="#E0A78F"/>
<path d="M23.3965 28.3716C23.3965 28.3716 24.5732 27.7833 25.7198 29.8249" stroke="#B9635E" stroke-width="0.332504" stroke-miterlimit="10" stroke-linecap="round" stroke-linejoin="round"/>
<path d="M38.9196 28.6325C38.9346 30.2769 40.2824 31.5944 41.9268 31.5743C43.5712 31.5592 44.8888 30.2115 44.8686 28.5671C44.8536 26.9227 43.5058 25.6051 41.8614 25.6252C40.222 25.6453 38.9045 26.988 38.9196 28.6325Z" fill="#E0A78F"/>
<path d="M43.5674 28.1198C43.5674 28.1198 42.3655 27.5918 41.3145 29.6888" stroke="#B9635E" stroke-width="0.332504" stroke-miterlimit="10" stroke-linecap="round" stroke-linejoin="round"/>
<path d="M33.4274 30.9999C39.0787 30.9417 43.6159 26.6194 43.5616 21.3457C43.5073 16.0721 38.8819 11.8442 33.2306 11.9024C27.5793 11.9606 23.0421 16.2829 23.0964 21.5566C23.1507 26.8302 27.7761 31.0581 33.4274 30.9999Z" fill="#D46919"/>
<path d="M36.421 34.5967C36.421 34.5967 35.1487 35.7935 33.977 36.0953C32.8053 36.397 31.6537 35.522 31.6386 35.5119C31.6235 35.5019 30.2557 34.4961 30.2557 34.4961L29.8081 44.2922L29.964 44.4531C31.9805 46.5753 34.847 46.5753 36.8333 44.4531L37.125 44.1413L36.421 34.5967Z" fill="#E0A78F"/>
<path d="M41.4585 23.0452C41.5087 26.2636 41.0712 29.0446 40.6237 31.0259C40.1862 32.962 38.8837 34.3298 37.0331 35.4462L36.6962 35.6474C34.74 36.8241 32.1904 36.8945 30.1638 35.8184C28.1221 34.7321 26.6838 33.2838 26.2162 31.222C25.3663 27.4706 25.2154 23.3017 25.2154 23.3017C25.2154 23.3017 24.446 14.6069 33.2062 14.627C41.9764 14.6421 41.4585 23.0452 41.4585 23.0452Z" fill="#E0A78F"/>
<path d="M32.6841 27.582L32.6941 28.8392L33.5541 28.8342" stroke="#B9635E" stroke-width="0.332504" stroke-miterlimit="10" stroke-linecap="round" stroke-linejoin="round"/>
<path d="M26.6841 23.1209L31.3106 22.6532C31.3106 22.6532 30.8831 21.4564 29.0124 21.6726C27.1015 21.8939 26.6841 23.1209 26.6841 23.1209Z" fill="#D46919"/>
<path d="M39.4173 22.99L34.7808 22.6179C34.7808 22.6179 35.1831 21.416 37.0588 21.587C38.9748 21.773 39.4173 22.99 39.4173 22.99Z" fill="#D46919"/>
<path d="M30.3088 25.9013C30.3138 26.2935 29.997 26.6154 29.6048 26.6154C29.2125 26.6204 28.8907 26.3036 28.8907 25.9114C28.8857 25.5191 29.2025 25.1973 29.5947 25.1973C29.987 25.1973 30.3088 25.5091 30.3088 25.9013Z" fill="#1E0B02"/>
<path d="M37.2649 25.8319C37.2699 26.2241 36.9531 26.546 36.5608 26.546C36.1686 26.551 35.8467 26.2342 35.8467 25.847C35.8417 25.4547 36.1585 25.1329 36.5508 25.1329C36.943 25.1278 37.2649 25.4396 37.2649 25.8319Z" fill="#1E0B02"/>
<path d="M30.5459 30.6491C30.5459 30.6491 32.5272 31.7001 35.6904 30.5938" stroke="black" stroke-width="0.332504" stroke-miterlimit="10" stroke-linecap="round" stroke-linejoin="round"/>
<path d="M41.4394 21.0632C41.4394 21.0632 28.5506 21.6818 29.0183 14.1134C29.0183 14.1134 40.2225 10.8145 41.4394 21.0632Z" fill="#D46919"/>
<path d="M25.0098 21.239C25.0098 21.239 29.5206 19.2978 29.4703 14.6562C29.4703 14.6562 24.8338 15.2396 25.0098 21.239Z" fill="#D46919"/>
<mask id="mask1_739_3976" style="mask-type:luminance" maskUnits="userSpaceOnUse" x="12" y="44" width="44" height="18">
<path d="M52.9047 51.4622C52.0196 49.0785 49.3745 45.9808 44.3205 44.975L44.1495 45.1008C37.8635 49.6719 29.4101 49.4607 23.0738 44.965L23.3906 44.8594C17.9394 45.7243 15.1233 48.983 14.203 51.4622L12.0708 61.1778H21.3942H22.0781H33.5538H45.0296H45.7135H55.0369L52.9047 51.4622Z" fill="white"/>
</mask>
<g mask="url(#mask1_739_3976)">
<path d="M10.8384 46.0352H55.9568" stroke="#EF758D" stroke-width="0.50288" stroke-miterlimit="10"/>
<path d="M10.8384 48.3945H55.9568" stroke="#EF758D" stroke-width="0.50288" stroke-miterlimit="10"/>
<path d="M10.8384 50.748H55.9568" stroke="#EF758D" stroke-width="0.50288" stroke-miterlimit="10"/>
<path d="M10.8384 53.1055H55.9568" stroke="#EF758D" stroke-width="0.50288" stroke-miterlimit="10"/>
<path d="M10.8384 55.459H55.9568" stroke="#EF758D" stroke-width="0.50288" stroke-miterlimit="10"/>
<path d="M10.8384 57.8125H55.9568" stroke="#EF758D" stroke-width="0.50288" stroke-miterlimit="10"/>
<path d="M10.8384 60.1699H55.9568" stroke="#EF758D" stroke-width="0.50288" stroke-miterlimit="10"/>
</g>
</g>
</g>
<defs>
<clipPath id="clip0_739_3976">
<rect x="0.5" y="0.796875" width="63" height="63" rx="31.5" fill="white"/>
</clipPath>
</defs>
</svg>
