<svg width="40" height="40" viewBox="0 0 40 40" fill="none" xmlns="http://www.w3.org/2000/svg">
<rect width="40" height="40" rx="8" fill="#F4FAF0"/>
<g clip-path="url(#clip0_25_392421)">
<path d="M30 20C30 23.7152 27.9738 26.957 24.9664 28.6812C24.7328 28.8152 23.8521 28.022 23.6072 28.1371C23.2599 28.3004 23.543 29.3621 23.1754 29.4852C22.1777 29.8191 21.1102 30 20 30C18.8898 30 17.8223 29.8191 16.8246 29.4852C14.5293 28.7172 12.6047 27.1391 11.391 25.0902C10.5074 23.5992 10 21.8586 10 20C10 18.1414 10.5074 16.4008 11.391 14.9098C12.6047 12.8609 14.5293 11.2828 16.8246 10.5148C17.8223 10.1809 18.8898 10 20 10C21.1102 10 22.1777 10.1809 23.1754 10.5148C23.8023 10.7246 24.4016 10.9949 24.9664 11.3187C27.9738 13.043 30 16.2848 30 20Z" fill="#88C660"/>
<path d="M25.2251 12.2227V27.7774C25.2251 28.1094 25.1302 28.4192 24.9665 28.6813C24.4017 29.0051 23.8024 29.2754 23.1755 29.4852H13.0989C12.1556 29.4852 11.3911 28.7208 11.3911 27.7774V12.2227C11.3911 11.2793 12.1556 10.5149 13.0989 10.5149H23.5173C24.1282 10.5149 24.6646 10.836 24.9665 11.3188C25.1302 11.5809 25.2251 11.8907 25.2251 12.2227Z" fill="#707070"/>
<path d="M13.7993 29.4852H13.0989C12.1556 29.4852 11.3911 28.7208 11.3911 27.7774V12.2227C11.3911 11.2793 12.1556 10.5149 13.0989 10.5149H13.7993C12.856 10.5149 12.0911 11.2793 12.0911 12.2227V27.7774C12.0911 28.7208 12.856 29.4852 13.7993 29.4852Z" fill="#565656"/>
<path d="M24.2485 12.6875V27.3126C24.2485 27.9731 23.713 28.5086 23.0521 28.5086H13.5642C12.9032 28.5086 12.3677 27.9731 12.3677 27.3126V12.6875C12.3677 12.027 12.9032 11.4915 13.5642 11.4915H15.6251V11.9223C15.6251 12.3985 16.011 12.7844 16.4868 12.7844H20.129C20.6052 12.7844 20.9911 12.3985 20.9911 11.9223V11.4915H23.0521C23.713 11.4915 24.2485 12.027 24.2485 12.6875Z" fill="#F2F2F2"/>
<path d="M14.4907 28.5089H13.5642C12.9032 28.5089 12.3677 27.9733 12.3677 27.3128V12.6878C12.3677 12.0272 12.9032 11.4917 13.5642 11.4917H14.4907C13.8298 11.4917 13.2942 12.0272 13.2942 12.6878V27.3128C13.2942 27.9733 13.8298 28.5089 14.4907 28.5089Z" fill="#E2E2E2"/>
<path d="M19.7202 12.0774H16.8965C16.7347 12.0774 16.6035 11.9462 16.6035 11.7844C16.6035 11.6226 16.7347 11.4915 16.8965 11.4915H19.7202C19.882 11.4915 20.0132 11.6226 20.0132 11.7844C20.0132 11.9462 19.882 12.0774 19.7202 12.0774Z" fill="#565656"/>
<path d="M18.9217 14.0718C19.0835 14.0718 19.2147 13.9406 19.2147 13.7788C19.2147 13.617 19.0835 13.4858 18.9217 13.4858H17.8379C17.6761 13.4858 17.5449 13.617 17.5449 13.7788V16.351C17.5449 16.5128 17.6761 16.644 17.8379 16.644H18.9217C19.0835 16.644 19.2147 16.5128 19.2147 16.351C19.2147 16.1892 19.0835 16.0581 18.9217 16.0581H18.1309V15.3579H18.8418C19.0036 15.3579 19.1348 15.2267 19.1348 15.0649C19.1348 14.9031 19.0036 14.772 18.8418 14.772H18.1309V14.0718H18.9217Z" fill="#7E94AA"/>
<path d="M16.551 14.8598C16.6513 14.7157 16.7103 14.5409 16.7103 14.3525C16.7103 13.8616 16.3109 13.4622 15.82 13.4622H15.0659C14.9041 13.4622 14.7729 13.5933 14.7729 13.7551V16.3511C14.7729 16.429 14.804 16.5037 14.8592 16.5587C14.9141 16.6134 14.9885 16.644 15.0659 16.644H15.0672C15.0672 16.644 15.7606 16.6409 15.9517 16.6409C16.4985 16.6409 16.9434 16.1961 16.9434 15.6492C16.9434 15.3274 16.7892 15.0411 16.551 14.8598ZM15.82 14.0481C15.9878 14.0481 16.1244 14.1846 16.1244 14.3525C16.1244 14.5203 15.9879 14.6568 15.82 14.6568C15.7646 14.6568 15.6602 14.6572 15.5464 14.6575H15.3589V14.0481H15.82V14.0481ZM15.9517 16.055C15.8431 16.055 15.5728 16.056 15.3589 16.0568V15.2442C15.42 15.2439 15.4847 15.2436 15.5466 15.2434H15.9517C16.1755 15.2434 16.3575 15.4255 16.3575 15.6492C16.3575 15.873 16.1754 16.055 15.9517 16.055Z" fill="#7E94AA"/>
<path d="M21.4644 13.4622H20.0308C19.869 13.4622 19.7378 13.5933 19.7378 13.7551C19.7378 13.9169 19.869 14.0481 20.0308 14.0481H20.4517V16.3511C20.4517 16.5129 20.5829 16.644 20.7447 16.644C20.9065 16.644 21.0376 16.5129 21.0376 16.3511V14.0481H21.4644C21.6262 14.0481 21.7573 13.9169 21.7573 13.7551C21.7573 13.5933 21.6262 13.4622 21.4644 13.4622Z" fill="#7E94AA"/>
<path d="M23.3141 17.2961H13.2939C13.1321 17.2961 13.001 17.4273 13.001 17.5891V27.2974C13.001 27.4592 13.1321 27.5904 13.2939 27.5904H23.3141C23.4759 27.5904 23.6071 27.4592 23.6071 27.2974V17.5891C23.6071 17.4273 23.4759 17.2961 23.3141 17.2961ZM20.4544 22.1503H13.5869V20.3092H20.4544V22.1503ZM21.0404 20.3092H23.0211V22.1503H21.0404V20.3092ZM13.5869 22.7362H20.4544V24.5774H13.5869V22.7362ZM21.0404 22.7362H23.0211V24.5774H21.0404V22.7362ZM23.0211 19.7232H21.0404V17.8821H23.0211V19.7232ZM20.4544 17.8821V19.7232H13.5869V17.8821H20.4544ZM13.5869 25.1633H20.4544V27.0045H13.5869V25.1633ZM21.0404 27.0045V25.1633H23.0211V27.0045H21.0404Z" fill="#CFD1D1"/>
<path d="M22.1452 19.5586C22.0517 19.5586 21.9632 19.5139 21.9079 19.4374L21.3013 18.5992C21.2064 18.4681 21.2358 18.2849 21.3669 18.1901C21.4979 18.0952 21.6811 18.1246 21.776 18.2556L22.0993 18.7024L22.7214 17.4581C22.7938 17.3134 22.9698 17.2548 23.1145 17.3271C23.2592 17.3995 23.3179 17.5755 23.2455 17.7202L22.4073 19.3967C22.3615 19.4883 22.2712 19.5493 22.1691 19.5576C22.1611 19.5583 22.1531 19.5586 22.1452 19.5586Z" fill="#7E94AA"/>
<path d="M22.1452 26.8398C22.0517 26.8398 21.9632 26.7951 21.9079 26.7186L21.3013 25.8804C21.2064 25.7493 21.2358 25.5662 21.3669 25.4713C21.4979 25.3764 21.6811 25.4058 21.776 25.5369L22.0993 25.9837L22.7214 24.7394C22.7938 24.5947 22.9697 24.536 23.1145 24.6084C23.2592 24.6808 23.3179 24.8567 23.2455 25.0014L22.4073 26.6779C22.3615 26.7695 22.2712 26.8305 22.1691 26.8388C22.1611 26.8395 22.1531 26.8398 22.1452 26.8398Z" fill="#7E94AA"/>
<path d="M22.4778 21.2297L22.7716 20.9359C22.886 20.8215 22.886 20.636 22.7716 20.5216C22.6572 20.4072 22.4717 20.4072 22.3573 20.5216L22.0635 20.8154L21.7696 20.5216C21.6552 20.4072 21.4697 20.4072 21.3553 20.5216C21.2409 20.636 21.2409 20.8215 21.3553 20.9359L21.6492 21.2297L21.3553 21.5236C21.2409 21.638 21.2409 21.8234 21.3553 21.9379C21.4125 21.9951 21.4875 22.0237 21.5625 22.0237C21.6375 22.0237 21.7125 21.9951 21.7696 21.9379L22.0635 21.644L22.3573 21.9379C22.4145 21.9951 22.4895 22.0237 22.5644 22.0237C22.6394 22.0237 22.7144 21.9951 22.7716 21.9379C22.886 21.8234 22.886 21.6379 22.7716 21.5236L22.4778 21.2297Z" fill="#EF6060"/>
<path d="M17.5449 26.377H14.4907C14.3289 26.377 14.1978 26.2458 14.1978 26.084C14.1978 25.9222 14.3289 25.791 14.4907 25.791H17.5449C17.7067 25.791 17.8378 25.9222 17.8378 26.084C17.8378 26.2458 17.7067 26.377 17.5449 26.377Z" fill="#707070"/>
<path d="M16.3576 23.95H14.4907C14.3289 23.95 14.1978 23.8188 14.1978 23.657C14.1978 23.4952 14.3289 23.364 14.4907 23.364H16.3576C16.5194 23.364 16.6505 23.4952 16.6505 23.657C16.6505 23.8188 16.5194 23.95 16.3576 23.95Z" fill="#707070"/>
<path d="M17.3144 19.0957H14.4907C14.3289 19.0957 14.1978 18.9645 14.1978 18.8027C14.1978 18.6409 14.3289 18.5098 14.4907 18.5098H17.3144C17.4762 18.5098 17.6074 18.6409 17.6074 18.8027C17.6074 18.9645 17.4762 19.0957 17.3144 19.0957Z" fill="#707070"/>
<path d="M19.2997 21.5227H14.4907C14.3289 21.5227 14.1978 21.3915 14.1978 21.2297C14.1978 21.0679 14.3289 20.9368 14.4907 20.9368H19.2997C19.4615 20.9368 19.5927 21.0679 19.5927 21.2297C19.5927 21.3915 19.4615 21.5227 19.2997 21.5227Z" fill="#707070"/>
<path d="M25.694 19.7333C27.8043 19.7333 29.515 18.0226 29.515 15.9123C29.515 13.802 27.8043 12.0913 25.694 12.0913C23.5838 12.0913 21.873 13.802 21.873 15.9123C21.873 18.0226 23.5838 19.7333 25.694 19.7333Z" fill="#FFDD4D"/>
<path d="M25.951 19.7245C25.8663 19.7303 25.7807 19.7332 25.6943 19.7332C23.584 19.7332 21.873 18.0226 21.873 15.9123C21.873 13.802 23.584 12.0911 25.6943 12.0911C25.7807 12.0911 25.8662 12.094 25.951 12.0997C23.9606 12.2316 22.3869 13.8884 22.3869 15.9123C22.3869 17.9362 23.9606 19.5926 25.951 19.7245Z" fill="#FFC550"/>
<path d="M25.694 18.7718C27.2733 18.7718 28.5535 17.4915 28.5535 15.9123C28.5535 14.333 27.2733 13.0527 25.694 13.0527C24.1147 13.0527 22.8345 14.333 22.8345 15.9123C22.8345 17.4915 24.1147 18.7718 25.694 18.7718Z" fill="#FFC550"/>
<path d="M26.1249 15.5433C25.8541 15.4476 25.5553 15.3325 25.392 15.2043C25.3635 15.182 25.3431 15.1151 25.359 15.0304C25.3668 14.9893 25.4027 14.8521 25.539 14.811C25.8284 14.7238 26.0151 14.8695 26.0355 14.8865C26.194 15.0184 26.4295 14.9968 26.5614 14.8383C26.6933 14.6797 26.6718 14.4442 26.5132 14.3123C26.3975 14.2161 26.2379 14.1292 26.049 14.0797V14.0095C26.049 13.8032 25.8818 13.636 25.6755 13.636C25.4693 13.636 25.302 13.8032 25.302 14.0095V14.1032C24.9543 14.2168 24.6957 14.5168 24.625 14.8922C24.5582 15.2468 24.6754 15.5917 24.9309 15.792C25.1786 15.9863 25.5315 16.1258 25.8759 16.2475C26.1263 16.336 26.1338 16.5269 26.1159 16.6328C26.0857 16.8129 25.9341 17.0076 25.6729 17.0093C25.3857 17.0112 25.3111 16.9994 25.0975 16.8597C24.9249 16.7467 24.6934 16.7951 24.5805 16.9677C24.4676 17.1403 24.516 17.3718 24.6886 17.4847C24.9218 17.6373 25.0988 17.7068 25.3021 17.7364V17.8152C25.3021 18.0215 25.4693 18.1887 25.6756 18.1887C25.8818 18.1887 26.049 18.0215 26.049 17.8152V17.6967C26.4988 17.5493 26.7864 17.1504 26.8526 16.7566C26.9434 16.2168 26.6509 15.7292 26.1249 15.5433Z" fill="#FFDD4D"/>
<path d="M28.8494 14.1444L28.4652 13.9903C28.3397 13.94 28.2402 13.8405 28.1899 13.715L28.0359 13.3308C27.9881 13.2117 27.8193 13.2117 27.7716 13.3308L27.6175 13.715C27.5672 13.8405 27.4677 13.94 27.3422 13.9903L26.958 14.1444C26.8389 14.1921 26.8389 14.3609 26.958 14.4087L27.3422 14.5627C27.4677 14.613 27.5672 14.7125 27.6175 14.838L27.7716 15.2222C27.8193 15.3413 27.9881 15.3413 28.0359 15.2222L28.1899 14.838C28.2402 14.7125 28.3397 14.613 28.4652 14.5627L28.8494 14.4087C28.9685 14.3609 28.9685 14.1922 28.8494 14.1444Z" fill="#F2F2F2"/>
</g>
<defs>
<clipPath id="clip0_25_392421">
<rect width="20" height="20" fill="white" transform="translate(10 10)"/>
</clipPath>
</defs>
</svg>
