<svg width="246" height="245" viewBox="0 0 246 245" fill="none" xmlns="http://www.w3.org/2000/svg">
<path d="M0.587891 24.5C0.587891 10.969 11.5569 0 25.0879 0H221.088C234.619 0 245.588 10.969 245.588 24.5V220.5C245.588 234.031 234.619 245 221.088 245H25.0879C11.5569 245 0.587891 234.031 0.587891 220.5V24.5Z" fill="#F7F4E7"/>
<g clip-path="url(#clip0_1854_55100)">
<path d="M123.352 183.523C157.461 183.523 185.112 155.872 185.112 121.763C185.112 87.6538 157.461 60.0029 123.352 60.0029C89.2427 60.0029 61.5918 87.6538 61.5918 121.763C61.5918 155.872 89.2427 183.523 123.352 183.523Z" fill="#F3BA2F"/>
<path d="M108.36 115.603L123.352 100.61L138.352 115.61L147.076 106.887L123.352 83.1631L99.6361 106.879L108.36 115.603ZM84.752 121.763L93.4756 113.039L102.199 121.763L93.4756 130.487L84.752 121.763ZM108.36 127.924L123.352 142.916L138.352 127.916L147.076 136.636L123.352 160.363L99.6361 136.647L99.6245 136.636L108.36 127.924ZM144.505 121.763L153.228 113.039L161.952 121.763L153.228 130.487L144.505 121.763ZM132.199 121.755H132.207V121.763L123.352 130.618L114.509 121.779L114.493 121.763L114.509 121.752L116.057 120.2L116.809 119.447L123.352 112.908L132.203 121.759L132.199 121.755Z" fill="white"/>
</g>
<defs>
<clipPath id="clip0_1854_55100">
<rect width="123.52" height="123.52" fill="white" transform="translate(61.5879 60)"/>
</clipPath>
</defs>
</svg>
