<svg width="246" height="245" viewBox="0 0 246 245" fill="none" xmlns="http://www.w3.org/2000/svg">
<path d="M0.587891 24.5C0.587891 10.969 11.5569 0 25.0879 0H221.088C234.619 0 245.588 10.969 245.588 24.5V220.5C245.588 234.031 234.619 245 221.088 245H25.0879C11.5569 245 0.587891 234.031 0.587891 220.5V24.5Z" fill="#F7931A" fill-opacity="0.1"/>
<path d="M125.973 184.07C160.082 184.07 187.733 156.419 187.733 122.31C187.733 88.2007 160.082 60.5498 125.973 60.5498C91.8638 60.5498 64.2129 88.2007 64.2129 122.31C64.2129 156.419 91.8638 184.07 125.973 184.07Z" fill="#F7931A"/>
<path d="M153.719 114.667C154.931 106.577 148.766 102.226 140.344 99.3237L143.077 88.3613L136.407 86.7015L133.743 97.3744C131.991 96.9343 130.192 96.5252 128.397 96.116L131.08 85.3736L124.41 83.71L121.677 94.6685C120.226 94.3365 118.797 94.0123 117.416 93.6649L117.423 93.6302L108.221 91.3335L106.445 98.459C106.445 98.459 111.398 99.5939 111.294 99.6633C113.996 100.339 114.482 102.126 114.401 103.546L111.29 116.034C111.475 116.08 111.714 116.149 111.985 116.254L111.278 116.08L106.916 133.573C106.584 134.392 105.747 135.623 103.855 135.156C103.925 135.253 99.0072 133.948 99.0072 133.948L95.6953 141.583L104.38 143.748C105.994 144.154 107.576 144.578 109.132 144.976L106.372 156.062L113.038 157.722L115.771 146.759C117.593 147.249 119.361 147.705 121.09 148.137L118.365 159.053L125.035 160.713L127.795 149.65C139.174 151.804 147.728 150.936 151.329 140.645C154.232 132.361 151.187 127.579 145.2 124.464C149.562 123.46 152.843 120.592 153.719 114.667ZM138.472 136.044C136.414 144.331 122.461 139.85 117.937 138.727L121.604 124.039C126.128 125.17 140.63 127.405 138.472 136.044ZM140.537 114.548C138.657 122.086 127.046 118.253 123.283 117.315L126.602 103.998C130.366 104.936 142.498 106.685 140.537 114.548Z" fill="white"/>
</svg>
