<svg width="40" height="40" viewBox="0 0 40 40" fill="none" xmlns="http://www.w3.org/2000/svg">
<rect width="40" height="40" rx="8" fill="#FCEBEF"/>
<g clip-path="url(#clip0_25_392959)">
<path d="M10.7627 15.2959V27.9008C10.7627 28.6378 11.3613 29.233 12.0948 29.233H26.0388C26.7758 29.233 27.3709 28.6378 27.3709 27.9008V15.2959H10.7627Z" fill="#DEDDFF"/>
<path d="M12.8733 29.233H12.0948C11.3613 29.233 10.7627 28.6378 10.7627 27.9008V15.2959H11.5412V27.9008C11.5412 28.6378 12.1398 29.233 12.8733 29.233Z" fill="#C6C6F7"/>
<path d="M27.3709 13.9188V15.3236H10.7627V13.9188C10.7627 13.1818 11.3613 12.5867 12.0948 12.5867H26.0388C26.7758 12.5867 27.3709 13.1818 27.3709 13.9188Z" fill="#5B5E8B"/>
<path d="M12.8733 12.5867C12.1398 12.5867 11.5412 13.1818 11.5412 13.9188V15.3236H10.7627V13.9188C10.7627 13.1818 11.3613 12.5867 12.0948 12.5867H12.8733Z" fill="#312E4B"/>
<path d="M12.6368 14.4313C12.9038 14.4313 13.1202 14.2148 13.1202 13.9478C13.1202 13.6808 12.9038 13.4644 12.6368 13.4644C12.3698 13.4644 12.1533 13.6808 12.1533 13.9478C12.1533 14.2148 12.3698 14.4313 12.6368 14.4313Z" fill="#DEDDFF"/>
<path d="M14.1363 14.4313C14.4033 14.4313 14.6198 14.2148 14.6198 13.9478C14.6198 13.6808 14.4033 13.4644 14.1363 13.4644C13.8693 13.4644 13.6528 13.6808 13.6528 13.9478C13.6528 14.2148 13.8693 14.4313 14.1363 14.4313Z" fill="#DEDDFF"/>
<path d="M15.6358 14.4313C15.9028 14.4313 16.1193 14.2148 16.1193 13.9478C16.1193 13.6808 15.9028 13.4644 15.6358 13.4644C15.3688 13.4644 15.1523 13.6808 15.1523 13.9478C15.1523 14.2148 15.3688 14.4313 15.6358 14.4313Z" fill="#DEDDFF"/>
<path d="M25.981 13.9496C25.981 14.1295 25.8322 14.2783 25.6523 14.2783H19.2823C19.0989 14.2783 18.9536 14.1295 18.9536 13.9496C18.9536 13.7662 19.0989 13.6174 19.2823 13.6174H25.6523C25.8322 13.6174 25.981 13.7662 25.981 13.9496Z" fill="#DEDDFF"/>
<path d="M24.5907 22.5018H17.8875C17.752 22.5018 17.6421 22.3919 17.6421 22.2564C17.6421 22.1209 17.752 22.011 17.8875 22.011H24.5907C24.7262 22.011 24.8361 22.1209 24.8361 22.2564C24.8361 22.3919 24.7262 22.5018 24.5907 22.5018Z" fill="#C6C6F7"/>
<path d="M23.3886 23.8973H17.8875C17.752 23.8973 17.6421 23.7874 17.6421 23.6519C17.6421 23.5164 17.752 23.4065 17.8875 23.4065H23.3886C23.5242 23.4065 23.6341 23.5164 23.6341 23.6519C23.6341 23.7874 23.5242 23.8973 23.3886 23.8973Z" fill="#C6C6F7"/>
<path d="M22.7876 25.2931H17.8875C17.752 25.2931 17.6421 25.1832 17.6421 25.0477C17.6421 24.9121 17.752 24.8022 17.8875 24.8022H22.7876C22.9231 24.8022 23.033 24.9121 23.033 25.0477C23.033 25.1832 22.9231 25.2931 22.7876 25.2931Z" fill="#C6C6F7"/>
<path d="M22.1866 26.6886H17.8875C17.752 26.6886 17.6421 26.5787 17.6421 26.4432C17.6421 26.3076 17.752 26.1978 17.8875 26.1978H22.1866C22.3221 26.1978 22.432 26.3076 22.432 26.4432C22.432 26.5787 22.3221 26.6886 22.1866 26.6886Z" fill="#C6C6F7"/>
<path d="M23.6265 28.0841H12.2649C12.1294 28.0841 12.0195 27.9742 12.0195 27.8387C12.0195 27.7032 12.1294 27.5933 12.2649 27.5933H23.6265C23.7621 27.5933 23.872 27.7032 23.872 27.8387C23.872 27.9742 23.7621 28.0841 23.6265 28.0841Z" fill="#C6C6F7"/>
<path d="M12.0195 20.4971V17.0379C12.0195 16.7015 12.2923 16.4287 12.6287 16.4287H25.5052C25.8417 16.4287 26.1144 16.7015 26.1144 17.0379V20.4971C26.1144 20.8335 25.8417 21.1062 25.5052 21.1062H12.6287C12.2923 21.1062 12.0195 20.8335 12.0195 20.4971Z" fill="#65B9FF"/>
<path d="M13.5988 21.1059H12.6296C12.2912 21.1059 12.0181 20.8328 12.0181 20.4982V17.0367C12.0181 16.702 12.2912 16.429 12.6296 16.429H13.5988C13.2642 16.429 12.9912 16.702 12.9912 17.0367V20.4982C12.9912 20.8328 13.2642 21.1059 13.5988 21.1059Z" fill="#3E7FFF"/>
<path d="M23.5645 25.9313L25.5932 27.162L28.4171 22.5518L26.3883 21.321L23.5645 25.9313Z" fill="#46CC6B"/>
<path d="M27.4025 21.9365L28.4169 22.5519L25.593 27.1621L24.5786 26.5468L27.4025 21.9365Z" fill="#179C5F"/>
<path d="M28.4204 22.5461L26.3914 21.3145L26.7609 20.7058L28.7899 21.9374L28.4204 22.5461Z" fill="#C6C6F7"/>
<path d="M26.7573 20.7123L28.7861 21.943L29.0231 21.541C29.363 20.9808 29.1844 20.2511 28.6241 19.9112C28.0639 19.5714 27.3342 19.75 26.9944 20.3103L26.7573 20.7123Z" fill="#312E4B"/>
<path d="M23.5635 25.9302L23.5674 27.2088L23.5696 28.0456C23.5712 28.119 23.6505 28.1671 23.7138 28.1331L24.457 27.7485L25.5929 27.1613L23.5635 25.9302Z" fill="#FFAF93"/>
<path d="M23.5674 27.2087L23.5696 28.0456C23.5712 28.1189 23.6505 28.167 23.7138 28.1331L24.4594 27.7499L23.5674 27.2087Z" fill="#312E4B"/>
<path d="M15.873 18.6726C15.9334 18.6273 15.9868 18.5728 16.0319 18.5094C16.1115 18.3984 16.152 18.2586 16.152 18.0941C16.152 17.6706 15.8587 17.3223 15.2153 17.3223H14.3093C14.1666 17.3223 14.0596 17.4392 14.0596 17.5758V19.9058C14.0596 19.974 14.0847 20.0352 14.1321 20.0829C14.1794 20.1303 14.241 20.1556 14.3093 20.1556H15.2382C16.0114 20.1556 16.3019 19.7979 16.3019 19.3263C16.3019 19.0195 16.1368 18.8035 15.873 18.6726ZM15.8102 19.3109C15.8102 19.6232 15.516 19.6754 15.2037 19.6754H14.5629V18.9503H15.2078C15.8102 18.9503 15.8102 19.2217 15.8102 19.3109ZM14.5629 18.4816V17.8025H15.1886C15.4245 17.8025 15.6641 17.8858 15.6641 18.121C15.6641 18.4214 15.4247 18.4816 15.1233 18.4816H14.5629Z" fill="#DEDDFF"/>
<path d="M18.4013 19.6523H17.223V17.5567C17.223 17.2246 16.7197 17.2226 16.7197 17.5567V19.8368C16.7197 20.0118 16.8603 20.1556 17.0386 20.1556H18.4013C18.5411 20.1556 18.6548 20.0461 18.6548 19.9059C18.6548 19.7675 18.5432 19.6523 18.4013 19.6523Z" fill="#DEDDFF"/>
<path d="M20.1938 17.2839C19.3812 17.2839 18.7875 17.8377 18.7695 18.7405C18.7872 19.6188 19.3612 20.1939 20.1938 20.1939C21.0612 20.1939 21.6024 19.5742 21.6181 18.7375C21.6021 17.8946 21.0519 17.2839 20.1938 17.2839ZM21.1148 18.739C21.1148 19.3077 20.7647 19.7137 20.1938 19.7137C19.6115 19.7137 19.2728 19.2957 19.2728 18.739C19.2728 18.1863 19.6067 17.7641 20.1938 17.7641C20.7582 17.7641 21.1148 18.1628 21.1148 18.739Z" fill="#DEDDFF"/>
<path d="M24.1511 18.5315H23.395C23.0884 18.5315 23.0815 19.0002 23.395 19.0002H23.9513V19.5713C23.7676 19.6634 23.5678 19.7099 23.3567 19.7099C22.7504 19.7099 22.3895 19.3037 22.3895 18.7428C22.3895 18.124 22.7877 17.7756 23.3376 17.7756C23.5824 17.7756 23.7996 17.8308 24.0553 17.9824C24.1541 18.0319 24.2739 18.012 24.343 17.9397C24.4597 17.8169 24.4059 17.6256 24.2957 17.572C23.9573 17.3597 23.6594 17.2839 23.2992 17.2839C22.5167 17.2839 21.8862 17.8604 21.8862 18.7428C21.8862 19.6027 22.4742 20.1939 23.3105 20.1939C23.6204 20.1939 23.928 20.1188 24.2228 19.9715C24.3339 19.919 24.4125 19.8043 24.4125 19.6641V18.7927C24.4125 18.6471 24.2963 18.5315 24.1511 18.5315Z" fill="#DEDDFF"/>
<path d="M29.2338 13.6612C29.2815 14.6636 28.8392 15.5642 28.1264 16.1465C27.665 16.5252 27.089 16.7702 26.4589 16.8243C26.4143 16.8275 26.373 16.8498 26.3412 16.8816C25.8543 17.3653 25.2815 17.464 24.9887 17.4799C24.9155 17.4831 24.8742 17.3972 24.9187 17.3399C25.081 17.133 25.1414 16.9453 25.151 16.7861C25.1542 16.7034 25.1033 16.6302 25.0269 16.5984C23.9354 16.1402 23.1685 15.0614 23.1685 13.8012C23.1685 12.0987 24.575 10.7208 26.2934 10.7685C27.1272 10.7908 27.8909 11.1695 28.4287 11.755C28.8997 12.2674 29.202 12.9325 29.2338 13.6612Z" fill="#E83D62"/>
<path d="M25.7649 16.7861C25.7554 16.9453 25.6949 17.133 25.5294 17.3399C25.5199 17.3526 25.5135 17.3653 25.5103 17.3812C25.3067 17.4481 25.1221 17.4735 24.9916 17.4799C24.9184 17.4831 24.8739 17.3972 24.9216 17.3399C25.0839 17.133 25.1444 16.9453 25.1539 16.7861C25.1571 16.7034 25.103 16.6302 25.0266 16.5984C23.9351 16.1402 23.1714 15.0614 23.1714 13.8012C23.1714 12.0987 24.578 10.7208 26.2932 10.7685C26.3664 10.7717 26.4427 10.7749 26.5159 10.7844C24.9821 10.934 23.7824 12.2292 23.7824 13.8012C23.7824 15.0614 24.5461 16.1402 25.6376 16.5984C25.714 16.6302 25.7681 16.7034 25.7649 16.7861Z" fill="#CE2955"/>
<path d="M16.4337 26.6885H12.6464C12.38 26.6885 12.1641 26.4726 12.1641 26.2062V22.4933C12.1641 22.2269 12.38 22.011 12.6464 22.011H16.4337C16.7 22.011 16.916 22.2269 16.916 22.4933V26.2062C16.916 26.4726 16.7 26.6885 16.4337 26.6885Z" fill="#FCB73E"/>
<path d="M13.7987 26.6867H12.6448C12.3794 26.6867 12.1641 26.4713 12.1641 26.2059V22.4944C12.1641 22.2251 12.3794 22.0098 12.6448 22.0098H13.7987C13.5333 22.0098 13.3179 22.2251 13.3179 22.4944V26.2059C13.3179 26.4713 13.5333 26.6867 13.7987 26.6867Z" fill="#FD982E"/>
<path d="M28.4394 13.5473C28.4354 13.4667 28.3709 13.4103 28.2984 13.3982L28.1412 13.374C28.0727 13.3619 28.0244 13.3176 28.0042 13.2531C27.9679 13.1524 27.9276 13.0556 27.8712 12.963C27.839 12.9025 27.839 12.834 27.8753 12.7776L27.9679 12.6406C28.0123 12.5761 28.0082 12.4915 27.9558 12.427C27.9075 12.3746 27.8551 12.3182 27.8027 12.2658C27.7463 12.2134 27.6899 12.1651 27.6335 12.1207C27.569 12.0724 27.4803 12.0724 27.4199 12.1207L27.2829 12.2134C27.2305 12.2537 27.1579 12.2577 27.1015 12.2255C27.0008 12.1812 26.9041 12.1409 26.8033 12.1086C26.7388 12.0925 26.6905 12.0442 26.6744 11.9797L26.6461 11.8265C26.63 11.75 26.5696 11.6936 26.493 11.6895C26.3399 11.6734 26.1827 11.6815 26.0296 11.7057C25.9571 11.7137 25.9006 11.7782 25.8926 11.8548L25.8724 11.9837C25.8604 12.0522 25.812 12.1086 25.7515 12.1248C25.6508 12.161 25.5541 12.1973 25.4654 12.2497C25.405 12.2819 25.3405 12.2819 25.2841 12.2457L25.1753 12.1731C25.1068 12.1288 25.0221 12.1328 24.9617 12.1852C24.9053 12.2336 24.8529 12.286 24.8005 12.3424C24.7481 12.3948 24.7038 12.4512 24.6594 12.5076C24.6071 12.568 24.6071 12.6567 24.6554 12.7212L24.732 12.826C24.7683 12.8743 24.7723 12.9468 24.7441 13.0073C24.6998 13.096 24.6635 13.1967 24.6353 13.2974C24.6192 13.3619 24.5668 13.4143 24.4983 13.4224L24.3693 13.4506C24.2927 13.4627 24.2323 13.5231 24.2283 13.5956C24.2081 13.7528 24.2162 13.91 24.2323 14.0631C24.2444 14.1356 24.3048 14.192 24.3774 14.2041L24.5345 14.2324C24.599 14.2404 24.6514 14.2848 24.6715 14.3492C24.7038 14.45 24.7522 14.5467 24.8005 14.6394C24.8327 14.6998 24.8368 14.7683 24.7965 14.8247L24.7078 14.9618C24.6635 15.0303 24.6715 15.1149 24.7199 15.1794C24.7683 15.2317 24.8207 15.2882 24.8771 15.3406C24.9295 15.3889 24.9859 15.4413 25.0423 15.4856C25.1068 15.534 25.1914 15.534 25.2559 15.4856L25.3888 15.3889C25.4453 15.3486 25.5138 15.3446 25.5742 15.3728C25.6709 15.4252 25.7676 15.4655 25.8724 15.4897C25.9329 15.5138 25.9812 15.5622 25.9974 15.6267L26.0296 15.7798C26.0457 15.8523 26.1062 15.9088 26.1827 15.9168C26.3318 15.9289 26.493 15.9249 26.6421 15.9007C26.7187 15.8886 26.7751 15.8241 26.7872 15.7516L26.8033 15.6186C26.8114 15.5501 26.8597 15.4977 26.9282 15.4776C27.0249 15.4453 27.1177 15.401 27.2103 15.3567C27.2668 15.3244 27.3393 15.3244 27.3917 15.3607L27.4965 15.4292C27.5609 15.4776 27.6496 15.4695 27.71 15.4171C27.7664 15.3688 27.8188 15.3204 27.8712 15.264C27.9236 15.2116 27.972 15.1552 28.0163 15.0947C28.0646 15.0343 28.0687 14.9456 28.0203 14.8812L27.9438 14.7804C27.9035 14.728 27.8994 14.6555 27.9276 14.595C27.976 14.5064 28.0123 14.4097 28.0405 14.3129C28.0566 14.2444 28.109 14.192 28.1735 14.18L28.3065 14.1558C28.383 14.1397 28.4394 14.0833 28.4475 14.0067C28.4596 13.8536 28.4596 13.6964 28.4394 13.5473ZM26.3359 14.72C25.8281 14.72 25.4171 14.3089 25.4171 13.8012C25.4171 13.2934 25.8281 12.8824 26.3359 12.8824C26.8396 12.8824 27.2506 13.2934 27.2506 13.8012C27.2506 14.3089 26.8396 14.72 26.3359 14.72Z" fill="#DEDDFF"/>
</g>
<defs>
<clipPath id="clip0_25_392959">
<rect width="20" height="20" fill="white" transform="translate(10 10)"/>
</clipPath>
</defs>
</svg>
