<svg width="24" height="24" viewBox="0 0 24 24" fill="none" xmlns="http://www.w3.org/2000/svg">
<g clip-path="url(#clip0_343_16804)">
<path d="M12 22C17.5228 22 22 17.5228 22 12C22 6.47715 17.5228 2 12 2C6.47715 2 2 6.47715 2 12C2 17.5228 6.47715 22 12 22Z" fill="#F3BA2F"/>
<path d="M9.5725 11.0025L12 8.575L14.4288 11.0037L15.8412 9.59125L12 5.75L8.16 9.59L9.5725 11.0025ZM5.75 12L7.1625 10.5875L8.575 12L7.1625 13.4125L5.75 12ZM9.5725 12.9975L12 15.425L14.4288 12.9963L15.8412 14.4081L12 18.25L8.16 14.41L8.15812 14.4081L9.5725 12.9975ZM15.425 12L16.8375 10.5875L18.25 12L16.8375 13.4125L15.425 12ZM13.4325 11.9988H13.4338V12L12 13.4338L10.5681 12.0025L10.5656 12L10.5681 11.9981L10.8187 11.7469L10.9406 11.625L12 10.5663L13.4331 11.9994L13.4325 11.9988Z" fill="white"/>
</g>
<defs>
<clipPath id="clip0_343_16804">
<rect width="20" height="20" fill="white" transform="translate(2 2)"/>
</clipPath>
</defs>
</svg>
