<svg width="40" height="40" viewBox="0 0 40 40" fill="none" xmlns="http://www.w3.org/2000/svg">
<rect width="40" height="40" rx="8" fill="#FEF9EB"/>
<g clip-path="url(#clip0_17_391218)">
<path d="M20 30C25.5228 30 30 25.5228 30 20C30 14.4772 25.5228 10 20 10C14.4772 10 10 14.4772 10 20C10 25.5228 14.4772 30 20 30Z" fill="#F3BA2F"/>
<path d="M17.5725 19.0025L20 16.575L22.4288 19.0037L23.8412 17.5912L20 13.75L16.16 17.59L17.5725 19.0025ZM13.75 20L15.1625 18.5875L16.575 20L15.1625 21.4125L13.75 20ZM17.5725 20.9975L20 23.425L22.4288 20.9963L23.8412 22.4081L20 26.25L16.16 22.41L16.1581 22.4081L17.5725 20.9975ZM23.425 20L24.8375 18.5875L26.25 20L24.8375 21.4125L23.425 20ZM21.4325 19.9988H21.4338V20L20 21.4338L18.5681 20.0025L18.5656 20L18.5681 19.9981L18.8187 19.7469L18.9406 19.625L20 18.5663L21.4331 19.9994L21.4325 19.9988Z" fill="white"/>
</g>
<defs>
<clipPath id="clip0_17_391218">
<rect width="20" height="20" fill="white" transform="translate(10 10)"/>
</clipPath>
</defs>
</svg>
