<svg width="24" height="24" viewBox="0 0 24 24" fill="none" xmlns="http://www.w3.org/2000/svg">
<g clip-path="url(#clip0_343_16742)">
<path d="M12 22C17.5228 22 22 17.5228 22 12C22 6.47715 17.5228 2 12 2C6.47715 2 2 6.47715 2 12C2 17.5228 6.47715 22 12 22Z" fill="#F7931A"/>
<path d="M16.4927 10.7625C16.6889 9.4525 15.6908 8.74813 14.327 8.27813L14.7695 6.50312L13.6895 6.23438L13.2583 7.9625C12.9745 7.89125 12.6833 7.825 12.3927 7.75875L12.827 6.01938L11.747 5.75L11.3045 7.52437C11.0695 7.47062 10.8383 7.41813 10.6145 7.36188L10.6158 7.35625L9.12578 6.98438L8.83828 8.13812C8.83828 8.13812 9.64016 8.32188 9.62328 8.33313C10.0608 8.4425 10.1395 8.73187 10.1264 8.96187L9.62266 10.9837C9.65266 10.9912 9.69141 11.0025 9.73516 11.0194L9.62078 10.9913L8.91453 13.8237C8.86078 13.9562 8.72516 14.1556 8.41891 14.08C8.43016 14.0956 7.63391 13.8844 7.63391 13.8844L7.09766 15.1206L8.50391 15.4713C8.76516 15.5369 9.02141 15.6056 9.27328 15.67L8.82641 17.465L9.90578 17.7337L10.3483 15.9587C10.6433 16.0381 10.9295 16.1119 11.2095 16.1819L10.7683 17.9494L11.8483 18.2181L12.2952 16.4269C14.1377 16.7756 15.5227 16.635 16.1058 14.9688C16.5758 13.6275 16.0827 12.8531 15.1133 12.3488C15.8195 12.1863 16.3508 11.7219 16.4927 10.7625ZM14.0239 14.2238C13.6908 15.5656 11.4314 14.84 10.6989 14.6581L11.2927 12.28C12.0252 12.4631 14.3733 12.825 14.0239 14.2238ZM14.3583 10.7431C14.0539 11.9638 12.1739 11.3431 11.5645 11.1913L12.102 9.035C12.7114 9.18687 14.6758 9.47 14.3583 10.7431Z" fill="white"/>
</g>
<defs>
<clipPath id="clip0_343_16742">
<rect width="20" height="20" fill="white" transform="translate(2 2)"/>
</clipPath>
</defs>
</svg>
