<svg width="40" height="40" viewBox="0 0 40 40" fill="none" xmlns="http://www.w3.org/2000/svg">
<rect width="40" height="40" rx="8" fill="#F1FAFC"/>
<path d="M27.2077 10.8989H12.8557C12.4946 10.8989 12.2002 11.1934 12.2002 11.5544V19.7431C12.2002 20.1042 12.4946 20.3986 12.8557 20.3986H19.5284L19.5293 19.3223C19.5293 18.6339 20.0874 18.0769 20.7757 18.0769C21.1199 18.0769 21.4303 18.2172 21.6561 18.4429C21.8809 18.6678 22.0202 18.9801 22.0202 19.3233L22.0192 20.3986H27.2077C27.5688 20.3986 27.8632 20.1042 27.8632 19.7431V11.5544C27.8632 11.1933 27.5687 10.8989 27.2077 10.8989ZM22.5215 12.8247H19.3533V11.8061H22.5215V12.8247ZM25.5783 19.7868H24.8402V16.9668H25.5783V19.7868ZM26.8864 12.8247H23.4008V11.8061H26.8864V12.8247Z" fill="#71CCE0"/>
<path d="M22.5747 20.8979V21.2371C22.5747 21.646 22.7418 21.8989 22.9402 22.056V20.8979H22.5747Z" fill="#DFDFDF"/>
<path d="M23.497 20.7488H22.0174L21.8682 20.898V21.2367C21.8682 22.8227 23.4657 23.0046 23.4819 23.0063L23.6463 22.8578V20.898L23.497 20.7488ZM23.3478 22.68C22.9875 22.596 22.1666 22.2892 22.1666 21.2367V21.0472H23.3478V22.68Z" fill="#4A555F"/>
<path d="M22.8639 24.4076L22.1667 23.2693L22.1693 19.324C22.1695 18.9514 22.0247 18.601 21.7614 18.3374C21.4981 18.0738 21.148 17.9285 20.7754 17.9282H20.7745C20.0059 17.9282 19.3803 18.5534 19.3797 19.3222L19.3788 20.7467L17.0209 20.7452L15.9422 22.6944C15.6121 23.2909 15.5984 24.0103 15.9058 24.6197L18.0762 28.8699V29.9999H18.3746V28.7982L16.172 24.4846C15.9094 23.9642 15.9211 23.349 16.2033 22.8388L17.1967 21.0437L19.3786 21.0451L19.3774 22.9424L18.4543 24.0363L18.6824 24.2287L19.6758 23.0516L19.6782 19.3224C19.6786 18.7181 20.1704 18.2267 20.7746 18.2267H20.7753C21.0682 18.2269 21.3434 18.3412 21.5503 18.5483C21.7573 18.7556 21.8711 19.031 21.8709 19.3238L21.8684 23.3533L22.6095 24.5635C22.8463 24.9502 22.9711 25.3942 22.9705 25.8474L22.9701 26.1378C22.9697 26.4088 22.9249 26.676 22.8368 26.932L22.1914 28.8092V29.9999H22.4898V28.859L23.119 27.029C23.2178 26.7419 23.2681 26.4422 23.2685 26.1382L23.2689 25.8478C23.2695 25.3394 23.1295 24.8414 22.8639 24.4076Z" fill="#4A555F"/>
<path d="M21.7618 18.3378C21.4974 18.0735 21.1474 17.928 20.776 17.928C20.0064 17.928 19.3804 18.5536 19.3804 19.3224L19.3794 20.8963H19.6778L19.6788 19.3226C19.6788 18.7181 20.171 18.2264 20.776 18.2264C21.0678 18.2264 21.3429 18.3409 21.5508 18.5488C21.7574 18.7554 21.8712 19.0306 21.8712 19.3234L21.8703 20.8963H22.1687L22.1697 19.3236C22.1696 18.9509 22.0247 18.6008 21.7618 18.3378Z" fill="#4A555F"/>
<path d="M17.0182 20.7449L16.9756 20.8282L17.1094 20.8954L17.1093 21.0434L19.5286 21.0454L19.5287 20.747L17.0182 20.7449Z" fill="#4A555F"/>
<path d="M22.1801 24.6432L21.4605 23.468L21.4628 19.3233C21.4628 18.9434 21.1541 18.6348 20.7753 18.6348C20.3954 18.6348 20.0867 18.9434 20.0856 19.3222L20.0834 23.2007L18.9937 24.492L18.1425 23.7733L18.9692 22.7928L18.9704 21.4525L17.4373 21.4514L16.5604 23.0368C16.4501 23.2363 16.3911 23.4625 16.3911 23.6909C16.3911 23.9014 16.4413 24.1131 16.536 24.3014L17.6802 26.5676L18.818 28.7174V29.9999H21.7946V28.6088L22.4122 26.8744C22.5117 26.595 22.5626 26.3007 22.5629 26.0041C22.5633 25.5238 22.4308 25.0528 22.1801 24.6432Z" fill="#DFDFDF"/>
<path d="M23.5352 17.7812H24.8402V19.7866H23.5352V17.7812Z" fill="#FFD452"/>
<path d="M25.5781 17.7812H26.8832V19.7866H25.5781V17.7812Z" fill="#FFD452"/>
<path d="M23.3838 16.9666H24.8401V17.7812H23.3838V16.9666Z" fill="#FFD452"/>
<path d="M25.5781 16.9666H27.0334V17.7812H25.5781V16.9666Z" fill="#FFD452"/>
<path d="M27.2077 10.2527H12.8558C12.1378 10.2527 11.5537 10.8368 11.5537 11.5548V19.7433C11.5537 20.4614 12.1378 21.0455 12.8558 21.0455H19.6777L19.6787 19.3226C19.6787 18.7181 20.1709 18.2264 20.7759 18.2264C21.0676 18.2264 21.3427 18.3408 21.5507 18.5487C21.7573 18.7554 21.8711 19.0305 21.8711 19.3234L21.8701 21.0455H27.2078C27.9259 21.0455 28.51 20.4614 28.51 19.7433V11.5548C28.5099 10.8368 27.9258 10.2527 27.2077 10.2527ZM28.2115 19.7433C28.2115 20.2968 27.7612 20.7471 27.2077 20.7471H22.1685L22.1695 19.3236C22.1695 18.9508 22.0246 18.6007 21.7616 18.3378C21.4973 18.0735 21.1472 17.928 20.7759 17.928C20.0063 17.928 19.3802 18.5536 19.3802 19.3224L19.3793 20.7471H12.8558C12.3024 20.7471 11.8521 20.2968 11.8521 19.7433V11.5548C11.8521 11.0014 12.3023 10.5511 12.8558 10.5511H27.2077C27.7612 10.5511 28.2115 11.0013 28.2115 11.5548V19.7433Z" fill="#4A555F"/>
<path d="M16.4458 15.4998H28.6697V15.7982H16.4458V15.4998Z" fill="#4A555F"/>
<path d="M11.3306 15.4998H15.3848V15.7982H11.3306V15.4998Z" fill="#4A555F"/>
<path d="M15.7759 15.6492H16.0743V21.2876H15.7759V15.6492Z" fill="#4A555F"/>
<path d="M15.7759 10H16.0743V15.6491H15.7759V10Z" fill="#4A555F"/>
<path d="M18.9236 14.0686C18.7231 13.8269 18.428 13.6882 18.1137 13.6882C17.8388 13.6882 17.5788 13.7938 17.38 13.9869L15.5645 15.7984L18.0943 15.7982L18.1145 15.7983C18.6941 15.7983 19.1656 15.3266 19.1656 14.7398C19.1656 14.4952 19.0796 14.2568 18.9236 14.0686ZM18.1145 15.4999L18.0971 15.4998L16.2861 15.4999L17.5893 14.1996C17.7307 14.0623 17.9169 13.9866 18.1137 13.9866C18.3388 13.9866 18.5503 14.0859 18.6938 14.2591C18.8056 14.3939 18.8672 14.5646 18.8672 14.7468C18.8672 15.1621 18.5295 15.4999 18.1145 15.4999Z" fill="#4A555F"/>
<path d="M14.4688 13.9856C14.2714 13.7938 14.0114 13.6882 13.7364 13.6882C13.4222 13.6882 13.1271 13.8268 12.9266 14.0686C12.7705 14.2568 12.6846 14.4952 12.6846 14.7468C12.6846 15.3266 13.1561 15.7983 13.7357 15.7983L13.7531 15.7982L16.2858 15.7984L14.4688 13.9856ZM13.7502 15.4998L13.7357 15.4999C13.3206 15.4999 12.983 15.1621 12.983 14.7398C12.983 14.5647 13.0446 14.3939 13.1564 14.2591C13.2999 14.0859 13.5114 13.9866 13.7364 13.9866C13.9332 13.9866 14.1195 14.0623 14.2594 14.1982L15.5641 15.4999L13.7502 15.4998Z" fill="#4A555F"/>
<path d="M15.7993 15.5688C15.7921 15.58 15.0687 16.6803 13.2871 16.6803V16.9787C15.2304 16.9787 16.0182 15.7805 16.0507 15.7296L15.7993 15.5688Z" fill="#4A555F"/>
<path d="M16.0506 15.5684L15.9251 15.649L15.7993 15.7294C15.8319 15.7804 16.6196 16.9786 18.5629 16.9786V16.6801C16.7904 16.6802 16.0799 15.6137 16.0506 15.5684Z" fill="#4A555F"/>
<path d="M23.3857 17.6316V19.9357H27.0327V17.6316H23.3857ZM26.7343 19.6372H23.6841V17.93H26.7343V19.6372Z" fill="#4A555F"/>
<path d="M26.4216 16.3369C26.2266 16.1678 25.9286 16.1655 25.7315 16.3313L24.7998 17.1153H26.1687C26.3914 17.1153 26.5727 16.9192 26.5727 16.6781C26.5727 16.5445 26.5176 16.4202 26.4216 16.3369ZM26.1687 16.8169H25.6179L25.9236 16.5597C26.0132 16.4843 26.137 16.4853 26.2261 16.5624C26.2562 16.5885 26.2743 16.6318 26.2743 16.6781C26.2743 16.7533 26.2259 16.8169 26.1687 16.8169Z" fill="#4A555F"/>
<path d="M24.6865 16.3315C24.4893 16.1658 24.1913 16.168 23.9964 16.3371C23.9003 16.4204 23.8452 16.5447 23.8452 16.6783C23.8452 16.9194 24.0265 17.1155 24.2492 17.1155H25.6181L24.6865 16.3315ZM24.1437 16.6783C24.1437 16.632 24.1617 16.5887 24.1918 16.5626C24.2369 16.5235 24.2897 16.5029 24.3446 16.5029C24.3983 16.5029 24.45 16.5226 24.4943 16.5598L24.7999 16.817H24.2492C24.192 16.8171 24.1437 16.7535 24.1437 16.6783Z" fill="#4A555F"/>
<path d="M19.2036 11.657V12.9737H22.6704V11.657H19.2036ZM22.372 12.6752H19.502V11.9554H22.372V12.6752Z" fill="#4A555F"/>
<path d="M23.251 11.657V12.9737H27.0354V11.657H23.251ZM26.737 12.6752H23.5494V11.9554H26.737V12.6752Z" fill="#4A555F"/>
<path d="M23.2349 16.8171V17.9302H27.1832V16.8171H23.2349ZM26.8847 17.6318H23.5333V17.1155H26.8847V17.6318Z" fill="#4A555F"/>
<path d="M24.6909 16.8171V19.9358H25.7269V16.8171H24.6909ZM25.4285 19.6374H24.9894V17.1155H25.4285V19.6374Z" fill="#4A555F"/>
</svg>
