<svg width="73" height="73" viewBox="0 0 73 73" fill="none" xmlns="http://www.w3.org/2000/svg">
<rect x="0.939453" y="0.870117" width="71.1594" height="71.1594" rx="35.5797" fill="#326CF6"/>
<path d="M19.0033 27.4577C19.0153 27.5251 19.025 27.5924 19.029 27.6604C19.0799 28.5325 19.7392 35.4907 28.028 43.9628C28.028 43.9628 35.1881 51.2595 42.7238 52.7937C42.7564 52.8004 42.7884 52.8077 42.821 52.8167C43.2773 52.9408 47.1564 53.9213 49.156 51.916L52.0047 49.1183C52.0304 49.0931 52.0573 49.0684 52.0847 49.0448C52.3689 48.8005 54.3474 46.9727 52.3684 45.0291C50.3653 43.062 47.8403 40.6636 47.5544 40.3919C47.5406 40.3789 47.5275 40.366 47.5143 40.3525C47.3594 40.1942 45.8876 38.7701 44.1636 40.0712C44.1139 40.1088 44.067 40.151 44.0224 40.1948L41.2331 42.9413C40.6081 43.5337 39.6155 43.5259 38.9997 42.9239L29.4706 33.6016C28.8308 32.9755 28.8474 31.9529 29.5072 31.347L31.7372 29.3007C31.7372 29.3007 34.1805 27.0792 31.5566 24.6797L27.6614 20.8544C27.6374 20.8308 27.6146 20.8067 27.5917 20.7814C27.3401 20.5029 25.4732 18.5959 23.2826 20.7185C23.2157 20.7831 23.1431 20.8415 23.0659 20.8932C22.3226 21.3941 18.416 24.1928 19.0033 27.4577Z" fill="white"/>
<path d="M45.2573 34.2719C45.8606 34.2716 46.3573 33.7798 46.2719 33.1826C46.1664 32.4452 45.9544 31.725 45.6409 31.045C45.1745 30.0333 44.4946 29.1346 43.6479 28.4107C42.8012 27.6867 41.8078 27.1547 40.736 26.8512C40.0155 26.6472 39.2711 26.5496 38.5262 26.56C37.923 26.5684 37.5144 27.1355 37.6078 27.7315C37.7013 28.3275 38.2631 28.7235 38.8658 28.7488C39.2961 28.7669 39.724 28.8352 40.1407 28.9533C40.909 29.1708 41.6212 29.5522 42.2281 30.0712C42.8351 30.5902 43.3225 31.2344 43.6568 31.9596C43.8381 32.3529 43.9721 32.765 44.0568 33.1872C44.1755 33.7787 44.654 34.2722 45.2573 34.2719Z" fill="white"/>
<path d="M49.7694 34.3948C50.4961 34.4517 51.1393 33.9074 51.1121 33.179C51.0627 31.8541 50.7833 30.5445 50.2829 29.3096C49.6169 27.6658 48.5778 26.1993 47.2477 25.0261C45.9175 23.8529 44.3328 23.005 42.6187 22.5495C41.331 22.2073 39.9967 22.0935 38.6761 22.2099C37.95 22.2739 37.4902 22.98 37.6374 23.6939C37.7846 24.4078 38.4837 24.8567 39.2116 24.8178C40.1278 24.7689 41.0488 24.8635 41.9407 25.1005C43.2593 25.451 44.4784 26.1032 45.5016 27.0057C46.5248 27.9082 47.3242 29.0363 47.8365 30.3008C48.1831 31.1562 48.3919 32.0581 48.4578 32.9733C48.5101 33.7003 49.0428 34.3379 49.7694 34.3948Z" fill="white"/>
</svg>
