<svg width="20" height="20" viewBox="0 0 20 20" fill="none" xmlns="http://www.w3.org/2000/svg">
<g clip-path="url(#clip0_4858_53366)">
<path d="M10 8.86869L13.3944 5.47429C13.7068 5.16192 14.2132 5.16192 14.5256 5.47429C14.838 5.78666 14.838 6.29312 14.5256 6.60549L11.1312 9.99989L14.5256 13.3943C14.838 13.7067 14.838 14.2131 14.5256 14.5255C14.2132 14.8379 13.7068 14.8379 13.3944 14.5255L10 11.1311L6.60561 14.5255C6.29324 14.8379 5.78679 14.8379 5.47441 14.5255C5.16204 14.2131 5.16204 13.7067 5.47441 13.3943L8.86881 9.99989L5.47441 6.60549C5.16204 6.29312 5.16204 5.78666 5.47441 5.47429C5.78679 5.16192 6.29324 5.16192 6.60561 5.47429L10 8.86869Z" fill="white"/>
</g>
<defs>
<clipPath id="clip0_4858_53366">
<rect width="19.2" height="19.2" fill="white" transform="translate(0.400024 0.399902)"/>
</clipPath>
</defs>
</svg>
