<svg width="246" height="245" viewBox="0 0 246 245" fill="none" xmlns="http://www.w3.org/2000/svg">
<rect x="0.587891" width="245" height="245" rx="24.5" fill="#C2A633" fill-opacity="0.1"/>
<g clip-path="url(#clip0_1139_15249)">
<path d="M124.254 100.7H115.43V118.097H129.313V125.381H115.43V142.777H124.686C127.065 142.777 144.213 143.046 144.186 122.537C144.16 102.029 127.555 100.7 124.254 100.7Z" fill="#C2A633"/>
<path d="M122.774 60C88.6642 60 61.0137 87.6506 61.0137 121.76C61.0137 155.869 88.6642 183.52 122.774 183.52C156.883 183.52 184.534 155.869 184.534 121.76C184.534 87.6506 156.883 60 122.774 60ZM125.2 155.117H102.834V125.382H94.9496V118.098H102.833V88.3608H122.029C126.571 88.3608 156.65 87.4177 156.65 122.297C156.65 157.752 125.201 155.117 125.201 155.117H125.2Z" fill="#C2A633"/>
</g>
<defs>
<clipPath id="clip0_1139_15249">
<rect width="123.52" height="123.52" fill="white" transform="translate(61.0137 60)"/>
</clipPath>
</defs>
</svg>
