<svg width="24" height="24" viewBox="0 0 24 24" fill="none" xmlns="http://www.w3.org/2000/svg">
<g clip-path="url(#clip0_2110_9358)">
<path d="M12.2394 8.59009H10.8105V11.407H13.0585V12.5864H10.8105V15.4031H12.3094C12.6945 15.4031 15.471 15.4466 15.4667 12.1259C15.4624 8.80519 12.7738 8.59009 12.2394 8.59009Z" fill="#C2A633"/>
<path d="M12 2C6.4771 2 2 6.4771 2 12C2 17.5229 6.4771 22 12 22C17.5229 22 22 17.5229 22 12C22 6.4771 17.5229 2 12 2ZM12.3929 17.401H8.7714V12.5864H7.4948V11.407H8.7713V6.5921H11.8795C12.6148 6.5921 17.4851 6.4394 17.4851 12.0869C17.4851 17.8278 12.393 17.401 12.393 17.401H12.3929Z" fill="#C2A633"/>
</g>
<defs>
<clipPath id="clip0_2110_9358">
<rect width="20" height="20" fill="white" transform="translate(2 2)"/>
</clipPath>
</defs>
</svg>
