<svg width="24" height="24" viewBox="0 0 24 24" fill="none" xmlns="http://www.w3.org/2000/svg">
<g clip-path="url(#clip0_343_16834)">
<g clip-path="url(#clip1_343_16834)">
<path d="M18.8848 18.8848C22.6979 15.0716 22.6979 8.88931 18.8848 5.07617C15.0716 1.26303 8.88931 1.26303 5.07617 5.07617C1.26303 8.88931 1.26303 15.0716 5.07617 18.8848C8.88931 22.6979 15.0716 22.6979 18.8848 18.8848Z" fill="#A4C9FF"/>
<path d="M11.9824 21.9023C6.51148 21.9023 2.06055 17.4514 2.06055 11.9805C2.06055 6.50953 6.51148 2.05859 11.9824 2.05859C17.4534 2.05859 21.9043 6.50953 21.9043 11.9805C21.9043 17.4514 17.4534 21.9023 11.9824 21.9023ZM11.9824 2.37109C6.68383 2.37109 2.37305 6.68188 2.37305 11.9805C2.37305 17.2791 6.68383 21.5898 11.9824 21.5898C17.281 21.5898 21.5918 17.2791 21.5918 11.9805C21.5918 6.68188 17.2811 2.37109 11.9824 2.37109Z" fill="#A4C9FF"/>
<path d="M11.9826 20.2921C16.5731 20.2921 20.2943 16.5709 20.2943 11.9804C20.2943 7.38998 16.5731 3.6687 11.9826 3.6687C7.39218 3.6687 3.6709 7.38998 3.6709 11.9804C3.6709 16.5709 7.39218 20.2921 11.9826 20.2921Z" fill="#A4C9FF"/>
<path d="M15.931 11.9829H8.03418L11.6507 18.9592C11.7901 19.2282 12.175 19.2282 12.3144 18.9592L15.931 11.9829Z" fill="#E0EBFC"/>
<path d="M11.9826 20.4484C7.31332 20.4484 3.51465 16.6496 3.51465 11.9804C3.51465 7.3112 7.3134 3.51245 11.9826 3.51245C16.6518 3.51245 20.4507 7.31112 20.4507 11.9804C20.4507 16.6497 16.6519 20.4484 11.9826 20.4484ZM11.9826 3.82495C7.48566 3.82495 3.82715 7.48347 3.82715 11.9804C3.82715 16.4774 7.48566 20.1359 11.9826 20.1359C16.4796 20.1359 20.1381 16.4774 20.1381 11.9804C20.1381 7.48347 16.4796 3.82495 11.9826 3.82495Z" fill="#A4C9FF"/>
<path d="M11.9825 19.3171C11.7838 19.3171 11.6034 19.2074 11.512 19.031L7.89548 12.0548C7.87032 12.0063 7.87236 11.9483 7.90064 11.9017C7.92892 11.8552 7.97962 11.8267 8.03415 11.8267H15.9309C15.9855 11.8267 16.0361 11.8551 16.0645 11.9017C16.0928 11.9484 16.0948 12.0063 16.0696 12.0548L12.4531 19.031C12.3617 19.2074 12.1813 19.3171 11.9825 19.3171ZM8.29118 12.1391L11.7894 18.8871C11.8275 18.9606 11.8998 19.0046 11.9826 19.0046C12.0654 19.0046 12.1376 18.9606 12.1758 18.8871L15.674 12.1391H8.29118Z" fill="#3762CC"/>
<path d="M12.3144 5.00673C12.175 4.73767 11.7901 4.73767 11.6507 5.00673L8.03418 11.983L11.7975 15.2898C11.9033 15.3828 12.0618 15.3828 12.1675 15.2898L15.9308 11.983L12.3144 5.00673Z" fill="#E0EBFC"/>
<path d="M11.9825 15.5154C11.8794 15.5154 11.7764 15.4793 11.6943 15.4071L7.93101 12.1003C7.8771 12.0529 7.86241 11.9749 7.89546 11.911L11.5119 4.93478C11.6034 4.75829 11.7837 4.64868 11.9825 4.64868C12.1812 4.64868 12.3616 4.75829 12.453 4.93478L16.0696 11.911C16.1026 11.9748 16.088 12.0529 16.0341 12.1003L12.2708 15.4071C12.1886 15.4793 12.0855 15.5154 11.9825 15.5154ZM8.22921 11.9463L11.9007 15.1724C11.9473 15.2133 12.0177 15.2134 12.0645 15.1724L15.7359 11.9463L12.1757 5.0786C12.1376 5.00509 12.0654 4.96118 11.9826 4.96118C11.8998 4.96118 11.8276 5.00509 11.7894 5.0786L8.22921 11.9463Z" fill="#3762CC"/>
<path d="M11.9824 19.3171C11.8962 19.3171 11.8262 19.2471 11.8262 19.1609V4.80493C11.8262 4.71868 11.8962 4.64868 11.9824 4.64868C12.0687 4.64868 12.1387 4.71868 12.1387 4.80493V19.1609C12.1387 19.2472 12.0687 19.3171 11.9824 19.3171Z" fill="#3762CC"/>
</g>
</g>
<defs>
<clipPath id="clip0_343_16834">
<rect width="20" height="20" fill="white" transform="translate(2 2)"/>
</clipPath>
<clipPath id="clip1_343_16834">
<rect width="20" height="20" fill="white" transform="translate(2 2)"/>
</clipPath>
</defs>
</svg>
