<svg width="246" height="245" viewBox="0 0 246 245" fill="none" xmlns="http://www.w3.org/2000/svg">
<rect x="0.587891" width="245" height="245" rx="24.5" fill="#EDF1FA"/>
<g clip-path="url(#clip0_1139_15225)">
<g clip-path="url(#clip1_1139_15225)">
<path d="M166.245 164.279C189.795 140.729 189.795 102.547 166.245 78.9968C142.695 55.4468 104.513 55.4468 80.9632 78.9968C57.4133 102.547 57.4133 140.729 80.9632 164.279C104.513 187.829 142.695 187.829 166.245 164.279Z" fill="#A4C9FF"/>
<path d="M123.613 182.915C89.8249 182.915 62.3359 155.426 62.3359 121.638C62.3359 87.8493 89.8249 60.3604 123.613 60.3604C157.402 60.3604 184.891 87.8493 184.891 121.638C184.891 155.426 157.402 182.915 123.613 182.915ZM123.613 62.2904C90.8893 62.2904 64.2659 88.9137 64.2659 121.638C64.2659 154.362 90.8893 180.985 123.613 180.985C156.338 180.985 182.961 154.362 182.961 121.638C182.961 88.9137 156.338 62.2904 123.613 62.2904Z" fill="#A4C9FF"/>
<path d="M123.609 172.972C151.959 172.972 174.942 149.989 174.942 121.639C174.942 93.2883 151.959 70.3057 123.609 70.3057C95.258 70.3057 72.2754 93.2883 72.2754 121.639C72.2754 149.989 95.258 172.972 123.609 172.972Z" fill="#A4C9FF"/>
<path d="M148.009 121.65H99.2383L121.574 164.736C122.435 166.397 124.812 166.397 125.673 164.736L148.009 121.65Z" fill="#E0EBFC"/>
<path d="M123.609 173.935C94.7711 173.935 71.3105 150.474 71.3105 121.637C71.3105 92.7999 94.7716 69.3389 123.609 69.3389C152.446 69.3389 175.907 92.7995 175.907 121.637C175.907 150.475 152.446 173.935 123.609 173.935ZM123.609 71.2689C95.8355 71.2689 73.2405 93.8639 73.2405 121.637C73.2405 149.41 95.8355 172.005 123.609 172.005C151.382 172.005 173.977 149.41 173.977 121.637C173.977 93.8639 151.382 71.2689 123.609 71.2689Z" fill="#A4C9FF"/>
<path d="M123.623 166.946C122.396 166.946 121.282 166.269 120.717 165.179L98.3818 122.094C98.2265 121.795 98.239 121.437 98.4137 121.149C98.5883 120.862 98.9015 120.686 99.2383 120.686H148.009C148.346 120.686 148.658 120.861 148.833 121.149C149.009 121.437 149.021 121.795 148.865 122.094L126.53 165.179C125.965 166.269 124.851 166.946 123.623 166.946ZM100.826 122.615L122.431 164.291C122.666 164.745 123.112 165.016 123.624 165.016C124.135 165.016 124.581 164.745 124.817 164.291L146.422 122.615H100.826Z" fill="#3762CC"/>
<path d="M125.673 78.5705C124.812 76.9088 122.435 76.9088 121.574 78.5705L99.2383 121.656L122.48 142.079C123.134 142.653 124.113 142.653 124.766 142.079L148.008 121.656L125.673 78.5705Z" fill="#E0EBFC"/>
<path d="M123.623 143.472C122.987 143.472 122.35 143.249 121.843 142.803L98.6012 122.381C98.2683 122.088 98.1776 121.606 98.3817 121.212L120.717 78.1263C121.282 77.0363 122.396 76.3594 123.623 76.3594C124.851 76.3594 125.964 77.0363 126.529 78.1263L148.865 121.212C149.069 121.605 148.979 122.088 148.646 122.381L125.404 142.803C124.896 143.249 124.26 143.472 123.623 143.472ZM100.443 121.429L123.118 141.354C123.406 141.606 123.841 141.607 124.13 141.354L146.804 121.429L124.816 79.0146C124.581 78.5605 124.135 78.2894 123.624 78.2894C123.112 78.2894 122.666 78.5605 122.43 79.0146L100.443 121.429Z" fill="#3762CC"/>
<path d="M123.613 166.952C123.081 166.952 122.648 166.519 122.648 165.987V77.3244C122.648 76.7917 123.081 76.3594 123.613 76.3594C124.146 76.3594 124.578 76.7917 124.578 77.3244V165.987C124.578 166.52 124.146 166.952 123.613 166.952Z" fill="#3762CC"/>
</g>
</g>
<defs>
<clipPath id="clip0_1139_15225">
<rect width="123.52" height="123.52" fill="white" transform="translate(61.9629 60)"/>
</clipPath>
<clipPath id="clip1_1139_15225">
<rect width="123.52" height="123.52" fill="white" transform="translate(61.9629 60)"/>
</clipPath>
</defs>
</svg>
