<svg width="213" height="153" viewBox="0 0 213 153" fill="none" xmlns="http://www.w3.org/2000/svg">
<path d="M141.408 51.1313C155.75 39.8141 164.469 26.8597 168.168 1.16223" stroke="#326CF6" stroke-width="2" stroke-linecap="round" stroke-linejoin="round"/>
<path d="M126.97 45.3472C129.574 42.109 132.642 36.2803 130.185 26.6097" stroke="#326CF6" stroke-width="2" stroke-linecap="round" stroke-linejoin="round"/>
<path d="M211.512 16.0005C139.465 114.055 41.8639 46.6558 68.4093 24.3906C94.9546 2.12546 107.078 86.4163 60.6322 114.055C40.9093 125.791 -3.51591 105.137 3.42917 96.7233C10.3742 88.3094 50.798 124.594 1 150.707M1 150.707L3.42917 140.991M1 150.707L10.7167 151.922" stroke="#326CF6" stroke-width="2" stroke-linecap="round" stroke-linejoin="round"/>
<path d="M26.5063 148.278C28.9355 147.266 35.6157 143.419 36.223 134.917" stroke="#326CF6" stroke-width="2" stroke-linecap="round" stroke-linejoin="round"/>
</svg>
