<svg width="20" height="20" viewBox="0 0 20 20" fill="none" xmlns="http://www.w3.org/2000/svg">
<path fill-rule="evenodd" clip-rule="evenodd" d="M16.7932 6.32602C17.3865 6.80323 17.7348 7.52116 17.7424 8.28255L17.7352 14.9275C17.7352 16.7324 16.272 18.1956 14.4671 18.1956H13.0178C12.1442 18.1956 11.4348 17.4895 11.4308 16.6159V13.6159C11.4308 13.3838 11.2427 13.1956 11.0105 13.1956H8.83663C8.7239 13.1956 8.61588 13.2408 8.53685 13.3212C8.45782 13.4016 8.4144 13.5104 8.41634 13.6231V14.7681C8.41634 15.1282 8.12435 15.4202 7.76417 15.4202C7.40398 15.4202 7.11199 15.1282 7.11199 14.7681V13.6231C7.11199 13.1638 7.29446 12.7233 7.61925 12.3985C7.94404 12.0737 8.38455 11.8912 8.84388 11.8912H11.0178C11.9715 11.8952 12.7424 12.6695 12.7424 13.6231V16.6159C12.7424 16.768 12.8657 16.8912 13.0178 16.8912H14.5033C15.5839 16.8912 16.4598 16.0153 16.4598 14.9347V8.29704C16.4545 7.92932 16.2842 7.58346 15.9961 7.35501L10.9888 3.36226C10.3574 2.84243 9.4463 2.84243 8.81489 3.36226L7.2062 4.56515C6.90804 4.77926 6.49277 4.71113 6.27866 4.41298C6.06455 4.11483 6.13268 3.69955 6.43083 3.48544L8.01779 2.33327C9.11813 1.44881 10.6856 1.44881 11.7859 2.33327L16.7932 6.32602ZM5.35112 16.884H8.68446V16.8985C9.04464 16.8985 9.33663 17.1905 9.33663 17.5507C9.33663 17.9108 9.04464 18.2028 8.68446 18.2028H5.35112C3.54785 18.1989 2.08699 16.738 2.08301 14.9347V8.29704C2.09454 7.53002 2.45457 6.80995 3.06127 6.34052L3.66272 5.89124C3.94594 5.75773 4.28408 5.84433 4.46825 6.09756C4.65241 6.35079 4.63063 6.69917 4.41634 6.92747L3.82938 7.36226C3.55127 7.59332 3.38948 7.93547 3.38736 8.29704V14.9275C3.39529 16.0076 4.27102 16.8801 5.35112 16.884Z" fill="#6D7A98"/>
</svg>
