<svg width="246" height="245" viewBox="0 0 246 245" fill="none" xmlns="http://www.w3.org/2000/svg">
<rect x="0.587891" width="245" height="245" rx="24.5" fill="#EEEFFF"/>
<path d="M122.417 62C87.0129 62 58.2129 89.7682 58.2129 123.911C61.767 206.069 183.089 206.046 186.621 123.911C186.621 89.7682 157.821 62 122.417 62ZM150.712 160.92H106.091C105.541 160.917 105 160.783 104.512 160.53C104.025 160.276 103.605 159.91 103.286 159.462C102.968 159.014 102.761 158.496 102.683 157.952C102.604 157.409 102.656 156.854 102.835 156.334L112.534 126.8L94.5798 129.299C93.6676 129.424 92.7432 129.181 92.01 128.624C91.2769 128.068 90.7949 127.242 90.6702 126.33C90.5456 125.418 90.7884 124.493 91.3453 123.76C91.9021 123.027 92.7275 122.545 93.6397 122.42L114.919 119.462L124.87 89.1491C125.156 88.2825 125.774 87.5649 126.589 87.1542C127.404 86.7436 128.349 86.6734 129.216 86.9593C130.082 87.2451 130.8 87.8635 131.21 88.6784C131.621 89.4932 131.691 90.4379 131.405 91.3045L122.417 118.545L142.526 115.748C143.439 115.623 144.363 115.866 145.096 116.423C145.829 116.98 146.311 117.805 146.436 118.717C146.561 119.629 146.318 120.554 145.761 121.287C145.204 122.02 144.379 122.502 143.466 122.627L120.124 125.814L110.952 154.041H150.712C151.625 154.041 152.499 154.403 153.144 155.048C153.789 155.693 154.152 156.568 154.152 157.48C154.152 158.393 153.789 159.267 153.144 159.912C152.499 160.557 151.625 160.92 150.712 160.92Z" fill="url(#paint0_linear_1139_15221)"/>
<defs>
<linearGradient id="paint0_linear_1139_15221" x1="58.2129" y1="123.75" x2="186.621" y2="123.75" gradientUnits="userSpaceOnUse">
<stop stop-color="#00C0FF"/>
<stop offset="1" stop-color="#5558FF"/>
</linearGradient>
</defs>
</svg>
