<svg width="73" height="73" viewBox="0 0 73 73" fill="none" xmlns="http://www.w3.org/2000/svg">
<circle cx="36.981" cy="36.8785" r="36.0084" fill="#326CF6"/>
<path d="M55.2865 23.1019V45.7686C55.2865 46.52 54.988 47.2407 54.4566 47.772C53.9253 48.3034 53.2046 48.6019 52.4532 48.6019H28.8125L23.1317 53.5797C23.1249 53.5871 23.1171 53.5937 23.1087 53.5992C22.5999 54.0314 21.9541 54.2686 21.2865 54.2686C20.8708 54.2678 20.4604 54.176 20.0841 53.9994C19.5947 53.7738 19.1806 53.412 18.8913 52.9573C18.6021 52.5026 18.45 51.9741 18.4532 51.4352V23.1019C18.4532 22.3504 18.7517 21.6298 19.283 21.0984C19.8144 20.5671 20.5351 20.2686 21.2865 20.2686H52.4532C53.2046 20.2686 53.9253 20.5671 54.4566 21.0984C54.988 21.6298 55.2865 22.3504 55.2865 23.1019Z" fill="white"/>
</svg>
