<svg width="24" height="24" viewBox="0 0 24 24" fill="none" xmlns="http://www.w3.org/2000/svg">
<g clip-path="url(#clip0_613_2218)">
<path d="M7.442 3.79688H17.558C19.7352 3.79688 21.5 5.56172 21.5 7.73887V17.8549C21.5 20.032 19.7352 21.7969 17.558 21.7969H7.442C5.26484 21.7969 3.5 20.032 3.5 17.8549V7.73887C3.5 5.56172 5.26484 3.79688 7.442 3.79688Z" fill="url(#paint0_linear_613_2218)"/>
<path d="M9.26801 16.8618L9.2697 16.8623L8.65425 17.9283C8.4296 18.3174 7.93207 18.4507 7.54296 18.226C7.15392 18.0014 7.02054 17.5039 7.24519 17.1147L7.69856 16.3295L7.74209 16.2541C7.81978 16.1425 8.01152 15.9497 8.39508 15.986C8.39508 15.986 9.29768 16.0839 9.363 16.553C9.363 16.553 9.37186 16.7074 9.26801 16.8618ZM17.9968 14.1393H16.0777C15.947 14.1305 15.89 14.0838 15.8675 14.0566L15.8661 14.0542L13.8117 10.496L13.8091 10.4977L13.6859 10.3211C13.4839 10.0123 13.1633 10.802 13.1633 10.802C12.7805 11.6821 13.2177 12.6825 13.37 12.9849L16.2235 17.9272C16.448 18.3162 16.9456 18.4496 17.3347 18.2249C17.7238 18.0003 17.8572 17.5027 17.6325 17.1136L16.919 15.8778C16.9051 15.8479 16.8811 15.7666 17.0274 15.7662H17.9968C18.4461 15.7662 18.8103 15.402 18.8103 14.9527C18.8103 14.5034 18.4461 14.1393 17.9968 14.1393ZM14.2693 15.2451C14.2693 15.2451 14.3717 15.7662 13.9754 15.7662H6.8809C6.4316 15.7662 6.06738 15.402 6.06738 14.9527C6.06738 14.5034 6.4316 14.1392 6.8809 14.1392H8.7048C8.99927 14.1222 9.06902 13.9522 9.06902 13.9522L9.07071 13.953L11.4515 9.82932L11.4508 9.82918C11.4942 9.74951 11.458 9.67421 11.4518 9.66233L10.6655 8.30044C10.4408 7.9114 10.5741 7.4138 10.9632 7.18922C11.3524 6.96458 11.8499 7.09782 12.0745 7.48693L12.4392 8.11854L12.8032 7.48805C13.0278 7.09901 13.5254 6.96563 13.9145 7.19035C14.3036 7.415 14.4369 7.91246 14.2122 8.30157L10.8993 14.0398C10.8848 14.0747 10.8803 14.1296 10.9881 14.1392H12.9684L12.9688 14.1585C12.9688 14.1585 14.1134 14.1763 14.2693 15.2451Z" fill="white"/>
</g>
<defs>
<linearGradient id="paint0_linear_613_2218" x1="903.5" y1="3.79688" x2="903.5" y2="1803.8" gradientUnits="userSpaceOnUse">
<stop stop-color="#17C9FB"/>
<stop offset="1" stop-color="#1A74E8"/>
</linearGradient>
<clipPath id="clip0_613_2218">
<rect width="18" height="18" fill="white" transform="translate(3.5 3.79688)"/>
</clipPath>
</defs>
</svg>
