<svg width="74" height="18" viewBox="0 0 74 18" fill="none" xmlns="http://www.w3.org/2000/svg">
<path d="M19.2614 6.37891H26.6826V7.76352H23.7646V15.5471H22.16V7.76352H19.2549V6.37891H19.2614ZM26.3656 8.90874H27.7373V10.1898H27.7632C27.8085 10.0087 27.8926 9.83398 28.0155 9.66575C28.1384 9.49753 28.2872 9.33578 28.4619 9.1999C28.6366 9.05756 28.8307 8.94756 29.0443 8.85698C29.2578 8.77287 29.4778 8.72758 29.6977 8.72758C29.866 8.72758 29.9889 8.73405 30.0536 8.74052C30.1183 8.74699 30.183 8.75993 30.2542 8.7664V10.1769C30.1507 10.1575 30.0471 10.1445 29.9371 10.1316C29.8271 10.1187 29.7236 10.1122 29.6201 10.1122C29.3742 10.1122 29.1413 10.164 28.9213 10.261C28.7013 10.3581 28.5137 10.5069 28.3519 10.6945C28.1902 10.8886 28.0608 11.1215 27.9637 11.4062C27.8667 11.6909 27.8214 12.0144 27.8214 12.3832V15.5407H26.3591V8.90874H26.3656ZM36.9767 15.5471H35.5403V14.6219H35.5144C35.3333 14.9584 35.068 15.2236 34.7121 15.4242C34.3563 15.6248 33.9939 15.7283 33.6251 15.7283C32.7517 15.7283 32.1176 15.5148 31.7294 15.0813C31.3412 14.6478 31.1471 13.9943 31.1471 13.1208V8.90874H32.6093V12.9785C32.6093 13.5608 32.7193 13.9749 32.9458 14.2143C33.1658 14.4537 33.4828 14.5766 33.8839 14.5766C34.1945 14.5766 34.4469 14.5313 34.6539 14.4343C34.8609 14.3372 35.0292 14.2143 35.1521 14.0525C35.2815 13.8972 35.3721 13.7031 35.4303 13.4832C35.4885 13.2632 35.5144 13.0238 35.5144 12.765V8.91521H36.9767V15.5471ZM39.4677 13.4185C39.513 13.8455 39.6748 14.1431 39.953 14.3178C40.2377 14.486 40.5741 14.5766 40.9688 14.5766C41.1047 14.5766 41.2599 14.5637 41.4346 14.5443C41.6093 14.5249 41.7776 14.4796 41.9264 14.4213C42.0817 14.3631 42.2046 14.2725 42.3081 14.1561C42.4052 14.0396 42.4505 13.8908 42.444 13.7031C42.4375 13.5155 42.3663 13.3602 42.2369 13.2438C42.1075 13.1208 41.9458 13.0302 41.7452 12.9526C41.5446 12.8814 41.3182 12.8167 41.0594 12.765C40.8006 12.7132 40.5418 12.655 40.2765 12.5967C40.0047 12.5385 39.7395 12.4609 39.4871 12.3768C39.2348 12.2926 39.0083 12.1762 38.8077 12.0274C38.6072 11.885 38.4454 11.6974 38.329 11.4709C38.206 11.2445 38.1478 10.9663 38.1478 10.6298C38.1478 10.2675 38.2384 9.96985 38.4131 9.72399C38.5878 9.47812 38.8142 9.28401 39.0795 9.1352C39.3512 8.98639 39.6489 8.88286 39.9789 8.81816C40.3088 8.75993 40.6259 8.72758 40.9235 8.72758C41.2664 8.72758 41.5964 8.7664 41.907 8.83757C42.2175 8.90874 42.5022 9.02521 42.7546 9.19343C43.0069 9.35519 43.2139 9.5687 43.3822 9.82751C43.5504 10.0863 43.6539 10.4034 43.6992 10.7722H42.1722C42.1011 10.4228 41.9458 10.1834 41.6934 10.0669C41.4411 9.94397 41.15 9.88574 40.8264 9.88574C40.7229 9.88574 40.6 9.89221 40.4576 9.91162C40.3153 9.93103 40.1859 9.96338 40.0565 10.0087C39.9336 10.054 39.83 10.1251 39.7395 10.2157C39.6553 10.3063 39.6101 10.4228 39.6101 10.5716C39.6101 10.7527 39.6748 10.8951 39.7977 11.0051C39.9206 11.1151 40.0824 11.2057 40.2829 11.2833C40.4835 11.3545 40.71 11.4192 40.9688 11.4709C41.2276 11.5227 41.4929 11.5809 41.7646 11.6392C42.0299 11.6974 42.2887 11.775 42.5475 11.8591C42.8063 11.9433 43.0328 12.0597 43.2333 12.2085C43.4339 12.3573 43.5957 12.5385 43.7186 12.7585C43.8415 12.9785 43.9062 13.2567 43.9062 13.5802C43.9062 13.9749 43.8157 14.3049 43.6345 14.5831C43.4533 14.8548 43.2204 15.0813 42.9357 15.2495C42.651 15.4177 42.3275 15.5471 41.9781 15.6248C41.6287 15.7024 41.2794 15.7412 40.9364 15.7412C40.5159 15.7412 40.1277 15.696 39.7718 15.5989C39.4159 15.5019 39.1054 15.3595 38.8466 15.1719C38.5878 14.9778 38.3807 14.7384 38.2319 14.4537C38.0831 14.169 38.0054 13.8261 37.9925 13.4314H39.4677V13.4185ZM44.2945 8.90874H45.4009V6.91593H46.8631V8.90874H48.183V10.0022H46.8631V13.5479C46.8631 13.7031 46.8696 13.8325 46.8825 13.949C46.8955 14.059 46.9278 14.1561 46.9731 14.2337C47.0184 14.3113 47.0896 14.3696 47.1866 14.4084C47.2837 14.4472 47.4066 14.4666 47.5748 14.4666C47.6784 14.4666 47.7819 14.4666 47.8854 14.4602C47.9889 14.4537 48.0925 14.4407 48.196 14.4149V15.5471C48.0342 15.5666 47.8725 15.5795 47.7236 15.5989C47.5684 15.6183 47.4131 15.6248 47.2513 15.6248C46.8631 15.6248 46.5525 15.586 46.3196 15.5148C46.0867 15.4436 45.8991 15.3336 45.7697 15.1913C45.6338 15.0489 45.5497 14.8742 45.4979 14.6607C45.4526 14.4472 45.4203 14.2013 45.4138 13.9296V10.0151H44.3074V8.90874H44.2945ZM49.2183 8.90874H50.6029V9.8081H50.6288C50.8358 9.41989 51.1205 9.14814 51.4893 8.97992C51.8581 8.81169 52.2528 8.72758 52.6863 8.72758C53.2104 8.72758 53.6633 8.81816 54.0515 9.0058C54.4397 9.18696 54.7632 9.4393 55.022 9.76281C55.2808 10.0863 55.4684 10.4616 55.5978 10.8886C55.7273 11.3156 55.792 11.775 55.792 12.2603C55.792 12.7067 55.7337 13.1402 55.6173 13.5543C55.5008 13.9749 55.3261 14.3437 55.0932 14.6672C54.8603 14.9907 54.5626 15.243 54.2003 15.4371C53.838 15.6313 53.4174 15.7283 52.9257 15.7283C52.7122 15.7283 52.4986 15.7089 52.2851 15.6701C52.0716 15.6313 51.8646 15.5666 51.6705 15.4824C51.4763 15.3983 51.2887 15.2883 51.127 15.1525C50.9587 15.0166 50.8229 14.8613 50.7064 14.6866H50.6805V17.9993H49.2183V8.90874ZM54.3297 12.2344C54.3297 11.9368 54.2909 11.6456 54.2132 11.3609C54.1356 11.0763 54.0191 10.8304 53.8638 10.6104C53.7086 10.3904 53.5145 10.2157 53.288 10.0863C53.0551 9.95691 52.7898 9.88574 52.4922 9.88574C51.8775 9.88574 51.4116 10.0993 51.1011 10.5263C50.7905 10.9533 50.6352 11.5227 50.6352 12.2344C50.6352 12.5709 50.674 12.8814 50.7582 13.1661C50.8423 13.4508 50.9587 13.6967 51.127 13.9037C51.2887 14.1108 51.4828 14.2725 51.7093 14.389C51.9357 14.5119 52.201 14.5701 52.4986 14.5701C52.8351 14.5701 53.1133 14.499 53.3462 14.3631C53.5792 14.2272 53.7668 14.0461 53.9156 13.8325C54.0644 13.6126 54.1744 13.3667 54.2391 13.0885C54.2973 12.8103 54.3297 12.5256 54.3297 12.2344ZM56.9113 6.37891H58.3736V7.76352H56.9113V6.37891ZM56.9113 8.90874H58.3736V15.5471H56.9113V8.90874ZM59.6805 6.37891H61.1428V15.5471H59.6805V6.37891ZM65.6266 15.7283C65.0961 15.7283 64.6237 15.6377 64.2097 15.463C63.7956 15.2883 63.4462 15.0425 63.155 14.7384C62.8703 14.4278 62.6503 14.059 62.5015 13.632C62.3527 13.2049 62.2751 12.7326 62.2751 12.2215C62.2751 11.7168 62.3527 11.2509 62.5015 10.8239C62.6503 10.3969 62.8703 10.0281 63.155 9.71752C63.4397 9.40695 63.7956 9.16755 64.2097 8.99286C64.6237 8.81816 65.0961 8.72758 65.6266 8.72758C66.1572 8.72758 66.6295 8.81816 67.0436 8.99286C67.4577 9.16755 67.8071 9.41342 68.0982 9.71752C68.3829 10.0281 68.6029 10.3969 68.7517 10.8239C68.9005 11.2509 68.9782 11.7168 68.9782 12.2215C68.9782 12.7326 68.9005 13.2049 68.7517 13.632C68.6029 14.059 68.3829 14.4278 68.0982 14.7384C67.8135 15.0489 67.4577 15.2883 67.0436 15.463C66.6295 15.6377 66.1572 15.7283 65.6266 15.7283ZM65.6266 14.5701C65.9501 14.5701 66.2348 14.499 66.4742 14.3631C66.7136 14.2272 66.9077 14.0461 67.063 13.8261C67.2183 13.6061 67.3283 13.3538 67.4059 13.0755C67.4771 12.7973 67.5159 12.5126 67.5159 12.2215C67.5159 11.9368 67.4771 11.6586 67.4059 11.3739C67.3348 11.0892 67.2183 10.8433 67.063 10.6233C66.9077 10.4034 66.7136 10.2287 66.4742 10.0928C66.2348 9.95691 65.9501 9.88574 65.6266 9.88574C65.3031 9.88574 65.0184 9.95691 64.779 10.0928C64.5396 10.2287 64.3455 10.4098 64.1902 10.6233C64.035 10.8433 63.925 11.0892 63.8473 11.3739C63.7761 11.6586 63.7373 11.9368 63.7373 12.2215C63.7373 12.5126 63.7761 12.7973 63.8473 13.0755C63.9185 13.3538 64.035 13.6061 64.1902 13.8261C64.3455 14.0461 64.5396 14.2272 64.779 14.3631C65.0184 14.5054 65.3031 14.5701 65.6266 14.5701ZM69.4052 8.90874H70.5116V6.91593H71.9739V8.90874H73.2938V10.0022H71.9739V13.5479C71.9739 13.7031 71.9803 13.8325 71.9933 13.949C72.0062 14.059 72.0386 14.1561 72.0839 14.2337C72.1291 14.3113 72.2003 14.3696 72.2974 14.4084C72.3944 14.4472 72.5174 14.4666 72.6856 14.4666C72.7891 14.4666 72.8926 14.4666 72.9961 14.4602C73.0997 14.4537 73.2032 14.4407 73.3067 14.4149V15.5471C73.145 15.5666 72.9832 15.5795 72.8344 15.5989C72.6791 15.6183 72.5238 15.6248 72.3621 15.6248C71.9739 15.6248 71.6633 15.586 71.4304 15.5148C71.1974 15.4436 71.0098 15.3336 70.8804 15.1913C70.7445 15.0489 70.6604 14.8742 70.6087 14.6607C70.5634 14.4472 70.531 14.2013 70.5245 13.9296V10.0151H69.4181V8.90874H69.4052Z" fill="#191919"/>
<path d="M17.5536 6.37959H10.8505L8.78003 0L6.7031 6.37959L0 6.37312L5.42848 10.3199L3.35155 16.693L8.78003 12.7527L14.202 16.693L12.1316 10.3199L17.5536 6.37959Z" fill="#00B67A"/>
<path d="M12.5977 11.7632L12.1318 10.3203L8.78027 12.7531L12.5977 11.7632Z" fill="#005128"/>
</svg>
