<svg width="220" height="48" viewBox="0 0 220 48" fill="none" xmlns="http://www.w3.org/2000/svg">
<g clip-path="url(#clip0_1460_57134)">
<path d="M45.7513 45.3157C45.5421 45.1065 45.4375 44.8451 45.4375 44.479V11.7943C45.4375 11.4282 45.5421 11.1667 45.7513 10.9575C45.9604 10.7483 46.2219 10.6438 46.588 10.6438H48.6798C49.0459 10.6438 49.3074 10.7483 49.5165 10.9575C49.7257 11.1667 49.8303 11.4282 49.8303 11.7943V13.9384C51.713 11.4282 54.4323 10.1731 57.9361 10.1731C61.3876 10.1731 63.9501 11.2713 65.6759 13.4677C67.4016 15.6641 68.2907 18.4358 68.3953 21.835C68.4476 22.2011 68.4476 22.7763 68.4476 23.5085C68.4476 24.2406 68.4476 24.8158 68.3953 25.1819C68.2907 28.5288 67.4016 31.3005 65.6759 33.4969C63.9501 35.6933 61.3876 36.7915 57.9361 36.7915C54.4323 36.7915 51.7653 35.5364 49.9349 33.0263V44.479C49.9349 44.7928 49.8303 45.0542 49.6211 45.3157C49.412 45.5249 49.1505 45.6295 48.7844 45.6295H46.588C46.2219 45.6295 45.9604 45.5249 45.7513 45.3157ZM62.1198 30.673C63.218 29.2087 63.7932 27.2738 63.8978 24.8682C63.9501 24.5544 63.9501 24.0837 63.9501 23.4562C63.9501 17.1284 61.5968 13.9907 56.9425 13.9907C54.6415 13.9907 52.9158 14.7751 51.7653 16.2917C50.6147 17.8082 49.9872 19.6386 49.9349 21.6781C49.8826 22.0442 49.8826 22.6717 49.8826 23.6131C49.8826 24.5544 49.8826 25.1819 49.9349 25.548C49.9872 27.5352 50.6148 29.261 51.8176 30.7253C53.0204 32.1895 54.7461 32.9217 56.9425 32.9217C59.2958 32.9217 61.0216 32.1895 62.1198 30.673Z" fill="black"/>
<path d="M72.9456 35.9545C72.7364 35.7453 72.6318 35.4838 72.6318 35.1177V11.7939C72.6318 11.4802 72.7364 11.1664 72.9456 10.9572C73.1548 10.748 73.4163 10.5911 73.7823 10.5911H75.8742C76.2402 10.5911 76.5017 10.6957 76.7109 10.9049C76.9201 11.1141 77.0247 11.4279 77.0247 11.7416V13.8857C78.3843 11.637 80.6331 10.5388 83.8754 10.5388H85.8103C86.1764 10.5388 86.4379 10.6434 86.647 10.8526C86.8562 11.0618 86.9608 11.3233 86.9608 11.6893V13.5197C86.9608 13.8334 86.8562 14.0949 86.647 14.3564C86.4379 14.5656 86.1764 14.6702 85.8103 14.6702H82.9864C81.156 14.6702 79.744 15.1931 78.7504 16.239C77.7045 17.285 77.1815 18.6969 77.1815 20.5273V35.0655C77.1815 35.3792 77.077 35.6407 76.8155 35.9022C76.6063 36.1114 76.2925 36.216 75.9788 36.216H73.7823C73.4163 36.2682 73.1548 36.1637 72.9456 35.9545Z" fill="black"/>
<path d="M90.7248 33.6015C88.7376 31.5097 87.6394 28.6857 87.4302 25.0773L87.3779 23.4039L87.4302 21.7827C87.6394 18.2266 88.7376 15.4027 90.7248 13.3108C92.7121 11.219 95.4315 10.1731 98.7784 10.1731C102.387 10.1731 105.211 11.3236 107.198 13.6246C109.185 15.9256 110.179 19.0633 110.179 22.9855V23.8745C110.179 24.1883 110.074 24.4498 109.865 24.7113C109.656 24.9204 109.394 25.025 109.028 25.025H91.9276V25.4434C92.0322 27.5875 92.6598 29.4179 93.9149 30.9344C95.17 32.451 96.7388 33.1832 98.7261 33.1832C100.295 33.1832 101.55 32.8694 102.491 32.2941C103.485 31.6666 104.217 31.039 104.688 30.4115C105.002 29.9931 105.211 29.7839 105.368 29.6793C105.524 29.5748 105.786 29.5748 106.204 29.5748H108.348C108.662 29.5748 108.924 29.6794 109.133 29.8362C109.342 29.9931 109.447 30.2023 109.447 30.4638C109.447 31.1959 109.028 32.0849 108.139 33.0786C107.25 34.0722 105.995 34.9612 104.374 35.6933C102.753 36.4255 100.87 36.7916 98.7784 36.7916C95.4315 36.7393 92.7644 35.6933 90.7248 33.6015ZM105.681 21.6258V21.4689C105.681 19.1679 105.054 17.2853 103.799 15.8733C102.544 14.409 100.87 13.7292 98.7784 13.7292C96.6343 13.7292 94.9608 14.4613 93.758 15.8733C92.5552 17.3376 91.9276 19.1679 91.9276 21.4689V21.6258H105.681Z" fill="black"/>
<path d="M117.669 36.0093C116.101 35.2772 114.95 34.4404 114.218 33.4991C113.486 32.5578 113.067 31.7734 113.067 31.1458C113.067 30.8321 113.172 30.5706 113.433 30.3614C113.643 30.2045 113.904 30.0999 114.166 30.0999H116.257C116.467 30.0999 116.623 30.1522 116.728 30.2045C116.833 30.2568 116.99 30.4137 117.199 30.6229C117.931 31.5642 118.82 32.244 119.761 32.767C120.703 33.2899 121.958 33.5514 123.526 33.5514C125.305 33.5514 126.717 33.2377 127.762 32.5578C128.808 31.878 129.384 30.9367 129.384 29.6816C129.384 28.8448 129.174 28.2173 128.704 27.6943C128.233 27.2237 127.501 26.753 126.403 26.3869C125.357 25.9686 123.736 25.5502 121.644 25.0795C118.768 24.452 116.78 23.563 115.578 22.3602C114.375 21.1574 113.8 19.6408 113.8 17.7582C113.8 16.5554 114.166 15.3526 114.898 14.2544C115.63 13.1039 116.676 12.2148 118.14 11.4827C119.552 10.8028 121.278 10.4368 123.265 10.4368C125.357 10.4368 127.083 10.8028 128.547 11.4827C130.011 12.1625 131.109 12.9993 131.842 13.8883C132.574 14.8296 132.94 15.5617 132.94 16.1893C132.94 16.5031 132.835 16.7122 132.626 16.9214C132.417 17.1306 132.155 17.2352 131.842 17.2352H129.959C129.488 17.2352 129.174 17.0783 128.965 16.7122C128.39 16.0847 127.919 15.614 127.553 15.248C127.187 14.8819 126.612 14.6204 125.88 14.3589C125.148 14.0975 124.259 13.9929 123.16 13.9929C121.539 13.9929 120.336 14.3066 119.447 14.9865C118.611 15.6663 118.192 16.5554 118.192 17.6536C118.192 18.3334 118.349 18.9087 118.715 19.3793C119.081 19.85 119.761 20.3206 120.807 20.6867C121.801 21.1051 123.317 21.5234 125.357 21.9418C128.495 22.6216 130.691 23.5107 131.998 24.7658C133.306 25.9686 133.933 27.5374 133.933 29.4724C133.933 30.8843 133.515 32.1394 132.731 33.2899C131.946 34.4405 130.743 35.3295 129.122 36.0093C127.553 36.6892 125.618 37.0029 123.422 37.0029C121.121 37.1075 119.238 36.7414 117.669 36.0093Z" fill="black"/>
<path d="M139.308 27.6396V14.4611H135.438C135.124 14.4611 134.863 14.3566 134.654 14.1474C134.444 13.9382 134.34 13.6767 134.34 13.3629V11.7941C134.34 11.4803 134.444 11.2188 134.654 11.0096C134.863 10.8005 135.124 10.6959 135.438 10.6959H139.308V2.48545C139.308 2.17168 139.413 1.9102 139.622 1.64872C139.831 1.43954 140.092 1.33496 140.406 1.33496H142.55C142.864 1.33496 143.125 1.43954 143.387 1.64872C143.596 1.8579 143.701 2.11939 143.701 2.48545V10.6436H149.819C150.133 10.6436 150.395 10.7482 150.656 10.9573C150.865 11.1665 150.97 11.428 150.97 11.7418V13.3106C150.97 13.6244 150.865 13.8859 150.656 14.0951C150.447 14.3043 150.185 14.4089 149.819 14.4089H143.701V27.2736C143.701 28.947 143.962 30.2021 144.537 31.0388C145.06 31.8756 146.002 32.3462 147.309 32.3462H150.29C150.604 32.3462 150.865 32.4508 151.074 32.66C151.284 32.8692 151.388 33.1307 151.388 33.4967V35.1179C151.388 35.4317 151.284 35.6931 151.074 35.9546C150.865 36.1638 150.604 36.2684 150.29 36.2684H146.943C141.87 36.2684 139.308 33.3921 139.308 27.6396Z" fill="black"/>
<path d="M154.526 35.9546C154.316 35.7454 154.212 35.484 154.212 35.1179V11.7418C154.212 11.428 154.316 11.1665 154.526 10.9573C154.735 10.7482 154.996 10.6436 155.362 10.6436H157.454C157.768 10.6436 158.029 10.7482 158.239 10.9573C158.448 11.1665 158.552 11.428 158.552 11.7418V13.4152C160.33 11.2188 162.736 10.1206 165.769 10.1206C169.378 10.1206 171.94 11.6372 173.457 14.6703C174.241 13.3106 175.392 12.2124 176.856 11.3757C178.32 10.539 179.941 10.1206 181.772 10.1206C184.439 10.1206 186.687 11.0619 188.361 12.8923C190.087 14.7226 190.923 17.3897 190.923 20.8935V35.1179C190.923 35.4317 190.819 35.6931 190.61 35.9546C190.4 36.1638 190.139 36.2684 189.773 36.2684H187.629C187.315 36.2684 187.054 36.1638 186.792 35.9546C186.583 35.7454 186.478 35.484 186.478 35.1179V21.3119C186.478 18.6971 185.955 16.8144 184.857 15.6639C183.759 14.5134 182.347 13.9905 180.569 13.9905C179 13.9905 177.64 14.5657 176.49 15.7162C175.339 16.8667 174.816 18.7494 174.816 21.3119V35.1179C174.816 35.4317 174.712 35.6931 174.503 35.9546C174.293 36.1638 174.032 36.2684 173.666 36.2684H171.522C171.208 36.2684 170.947 36.1638 170.685 35.9546C170.476 35.7454 170.371 35.484 170.371 35.1179V21.3119C170.371 18.6971 169.796 16.8667 168.698 15.7162C167.547 14.5657 166.135 13.9905 164.462 13.9905C162.893 13.9905 161.533 14.5657 160.383 15.7162C159.232 16.8667 158.709 18.6971 158.709 21.2596V35.1179C158.709 35.4317 158.605 35.6931 158.396 35.9546C158.186 36.1638 157.925 36.2684 157.559 36.2684H155.415C154.996 36.2684 154.735 36.1638 154.526 35.9546Z" fill="black"/>
<path d="M195.839 5.51804C195.63 5.30885 195.525 5.04737 195.525 4.6813V2.11882C195.525 1.80505 195.63 1.49127 195.839 1.28209C196.048 1.07291 196.31 0.916016 196.676 0.916016H199.604C199.918 0.916016 200.232 1.02061 200.441 1.28209C200.65 1.49127 200.807 1.80505 200.807 2.11882V4.6813C200.807 4.99508 200.703 5.25656 200.441 5.51804C200.232 5.72722 199.918 5.8318 199.604 5.8318H196.676C196.31 5.8318 196.048 5.72722 195.839 5.51804ZM196.258 35.9541C196.048 35.7449 195.944 35.4834 195.944 35.1173V11.7412C195.944 11.4274 196.048 11.166 196.258 10.9568C196.467 10.7476 196.728 10.643 197.094 10.643H199.238C199.552 10.643 199.814 10.7476 200.075 10.9568C200.284 11.166 200.389 11.4274 200.389 11.7412V35.1173C200.389 35.4311 200.284 35.6926 200.075 35.9541C199.866 36.1632 199.604 36.2678 199.238 36.2678H197.094C196.728 36.2678 196.467 36.1632 196.258 35.9541Z" fill="black"/>
<path d="M207.919 27.6396V14.4611H204.049C203.736 14.4611 203.474 14.3566 203.265 14.1474C203.056 13.9382 202.951 13.6767 202.951 13.3629V11.7941C202.951 11.4803 203.056 11.2188 203.265 11.0096C203.474 10.8005 203.736 10.6959 204.049 10.6959H207.919V2.48545C207.919 2.17168 208.024 1.9102 208.233 1.64872C208.442 1.43954 208.704 1.33496 209.017 1.33496H211.162C211.475 1.33496 211.737 1.43954 211.998 1.64872C212.207 1.8579 212.312 2.11939 212.312 2.48545V10.6436H218.431C218.744 10.6436 219.006 10.7482 219.267 10.9573C219.477 11.1665 219.581 11.428 219.581 11.7418V13.3106C219.581 13.6244 219.477 13.8859 219.267 14.0951C219.058 14.3043 218.797 14.4089 218.431 14.4089H212.312V27.2736C212.312 28.947 212.574 30.2021 213.149 31.0388C213.672 31.8756 214.613 32.3462 215.92 32.3462H218.901C219.215 32.3462 219.477 32.4508 219.686 32.66C219.895 32.8692 220 33.1307 220 33.4967V35.1179C220 35.4317 219.895 35.6931 219.686 35.9546C219.477 36.1638 219.215 36.2684 218.901 36.2684H215.554C210.482 36.2684 207.919 33.3921 207.919 27.6396Z" fill="black"/>
<path d="M31.4325 5.13844V25.5656C31.4325 27.886 29.8753 29.9169 27.6295 30.5222L19.2736 32.7636L2.5353 37.2464C0.842177 37.6982 0 39.1238 0 40.5537V9.49846C0 8.06852 0.842177 6.64734 2.5353 6.19116L24.9758 0.177496C28.2348 -0.695385 31.4325 1.76096 31.4325 5.13844Z" fill="#0F6EFE"/>
<path d="M19.2779 32.7588V43.8825C19.2779 46.1327 17.1462 47.7688 14.9706 47.1898L2.5353 43.8562C0.842177 43.4044 0 41.9789 0 40.5533C0 39.1234 0.842177 37.7022 2.5353 37.246L19.2779 32.7588Z" fill="#55E5F3"/>
</g>
<defs>
<clipPath id="clip0_1460_57134">
<rect width="220" height="48" fill="white"/>
</clipPath>
</defs>
</svg>
