<svg width="24" height="24" viewBox="0 0 24 24" fill="none" xmlns="http://www.w3.org/2000/svg">
<path d="M12 2C6.48571 2 2 6.49611 2 12.0244C2.55357 25.3271 21.45 25.3234 22 12.0244C22 6.49611 17.5143 2 12 2ZM16.4071 18.0167H9.45714C9.37154 18.0162 9.28729 17.9946 9.21134 17.9535C9.13539 17.9125 9.06993 17.8532 9.02037 17.7807C8.97082 17.7081 8.93859 17.6243 8.92635 17.5362C8.91411 17.4482 8.92222 17.3583 8.95 17.2742L10.4607 12.4922L7.66429 12.8969C7.52221 12.917 7.37823 12.8777 7.26403 12.7876C7.14984 12.6974 7.07478 12.5638 7.05536 12.4161C7.03594 12.2684 7.07376 12.1187 7.16049 12C7.24723 11.8813 7.37578 11.8032 7.51786 11.783L10.8321 11.3041L12.3821 6.39587C12.4267 6.25555 12.523 6.13937 12.6499 6.07287C12.7768 6.00638 12.924 5.99502 13.0589 6.0413C13.1939 6.08758 13.3057 6.18771 13.3696 6.31965C13.4336 6.4516 13.4445 6.60455 13.4 6.74487L12 11.1556L15.1321 10.7026C15.2742 10.6824 15.4182 10.7218 15.5324 10.8119C15.6466 10.9021 15.7217 11.0357 15.7411 11.1834C15.7605 11.3311 15.7227 11.4808 15.6359 11.5995C15.5492 11.7182 15.4207 11.7963 15.2786 11.8165L11.6429 12.3325L10.2143 16.9029H16.4071C16.5492 16.9029 16.6855 16.9616 16.786 17.066C16.8864 17.1704 16.9429 17.3121 16.9429 17.4598C16.9429 17.6075 16.8864 17.7492 16.786 17.8536C16.6855 17.958 16.5492 18.0167 16.4071 18.0167Z" fill="url(#paint0_linear_2103_9320)"/>
<defs>
<linearGradient id="paint0_linear_2103_9320" x1="2" y1="11.9984" x2="22" y2="11.9984" gradientUnits="userSpaceOnUse">
<stop stop-color="#00C0FF"/>
<stop offset="1" stop-color="#5558FF"/>
</linearGradient>
</defs>
</svg>
