<svg width="246" height="245" viewBox="0 0 246 245" fill="none" xmlns="http://www.w3.org/2000/svg">
<rect x="0.412109" width="245" height="245" rx="24.5" fill="#E4ECFB"/>
<path d="M52.2417 137.442C51.927 137.442 51.6596 137.348 51.4393 137.159C51.2505 136.939 51.1561 136.671 51.1561 136.357V126.539H41.4801C41.1654 126.539 40.898 126.445 40.6777 126.256C40.4889 126.036 40.3945 125.768 40.3945 125.454V123.943C40.3945 123.629 40.4889 123.377 40.6777 123.188C40.898 122.968 41.1654 122.858 41.4801 122.858H51.1561V113.323C51.1561 113.009 51.2505 112.757 51.4393 112.568C51.6596 112.348 51.927 112.238 52.2417 112.238H53.8937C54.2084 112.238 54.4601 112.348 54.6489 112.568C54.8692 112.757 54.9793 113.009 54.9793 113.323V122.858H64.7025C65.0172 122.858 65.2689 122.968 65.4577 123.188C65.678 123.377 65.7881 123.629 65.7881 123.943V125.454C65.7881 125.768 65.678 126.036 65.4577 126.256C65.2689 126.445 65.0172 126.539 64.7025 126.539H54.9793V136.357C54.9793 136.671 54.8692 136.939 54.6489 137.159C54.4601 137.348 54.2084 137.442 53.8937 137.442H52.2417ZM84.5354 139C84.2207 139 83.9532 138.906 83.733 138.717C83.5442 138.497 83.4498 138.229 83.4498 137.914V107.093C83.4498 106.747 83.5442 106.479 83.733 106.29C83.9532 106.07 84.2207 105.96 84.5354 105.96H86.8954C87.273 105.96 87.5562 106.054 87.745 106.243C87.9338 106.432 88.0439 106.589 88.0754 106.715L98.0818 125.784L108.135 106.715C108.198 106.589 108.308 106.432 108.466 106.243C108.655 106.054 108.938 105.96 109.315 105.96H111.628C111.974 105.96 112.242 106.07 112.431 106.29C112.651 106.479 112.761 106.747 112.761 107.093V137.914C112.761 138.229 112.651 138.497 112.431 138.717C112.242 138.906 111.974 139 111.628 139H109.315C109.001 139 108.733 138.906 108.513 138.717C108.324 138.497 108.23 138.229 108.23 137.914V114.692L100.347 130.079C100.221 130.394 100.033 130.646 99.781 130.834C99.5292 130.992 99.2146 131.07 98.837 131.07H97.3738C96.9647 131.07 96.6343 130.992 96.3826 130.834C96.1623 130.646 95.9735 130.394 95.8162 130.079L87.9338 114.692V137.914C87.9338 138.229 87.8236 138.497 87.6034 138.717C87.4146 138.906 87.1628 139 86.8482 139H84.5354ZM132.771 139.472C130.097 139.472 127.799 139.016 125.88 138.103C123.961 137.159 122.482 135.727 121.443 133.808C120.405 131.857 119.823 129.418 119.697 126.492C119.665 125.107 119.65 123.786 119.65 122.527C119.65 121.237 119.665 119.9 119.697 118.515C119.823 115.62 120.421 113.213 121.49 111.294C122.592 109.343 124.102 107.895 126.022 106.951C127.973 105.976 130.222 105.488 132.771 105.488C135.351 105.488 137.601 105.976 139.521 106.951C141.472 107.895 142.998 109.343 144.099 111.294C145.201 113.213 145.798 115.62 145.893 118.515C145.956 119.9 145.987 121.237 145.987 122.527C145.987 123.786 145.956 125.107 145.893 126.492C145.798 129.418 145.216 131.857 144.146 133.808C143.108 135.727 141.629 137.159 139.71 138.103C137.79 139.016 135.477 139.472 132.771 139.472ZM132.771 135.46C135.194 135.46 137.161 134.736 138.671 133.289C140.213 131.841 141.047 129.497 141.173 126.256C141.236 124.84 141.267 123.581 141.267 122.48C141.267 121.347 141.236 120.089 141.173 118.704C141.11 116.533 140.701 114.771 139.946 113.418C139.222 112.065 138.246 111.073 137.019 110.444C135.792 109.815 134.376 109.5 132.771 109.5C131.229 109.5 129.845 109.815 128.618 110.444C127.39 111.073 126.399 112.065 125.644 113.418C124.92 114.771 124.511 116.533 124.417 118.704C124.385 120.089 124.37 121.347 124.37 122.48C124.37 123.581 124.385 124.84 124.417 126.256C124.543 129.497 125.377 131.841 126.918 133.289C128.46 134.736 130.411 135.46 132.771 135.46ZM153.953 139C153.606 139 153.339 138.906 153.15 138.717C152.961 138.497 152.867 138.229 152.867 137.914V107.093C152.867 106.747 152.961 106.479 153.15 106.29C153.339 106.07 153.606 105.96 153.953 105.96H165.469C169.025 105.96 171.841 106.794 173.918 108.462C175.995 110.129 177.033 112.599 177.033 115.872C177.033 118.295 176.42 120.277 175.193 121.819C173.997 123.33 172.361 124.384 170.284 124.982L177.553 137.537C177.647 137.726 177.694 137.899 177.694 138.056C177.694 138.308 177.584 138.528 177.364 138.717C177.175 138.906 176.955 139 176.703 139H174.437C173.902 139 173.509 138.858 173.257 138.575C173.006 138.292 172.785 138.009 172.597 137.726L165.753 125.737H157.493V137.914C157.493 138.229 157.382 138.497 157.162 138.717C156.973 138.906 156.706 139 156.36 139H153.953ZM157.493 121.725H165.281C167.641 121.725 169.403 121.237 170.567 120.262C171.731 119.255 172.313 117.776 172.313 115.825C172.313 113.905 171.731 112.442 170.567 111.435C169.434 110.428 167.672 109.925 165.281 109.925H157.493V121.725ZM184.881 139C184.535 139 184.268 138.906 184.079 138.717C183.89 138.497 183.796 138.229 183.796 137.914V107.093C183.796 106.747 183.89 106.479 184.079 106.29C184.268 106.07 184.535 105.96 184.881 105.96H204.375C204.721 105.96 204.989 106.07 205.177 106.29C205.366 106.479 205.461 106.747 205.461 107.093V108.886C205.461 109.233 205.366 109.5 205.177 109.689C204.989 109.878 204.721 109.972 204.375 109.972H188.327V120.309H203.337C203.683 120.309 203.95 120.419 204.139 120.639C204.328 120.828 204.422 121.095 204.422 121.442V123.188C204.422 123.503 204.328 123.77 204.139 123.99C203.95 124.179 203.683 124.274 203.337 124.274H188.327V134.988H204.753C205.099 134.988 205.366 135.082 205.555 135.271C205.744 135.46 205.838 135.727 205.838 136.074V137.914C205.838 138.229 205.744 138.497 205.555 138.717C205.366 138.906 205.099 139 204.753 139H184.881Z" fill="#326CF6"/>
</svg>
