<svg width="40" height="40" viewBox="0 0 40 40" fill="none" xmlns="http://www.w3.org/2000/svg">
<rect width="40" height="40" rx="8" fill="#FFF5E6"/>
<path fill-rule="evenodd" clip-rule="evenodd" d="M16.375 20.3388L19.1941 27.3299L26.2477 27.302L29.9993 20.326L29.9992 10.6127C29.9993 10.2752 29.724 10 29.3865 10H20.5108L16.375 14.1358V20.3388Z" fill="#FFDAAA"/>
<path d="M23.3675 24.1143C24.4036 24.1143 25.2434 23.7356 25.2434 23.2683C25.2434 22.8011 24.4036 22.4224 23.3675 22.4224C22.3315 22.4224 21.4917 22.8011 21.4917 23.2683C21.4917 23.7356 22.3315 24.1143 23.3675 24.1143Z" fill="#FFD900"/>
<path fill-rule="evenodd" clip-rule="evenodd" d="M20.5108 10V13.5231C20.5108 13.8606 20.2356 14.1358 19.8981 14.1358H16.375L20.5108 10Z" fill="#FFB655"/>
<path d="M21.6798 12.2766C21.5565 12.2766 21.4565 12.3766 21.4565 12.4998C21.4565 12.6231 21.5565 12.723 21.6798 12.723H24.9478C25.071 12.723 25.171 12.6231 25.171 12.4998C25.171 12.3766 25.071 12.2766 24.9478 12.2766H21.6798Z" fill="#4E901E"/>
<path d="M21.6798 13.9126C21.5565 13.9126 21.4565 14.0125 21.4565 14.1358C21.4565 14.2591 21.5565 14.359 21.6798 14.359H27.2967C27.4199 14.359 27.5199 14.2591 27.5199 14.1358C27.5199 14.0125 27.4199 13.9126 27.2967 13.9126H21.6798Z" fill="#4E901E"/>
<path d="M24.1526 17.1965C24.1526 17.3197 24.2525 17.4197 24.3758 17.4197C24.499 17.4197 24.599 17.3197 24.599 17.1965C24.599 16.8565 24.4611 16.5486 24.2383 16.3258C24.0155 16.1029 23.7076 15.9651 23.3676 15.9651C23.0276 15.9651 22.7197 16.1029 22.4969 16.3258C22.2741 16.5486 22.1362 16.8565 22.1362 17.1965C22.1362 17.5364 22.2741 17.8443 22.4969 18.0672C22.7198 18.29 23.0276 18.4278 23.3676 18.4278C23.5844 18.4278 23.7806 18.5157 23.9227 18.6577C24.0647 18.7997 24.1526 18.996 24.1526 19.2128C24.1526 19.4295 24.0647 19.6258 23.9227 19.7678C23.7806 19.9098 23.5844 19.9977 23.3676 19.9977C23.1508 19.9977 22.9546 19.9098 22.8126 19.7678C22.6705 19.6258 22.5827 19.4295 22.5827 19.2128C22.5827 19.0895 22.4827 18.9896 22.3594 18.9896C22.2362 18.9896 22.1362 19.0895 22.1362 19.2128C22.1362 19.5528 22.2741 19.8606 22.4969 20.0835C22.7198 20.3063 23.0276 20.4441 23.3676 20.4441C23.7076 20.4441 24.0155 20.3063 24.2383 20.0835C24.4611 19.8606 24.599 19.5528 24.599 19.2128C24.599 18.8728 24.4611 18.5649 24.2383 18.3421C24.0155 18.1193 23.7076 17.9814 23.3676 17.9814C23.1508 17.9814 22.9546 17.8935 22.8126 17.7515C22.6705 17.6095 22.5827 17.4132 22.5827 17.1965C22.5827 16.9797 22.6705 16.7834 22.8125 16.6414C22.9546 16.4994 23.1508 16.4115 23.3676 16.4115C23.5844 16.4115 23.7806 16.4994 23.9227 16.6414C24.0647 16.7834 24.1526 16.9797 24.1526 17.1965Z" fill="#4E901E"/>
<path d="M23.591 15.5518C23.591 15.4286 23.491 15.3286 23.3677 15.3286C23.2445 15.3286 23.1445 15.4286 23.1445 15.5518V20.8575C23.1445 20.9808 23.2445 21.0807 23.3677 21.0807C23.491 21.0807 23.591 20.9808 23.591 20.8575V15.5518Z" fill="#4E901E"/>
<path d="M25.4361 16.6335C25.3128 16.6335 25.2129 16.7335 25.2129 16.8568C25.2129 16.98 25.3128 17.08 25.4361 17.08H28.6168C28.74 17.08 28.84 16.98 28.84 16.8568C28.84 16.7335 28.74 16.6335 28.6168 16.6335H25.4361Z" fill="#4E901E"/>
<path d="M25.4361 18.0286C25.3128 18.0286 25.2129 18.1285 25.2129 18.2518C25.2129 18.3751 25.3128 18.475 25.4361 18.475H28.6168C28.74 18.475 28.84 18.3751 28.84 18.2518C28.84 18.1285 28.74 18.0286 28.6168 18.0286H25.4361Z" fill="#4E901E"/>
<path fill-rule="evenodd" clip-rule="evenodd" d="M26.2476 20.3252V21.964C26.2476 22.4313 27.0875 22.8101 28.1237 22.8101C29.1598 22.8101 29.9997 22.4313 29.9997 21.964V20.3252H26.2476ZM26.2476 23.1007V24.907C26.2476 25.3742 27.0875 25.753 28.1237 25.753C29.1598 25.753 29.9997 25.3742 29.9997 24.907V23.1007C29.9997 23.5679 29.1598 23.9468 28.1237 23.9468C27.0875 23.9468 26.2476 23.5679 26.2476 23.1007ZM26.2476 26.0436V27.8499C26.2476 28.3171 27.0875 28.696 28.1237 28.696C29.1598 28.696 29.9997 28.3171 29.9997 27.8499V26.0436C29.9997 26.5109 29.1598 26.8897 28.1237 26.8897C27.0875 26.8897 26.2476 26.5109 26.2476 26.0436Z" fill="#FF9801"/>
<path d="M28.1232 21.1715C29.1593 21.1715 29.9993 20.7927 29.9993 20.3254C29.9993 19.8581 29.1593 19.4792 28.1232 19.4792C27.087 19.4792 26.2471 19.8581 26.2471 20.3254C26.2471 20.7927 27.087 21.1715 28.1232 21.1715Z" fill="#FFD900"/>
<path fill-rule="evenodd" clip-rule="evenodd" d="M28.1237 24.1142C29.1598 24.1142 29.9997 23.7353 29.9997 23.2681V21.7966C29.9997 22.2639 29.1598 22.6427 28.1237 22.6427C27.0875 22.6427 26.2476 22.2639 26.2476 21.7966V23.2681C26.2476 23.7353 27.0875 24.1142 28.1237 24.1142Z" fill="#FFD900"/>
<path fill-rule="evenodd" clip-rule="evenodd" d="M29.9997 26.211V24.7395C29.9997 25.2068 29.1598 25.5856 28.1237 25.5856C27.0875 25.5856 26.2476 25.2068 26.2476 24.7395V26.211C26.2476 26.6782 27.0875 27.057 28.1237 27.057C29.1598 27.057 29.9997 26.6782 29.9997 26.211Z" fill="#FFD900"/>
<path fill-rule="evenodd" clip-rule="evenodd" d="M29.9997 29.1538V27.6824C29.9997 28.1496 29.1598 28.5284 28.1237 28.5284C27.0875 28.5284 26.2476 28.1496 26.2476 27.6824V29.1538C26.2476 29.6211 27.0875 29.9999 28.1237 29.9999C29.1598 29.9999 29.9997 29.6211 29.9997 29.1538Z" fill="#FFD900"/>
<path fill-rule="evenodd" clip-rule="evenodd" d="M21.4917 26.0437V27.85C21.4917 28.3172 22.3317 28.696 23.3678 28.696C24.4039 28.696 25.2439 28.3172 25.2439 27.85V26.0437C25.2439 26.511 24.4039 26.8898 23.3678 26.8898C22.3317 26.8898 21.4917 26.511 21.4917 26.0437Z" fill="#FF9801"/>
<path fill-rule="evenodd" clip-rule="evenodd" d="M21.4917 23.1008V24.9071C21.4917 25.3744 22.3317 25.7532 23.3678 25.7532C24.4039 25.7532 25.2439 25.3744 25.2439 24.9071V23.1008C25.2439 23.5681 24.4039 23.9469 23.3678 23.9469C22.3317 23.9469 21.4917 23.5681 21.4917 23.1008Z" fill="#FF9801"/>
<path fill-rule="evenodd" clip-rule="evenodd" d="M25.2439 26.211V24.7395C25.2439 25.2068 24.4039 25.5856 23.3678 25.5856C22.3317 25.5856 21.4917 25.2068 21.4917 24.7395V26.211C21.4917 26.6782 22.3317 27.057 23.3678 27.057C24.4039 27.057 25.2439 26.6782 25.2439 26.211Z" fill="#FFD900"/>
<path fill-rule="evenodd" clip-rule="evenodd" d="M25.2439 29.1538V27.6824C25.2439 28.1496 24.4039 28.5284 23.3678 28.5284C22.3317 28.5284 21.4917 28.1496 21.4917 27.6824V29.1538C21.4917 29.6211 22.3317 29.9999 23.3678 29.9999C24.4039 29.9999 25.2439 29.6211 25.2439 29.1538Z" fill="#FFD900"/>
<path d="M15.0668 29.9998C17.8651 29.9998 20.1336 27.7313 20.1336 24.933C20.1336 22.1347 17.8651 19.8662 15.0668 19.8662C12.2685 19.8662 10 22.1347 10 24.933C10 27.7313 12.2685 29.9998 15.0668 29.9998Z" fill="#83CA52"/>
<path d="M16.9424 22.2398C17.0188 22.1067 16.9729 21.9369 16.8399 21.8605C16.7069 21.784 16.5371 21.8299 16.4606 21.9629L13.1908 27.6264C13.1144 27.7595 13.1602 27.9293 13.2932 28.0057C13.4262 28.0822 13.5961 28.0363 13.6725 27.9033L16.9424 22.2398Z" fill="#5F8D3F"/>
<path d="M13.2871 22.3418C13.6046 22.3418 13.892 22.4705 14.1001 22.6786C14.3082 22.8867 14.4369 23.1742 14.4369 23.4917C14.4369 23.8091 14.3082 24.0966 14.1001 24.3047C13.892 24.5128 13.6045 24.6415 13.2871 24.6415C12.9696 24.6415 12.6821 24.5128 12.474 24.3047C12.2659 24.0966 12.1372 23.8091 12.1372 23.4917C12.1372 23.1742 12.2659 22.8867 12.474 22.6786C12.6821 22.4705 12.9696 22.3418 13.2871 22.3418ZM13.7056 23.0731C13.5985 22.9661 13.4505 22.8998 13.2871 22.8998C13.1236 22.8998 12.9756 22.9661 12.8685 23.0731C12.7615 23.1802 12.6952 23.3282 12.6952 23.4917C12.6952 23.6551 12.7615 23.8031 12.8686 23.9102C12.9756 24.0172 13.1236 24.0835 13.2871 24.0835C13.4505 24.0835 13.5985 24.0172 13.7056 23.9102C13.8127 23.8031 13.8789 23.6551 13.8789 23.4917C13.8789 23.3282 13.8127 23.1802 13.7056 23.0731Z" fill="#5F8D3F"/>
<path d="M16.8462 25.2244C17.1636 25.2244 17.4511 25.3531 17.6592 25.5612C17.8673 25.7693 17.996 26.0567 17.996 26.3742C17.996 26.6917 17.8673 26.9792 17.6592 27.1873C17.4511 27.3954 17.1636 27.5241 16.8462 27.5241C16.5287 27.5241 16.2412 27.3954 16.0331 27.1873C15.825 26.9792 15.6963 26.6917 15.6963 26.3742C15.6963 26.0568 15.825 25.7693 16.0331 25.5612C16.2412 25.3531 16.5287 25.2244 16.8462 25.2244ZM17.2647 25.9557C17.1576 25.8486 17.0096 25.7824 16.8462 25.7824C16.6827 25.7824 16.5347 25.8486 16.4276 25.9557C16.3206 26.0628 16.2543 26.2108 16.2543 26.3742C16.2543 26.5377 16.3206 26.6857 16.4276 26.7927C16.5347 26.8998 16.6827 26.9661 16.8462 26.9661C17.0096 26.9661 17.1576 26.8998 17.2647 26.7928C17.3717 26.6857 17.438 26.5377 17.438 26.3742C17.438 26.2108 17.3717 26.0628 17.2647 25.9557Z" fill="#5F8D3F"/>
<path d="M21.2994 16.6335C21.4227 16.6335 21.5226 16.7335 21.5226 16.8568C21.5226 16.98 21.4227 17.08 21.2994 17.08H18.1187C17.9954 17.08 17.8955 16.98 17.8955 16.8568C17.8955 16.7335 17.9954 16.6335 18.1187 16.6335H21.2994Z" fill="#4E901E"/>
<path d="M21.2994 18.0286C21.4227 18.0286 21.5226 18.1285 21.5226 18.2518C21.5226 18.3751 21.4227 18.475 21.2994 18.475H18.1187C17.9954 18.475 17.8955 18.3751 17.8955 18.2518C17.8955 18.1285 17.9954 18.0286 18.1187 18.0286H21.2994Z" fill="#4E901E"/>
</svg>
