<svg width="40" height="40" viewBox="0 0 40 40" fill="none" xmlns="http://www.w3.org/2000/svg">
<rect width="40" height="40" rx="8" fill="#F3FCFD"/>
<g clip-path="url(#clip0_25_392059)">
<path d="M11.9113 15.0586C12.2053 15.0586 12.4437 15.297 12.4437 15.591V18.7413H11.3789V15.591C11.3789 15.297 11.6173 15.0586 11.9113 15.0586Z" fill="#FDDF7F"/>
<path d="M28.089 15.0586C27.795 15.0586 27.5566 15.297 27.5566 15.591V18.7413H28.6215V15.591C28.6214 15.297 28.3831 15.0586 28.089 15.0586Z" fill="#FDDF7F"/>
<path d="M13.3842 29.8V22.9317C13.3842 22.5171 13.2196 22.1195 12.9264 21.8263L10.7718 19.6717C10.4786 19.3786 10.314 18.981 10.314 18.5664V15.591C10.314 15.297 10.5523 15.0586 10.8464 15.0586C11.1404 15.0586 11.3788 15.297 11.3788 15.591V17.1423C11.3788 17.6201 11.5973 18.0717 11.972 18.3682L15.0276 20.7859C15.4008 21.0812 15.6192 21.5304 15.6209 22.0063L15.6279 29.8" fill="#FDDF7F"/>
<path d="M26.6158 29.8V22.9317C26.6158 22.5171 26.7804 22.1195 27.0736 21.8263L29.2282 19.6717C29.5213 19.3786 29.686 18.981 29.686 18.5664V15.591C29.686 15.297 29.4477 15.0586 29.1536 15.0586C28.8596 15.0586 28.6212 15.297 28.6212 15.591V17.1423C28.6212 17.6201 28.4027 18.0717 28.028 18.3682L24.9723 20.7859C24.5991 21.0812 24.3808 21.5304 24.3791 22.0063L24.3721 29.8" fill="#FDDF7F"/>
<path d="M13.3843 26.52V29.8H15.628L15.625 26.52H13.3843Z" fill="#AAB1BA"/>
<path d="M13.3843 26.52V25.46H15.628L15.625 26.52H13.3843Z" fill="#ECF4F7"/>
<path d="M24.3721 26.52V25.46H26.6158L26.6128 26.52H24.3721Z" fill="#ECF4F7"/>
<path d="M26.4701 19.2869H13.5297C12.93 19.2869 12.4438 18.8008 12.4438 18.201V11.2858C12.4438 10.6861 12.93 10.2 13.5297 10.2H26.4701C27.0698 10.2 27.556 10.6861 27.556 11.2858V18.201C27.556 18.8008 27.0698 19.2869 26.4701 19.2869Z" fill="#83E1E5"/>
<path d="M24.375 26.52L24.3721 29.8H26.6158V26.52H24.375Z" fill="#AAB1BA"/>
<path d="M25.4648 16.4042H25.3529H25.241C25.2012 16.4042 25.1688 16.3718 25.1688 16.332V16.0673C25.1688 16.0275 25.2012 15.9951 25.241 15.9951H25.7702C25.8989 15.9951 26.0032 15.8907 26.0032 15.762C26.0032 15.6332 25.8989 15.5288 25.7702 15.5288H25.6242V15.2918C25.6242 15.163 25.5198 15.0586 25.3911 15.0586C25.2624 15.0586 25.158 15.163 25.158 15.2918V15.5352C24.9004 15.5752 24.7027 15.7986 24.7027 16.0674V16.332C24.7027 16.629 24.9442 16.8706 25.241 16.8706H25.353H25.4649C25.5047 16.8706 25.5371 16.903 25.5371 16.9428V17.2075C25.5371 17.2473 25.5047 17.2797 25.4649 17.2797H24.9357C24.807 17.2797 24.7026 17.3841 24.7026 17.5128C24.7026 17.6416 24.807 17.746 24.9357 17.746H25.158V17.983C25.158 18.1118 25.2624 18.2162 25.3911 18.2162C25.5198 18.2162 25.6242 18.1118 25.6242 17.983V17.7219C25.8435 17.6538 26.0032 17.449 26.0032 17.2074V16.9428C26.0032 16.6458 25.7617 16.4042 25.4648 16.4042Z" fill="#FDDF7F"/>
<path d="M14.9412 14.7498L16.5123 14.3231V12.8587L14.9412 12.4321C14.4921 12.3101 14.0498 12.6483 14.0498 13.1137V14.0681C14.0498 14.5335 14.4921 14.8717 14.9412 14.7498Z" fill="#FDDF7F"/>
<path d="M18.3437 14.3231C17.7685 14.6162 17.0879 14.6162 16.5127 14.3231V12.8587C17.0878 12.5657 17.7685 12.5657 18.3437 12.8587V14.3231Z" fill="#ECF4F7"/>
<path d="M14.8435 14.769L13.917 16.8203L15.0286 15.9838L15.136 17.3709L16.5124 14.3233L16.5122 14.3232L14.9413 14.7498C14.9086 14.7587 14.876 14.7648 14.8435 14.769Z" fill="#FDDF7F"/>
<path d="M19.9143 14.7498L18.3433 14.3231V12.8587L19.9143 12.4321C20.3635 12.3101 20.8058 12.6483 20.8058 13.1137V14.0681C20.8058 14.5335 20.3635 14.8717 19.9143 14.7498Z" fill="#FDDF7F"/>
<path d="M20.0127 14.769L20.9391 16.8203L19.8275 15.9838L19.7202 17.3709L18.3438 14.3233L18.344 14.3232L19.9148 14.7498C19.9475 14.7587 19.9802 14.7648 20.0127 14.769Z" fill="#FDDF7F"/>
<path d="M29.1535 14.8586C28.9437 14.8586 28.7547 14.9478 28.621 15.0896C28.4874 14.9478 28.2984 14.8586 28.0886 14.8586C27.9687 14.8586 27.8559 14.8882 27.7559 14.9394V11.2858C27.7559 10.5768 27.1791 10 26.47 10H13.5296C12.8206 10 12.2438 10.5768 12.2438 11.2858V11.655C12.2438 11.7655 12.3334 11.855 12.4438 11.855C12.5542 11.855 12.6438 11.7655 12.6438 11.655V11.2858C12.6438 10.7974 13.0412 10.4 13.5296 10.4H17.2278V12.4496C16.9759 12.4722 16.7274 12.5378 16.4938 12.6463L14.9937 12.239C14.719 12.1643 14.4318 12.2208 14.2056 12.3936C13.9796 12.5666 13.8498 12.829 13.8498 13.1136V13.531H12.6438V13.215C12.6438 13.1046 12.5542 13.015 12.4438 13.015C12.3334 13.015 12.2438 13.1046 12.2438 13.215V14.9394C12.1438 14.8882 12.0309 14.8587 11.9111 14.8587C11.7013 14.8587 11.5123 14.9478 11.3786 15.0897C11.245 14.9478 11.056 14.8587 10.8462 14.8587C10.4423 14.8587 10.1138 15.1872 10.1138 15.5911V18.5665C10.1138 19.0374 10.2972 19.4802 10.6302 19.8132L12.7848 21.9679C13.0423 22.2253 13.184 22.5676 13.184 22.9318V29.8C13.184 29.9105 13.2736 30 13.384 30C13.4945 30 13.584 29.9105 13.584 29.8V26.72H15.4249L15.4277 29.8002C15.4278 29.9106 15.5173 30 15.6277 30H15.6278C15.7383 29.9999 15.8278 29.9103 15.8277 29.7998L15.8247 26.5198C15.8247 26.5198 15.8247 26.5198 15.8247 26.5197L15.8238 25.4985C15.8262 25.486 15.8277 25.4732 15.8277 25.46C15.8277 25.4466 15.8262 25.4335 15.8237 25.4208L15.8206 22.0056C15.8187 21.4658 15.5748 20.9641 15.1515 20.6291L13.708 19.487H26.2915L24.848 20.6291C24.4246 20.9641 24.1807 21.4658 24.1788 22.0062L24.1757 25.4209C24.1732 25.4336 24.1718 25.4466 24.1718 25.4601C24.1718 25.4733 24.1732 25.4861 24.1756 25.4986L24.1718 29.7999C24.1716 29.9104 24.2611 30 24.3716 30.0001H24.3718C24.4821 30.0001 24.5716 29.9107 24.5718 29.8003L24.5747 26.72H26.4156V29.8C26.4156 29.9105 26.5051 30 26.6156 30C26.726 30 26.8156 29.9105 26.8156 29.8V26.52V22.9317C26.8156 22.5676 26.9574 22.2252 27.2148 21.9678L29.3694 19.8132C29.7024 19.4802 29.8858 19.0374 29.8858 18.5664V15.591C29.8859 15.1872 29.5574 14.8586 29.1535 14.8586ZM28.0886 15.2586C28.2719 15.2586 28.4211 15.4078 28.4211 15.591V17.1424C28.4211 17.5616 28.2325 17.9513 27.9037 18.2114L27.7562 18.3281V15.591C27.7562 15.4077 27.9054 15.2586 28.0886 15.2586ZM16.1556 14.6272L15.2751 16.5768L15.228 15.9682C15.2223 15.8954 15.1774 15.8314 15.1109 15.8014C15.0846 15.7895 15.0565 15.7837 15.0286 15.7837C14.9859 15.7837 14.9436 15.7973 14.9083 15.8239L14.4206 16.1909L14.983 14.9455C14.9866 14.9446 14.99 14.9437 14.9935 14.9428C14.9936 14.9428 14.9936 14.9428 14.9937 14.9427L15.3792 14.838L16.1556 14.6272ZM16.7124 12.9857C17.1681 12.7907 17.6876 12.7907 18.1433 12.9857V14.196C17.6876 14.391 17.168 14.391 16.7124 14.196V12.9857ZM17.6278 14.7321C17.8374 14.7132 18.0445 14.6647 18.2428 14.5865L19.5374 17.4531C19.5702 17.5256 19.6421 17.5708 19.7196 17.5708C19.7311 17.5708 19.7427 17.5698 19.7542 17.5678C19.8442 17.552 19.9121 17.4773 19.9191 17.3862L19.9983 16.3628L20.8185 16.98C20.8913 17.0349 20.9923 17.0334 21.0637 16.9763C21.135 16.9192 21.1586 16.8211 21.121 16.7379L20.3132 14.9494C20.4334 14.9202 20.548 14.866 20.6501 14.788C20.8761 14.6151 21.0058 14.3527 21.0058 14.0681V13.931H27.3559V18.2011C27.3559 18.6896 26.9585 19.087 26.4701 19.087H17.6278V14.7321ZM18.5433 14.1701V13.0115L19.9668 12.625C20.1203 12.5833 20.2808 12.6148 20.407 12.7114C20.5333 12.808 20.6058 12.9546 20.6058 13.1136V14.068C20.6058 14.2271 20.5333 14.3737 20.407 14.4702C20.2986 14.5531 20.1652 14.5878 20.0326 14.5697C20.0264 14.5688 20.0204 14.5678 20.0145 14.5668C19.9986 14.564 19.9826 14.561 19.9668 14.5567L18.5433 14.1701ZM19.8621 14.9427C19.8656 14.9436 19.8691 14.9446 19.8726 14.9455L20.4351 16.1908L19.9474 15.8238C19.889 15.7798 19.8114 15.7713 19.7448 15.8014C19.6782 15.8314 19.6334 15.8954 19.6277 15.9682L19.5806 16.5767L18.7 14.6272L19.8621 14.9427ZM26.47 10.4C26.9585 10.4 27.3559 10.7974 27.3559 11.2858V13.531H21.0058V13.1136C21.0058 12.829 20.8761 12.5666 20.65 12.3936C20.4239 12.2208 20.1366 12.1645 19.862 12.239L18.3619 12.6463C18.1282 12.5378 17.8797 12.4722 17.6278 12.4496V10.4H26.47ZM14.2499 13.1136C14.2499 12.9546 14.3223 12.808 14.4486 12.7114C14.5384 12.6427 14.6454 12.607 14.7549 12.607C14.7995 12.607 14.8445 12.6129 14.8889 12.625L16.3124 13.0115V14.1701L15.7662 14.3184L14.889 14.5566C14.8886 14.5568 14.8881 14.5568 14.8877 14.5569C14.8723 14.5611 14.8568 14.5641 14.8413 14.5668C14.8353 14.5678 14.8293 14.5688 14.8231 14.5697C14.6905 14.5878 14.557 14.5532 14.4487 14.4702C14.3224 14.3736 14.2499 14.2271 14.2499 14.068L14.2499 13.1136ZM13.8499 13.931V14.068C13.8499 14.3527 13.9796 14.6151 14.2057 14.788C14.3078 14.866 14.4223 14.9201 14.5425 14.9494L13.7347 16.7378C13.6971 16.8211 13.7207 16.9192 13.792 16.9763C13.8633 17.0334 13.9643 17.0349 14.0372 16.98L14.8574 16.3628L14.9366 17.3862C14.9436 17.4772 15.0115 17.552 15.1014 17.5677C15.113 17.5698 15.1246 17.5707 15.136 17.5707C15.2135 17.5707 15.2855 17.5256 15.3182 17.453L16.6129 14.5864C16.8112 14.6647 17.0183 14.7132 17.2278 14.7321V19.0869H13.5296C13.0412 19.0869 12.6438 18.6895 12.6438 18.2011V13.931H13.8499ZM11.911 15.2586C12.0944 15.2586 12.2435 15.4078 12.2435 15.591V18.3281L12.096 18.2114C11.7672 17.9513 11.5786 17.5616 11.5786 17.1424V15.591C11.5786 15.4077 11.7278 15.2586 11.911 15.2586ZM13.5841 26.32V25.66H15.424L15.4246 26.32H13.5841ZM15.4207 22.0065L15.4236 25.26H13.584V22.9317C13.584 22.4607 13.4006 22.0179 13.0676 21.685L10.913 19.5304C10.6556 19.2728 10.5138 18.9306 10.5138 18.5664V15.591C10.5138 15.4077 10.6629 15.2586 10.8462 15.2586C11.0295 15.2586 11.1786 15.4077 11.1786 15.591V16.32V17.1424C11.1786 17.6847 11.4226 18.1886 11.8478 18.525L14.9034 20.9427C15.2307 21.2017 15.4193 21.5896 15.4207 22.0065ZM24.575 26.32L24.5756 25.66H26.4156V26.32H24.575ZM29.4859 18.5664C29.4859 18.9306 29.3441 19.2728 29.0867 19.5304L26.932 21.6849C26.599 22.0179 26.4156 22.4607 26.4156 22.9317V25.26H24.576L24.579 22.007C24.5804 21.5896 24.769 21.2017 25.0963 20.9428L28.152 18.5251C28.5772 18.1887 28.8211 17.6847 28.8211 17.1424V16.99V15.591C28.8211 15.4078 28.9703 15.2586 29.1536 15.2586C29.3368 15.2586 29.486 15.4078 29.486 15.591V18.5664H29.4859ZM12.2438 12.495V12.335C12.2438 12.2245 12.3334 12.135 12.4438 12.135C12.5542 12.135 12.6438 12.2245 12.6438 12.335V12.495C12.6438 12.6055 12.5542 12.695 12.4438 12.695C12.3334 12.695 12.2438 12.6055 12.2438 12.495ZM26.4032 15.762C26.4032 15.4992 26.2423 15.2733 26.0139 15.1776C25.9599 14.8828 25.7012 14.6586 25.3911 14.6586C25.0514 14.6586 24.7734 14.9275 24.7586 15.2636C24.4844 15.4301 24.3026 15.7328 24.3026 16.0674V16.332C24.3026 16.5894 24.4067 16.823 24.5751 16.9927C24.4105 17.1072 24.3026 17.2977 24.3026 17.5129C24.3026 17.8062 24.503 18.0535 24.774 18.1252C24.8387 18.4061 25.0908 18.6163 25.391 18.6163C25.7401 18.6163 26.0241 18.3322 26.0241 17.9831V17.962C26.2586 17.7889 26.4032 17.5127 26.4032 17.2075V16.9428C26.4032 16.6854 26.299 16.4519 26.1307 16.2822C26.2953 16.1677 26.4032 15.9772 26.4032 15.762ZM25.241 16.4042H25.3529H25.4648C25.7616 16.4042 26.0032 16.6458 26.0032 16.9428V17.2075C26.0032 17.449 25.8434 17.6538 25.6241 17.722V17.983C25.6241 18.1118 25.5198 18.2162 25.391 18.2162C25.2623 18.2162 25.158 18.1118 25.158 17.983V17.746H24.9357C24.807 17.746 24.7026 17.6416 24.7026 17.5128C24.7026 17.3841 24.807 17.2797 24.9357 17.2797H25.4648C25.5046 17.2797 25.537 17.2473 25.537 17.2075V16.9428C25.537 16.903 25.5047 16.8706 25.4648 16.8706H25.3529H25.241C24.9442 16.8706 24.7027 16.629 24.7027 16.332V16.0673C24.7027 15.7986 24.9004 15.5752 25.158 15.5352V15.2918C25.158 15.163 25.2624 15.0586 25.3911 15.0586C25.5198 15.0586 25.6242 15.163 25.6242 15.2918V15.5288H25.7701C25.8988 15.5288 26.0032 15.6332 26.0032 15.762C26.0032 15.8908 25.8988 15.9952 25.7701 15.9952H25.241C25.2012 15.9952 25.1688 16.0276 25.1688 16.0674V16.332C25.1688 16.3718 25.2012 16.4042 25.241 16.4042Z" fill="#1C1D21"/>
</g>
<defs>
<clipPath id="clip0_25_392059">
<rect width="20" height="20" fill="white" transform="translate(10 10)"/>
</clipPath>
</defs>
</svg>
