<svg width="40" height="40" viewBox="0 0 40 40" fill="none" xmlns="http://www.w3.org/2000/svg">
<rect width="40" height="40" rx="8" fill="#FFFAEB"/>
<path fill-rule="evenodd" clip-rule="evenodd" d="M14.3281 14.375H26.3281V26.75H14.3281V14.375Z" fill="#BD7575"/>
<path fill-rule="evenodd" clip-rule="evenodd" d="M11.375 26.7202C11.375 25.8901 12.0406 25.1372 12.8635 25.0383L20.3281 24.1409L27.7928 25.0383C28.6148 25.1371 29.2812 25.8876 29.2812 26.7202V31.2659H11.375V26.7202Z" fill="#FF78C7"/>
<path fill-rule="evenodd" clip-rule="evenodd" d="M18.0014 23.5591C16.1624 22.2527 14.8906 19.5956 14.8906 17.425C14.8906 14.422 17.3251 11.9875 20.3281 11.9875C23.3312 11.9875 25.7656 14.422 25.7656 17.425C25.7656 19.5956 24.4939 22.2527 22.6548 23.5591V26.3398C22.6548 26.3398 21.0775 27.0559 20.3281 27.0559C19.5787 27.0559 18.0014 26.3398 18.0014 26.3398V23.5591Z" fill="#FFDD95"/>
<path d="M15.4531 19.625C16.0744 19.625 16.5781 19.1213 16.5781 18.5C16.5781 17.8787 16.0744 17.375 15.4531 17.375C14.8318 17.375 14.3281 17.8787 14.3281 18.5C14.3281 19.1213 14.8318 19.625 15.4531 19.625Z" fill="#FFDD95"/>
<path d="M25.2031 19.625C25.8244 19.625 26.3281 19.1213 26.3281 18.5C26.3281 17.8787 25.8244 17.375 25.2031 17.375C24.5818 17.375 24.0781 17.8787 24.0781 18.5C24.0781 19.1213 24.5818 19.625 25.2031 19.625Z" fill="#FFDD95"/>
<path d="M14 18.125V12.4967C14 11.0488 14.9531 9.875 16.1269 9.875H24.6231C25.7978 9.875 26.75 11.0483 26.75 12.4967V18.125" stroke="#979797" stroke-width="2" stroke-linecap="round"/>
<path d="M22.625 24.875C26.3529 24.875 29.375 21.8529 29.375 18.125" stroke="#868686" stroke-width="2" stroke-linecap="round"/>
<path d="M22.25 24.5H19.625C19.4179 24.5 19.25 24.6679 19.25 24.875C19.25 25.0821 19.4179 25.25 19.625 25.25H22.25C22.4571 25.25 22.625 25.0821 22.625 24.875C22.625 24.6679 22.4571 24.5 22.25 24.5Z" stroke="#5B68C0" stroke-width="2"/>
<path fill-rule="evenodd" clip-rule="evenodd" d="M29 16.625H29.375V18.5H29V16.625Z" stroke="#979797" stroke-width="2"/>
<path fill-rule="evenodd" clip-rule="evenodd" d="M14.3281 13.4375C14.3281 12.0913 15.4195 11 16.7637 11H23.8925C25.2377 11 26.3281 12.094 26.3281 13.4375V15.875L20.3281 13.6547L14.3281 15.875V13.4375Z" fill="#BD7575"/>
<path d="M27.875 14.375H26.375C25.9608 14.375 25.625 14.7108 25.625 15.125V20C25.625 20.4142 25.9608 20.75 26.375 20.75H27.875C28.2892 20.75 28.625 20.4142 28.625 20V15.125C28.625 14.7108 28.2892 14.375 27.875 14.375Z" fill="#5B68C0"/>
<path d="M14.375 14.375H12.875C12.4608 14.375 12.125 14.7108 12.125 15.125V20C12.125 20.4142 12.4608 20.75 12.875 20.75H14.375C14.7892 20.75 15.125 20.4142 15.125 20V15.125C15.125 14.7108 14.7892 14.375 14.375 14.375Z" fill="#5B68C0"/>
</svg>
