<svg width="246" height="245" viewBox="0 0 246 245" fill="none" xmlns="http://www.w3.org/2000/svg">
<path d="M0.138672 24.5C0.138672 10.969 11.1077 0 24.6387 0H220.639C234.17 0 245.139 10.969 245.139 24.5V220.5C245.139 234.031 234.17 245 220.639 245H24.6387C11.1077 245 0.138672 234.031 0.138672 220.5V24.5Z" fill="#26A17B" fill-opacity="0.1"/>
<path d="M122.362 183.52C156.471 183.52 184.122 155.869 184.122 121.76C184.122 87.6509 156.471 60 122.362 60C88.2525 60 60.6016 87.6509 60.6016 121.76C60.6016 155.869 88.2525 183.52 122.362 183.52Z" fill="#26A17B"/>
<path fill-rule="evenodd" clip-rule="evenodd" d="M129.781 127.097V127.089C129.356 127.12 127.168 127.251 122.285 127.251C118.386 127.251 115.642 127.135 114.677 127.089V127.101C99.669 126.441 88.4673 123.827 88.4673 120.701C88.4673 117.578 99.669 114.965 114.677 114.293V124.499C115.657 124.568 118.467 124.734 122.35 124.734C127.009 124.734 129.345 124.541 129.781 124.503V114.301C144.758 114.969 155.932 117.582 155.932 120.701C155.932 123.827 144.758 126.433 129.781 127.097ZM129.781 113.239V104.107H150.679V90.1797H93.7786V104.107H114.677V113.235C97.6927 114.015 84.9199 117.381 84.9199 121.411C84.9199 125.441 97.6927 128.803 114.677 129.586V158.853H129.781V129.579C146.738 128.799 159.48 125.437 159.48 121.411C159.48 117.385 146.738 114.023 129.781 113.239Z" fill="white"/>
</svg>
