<svg width="24" height="24" viewBox="0 0 24 24" fill="none" xmlns="http://www.w3.org/2000/svg">
<g clip-path="url(#clip0_4910_7389)">
<path d="M12.3834 12.2901C10.5336 12.3998 9.92226 13.2934 9.96929 14.0928C10.032 15.1745 11.192 15.6761 12.3207 15.6134C13.418 15.5507 14.6721 15.1275 14.8916 12.4625C14.3272 12.3371 13.6845 12.2744 13.0261 12.2744C12.791 12.2744 12.5872 12.2744 12.3834 12.2901Z" fill="#DEE3EB"/>
<path d="M18.482 0H5.51796C2.47681 0 0 2.47681 0 5.51796V18.4977C0 21.5389 2.47681 24.0157 5.51796 24.0157H18.4977C21.5389 24.0157 24.0157 21.5389 24.0157 18.4977V5.51796C24 2.47681 21.5389 0 18.482 0ZM6.63096 18.1842C7.83801 19.7204 9.70346 20.5042 12.1646 20.5199C14.3749 20.5042 15.8485 19.9713 17.0712 18.7642C18.4664 17.369 18.435 15.6604 17.9961 14.6257C17.7296 14.0144 17.2593 13.5127 16.6166 13.1208C16.4598 14.2809 16.115 15.2057 15.5506 15.9112C14.8138 16.8517 13.7636 17.3534 12.4154 17.4317C11.3965 17.4944 10.4246 17.2436 9.65643 16.742C8.7629 16.1463 8.22992 15.2371 8.18289 14.1868C8.07316 12.1019 9.71914 10.6127 12.29 10.4559C13.1992 10.4089 14.0614 10.4402 14.8452 10.5813C14.7355 9.9386 14.5317 9.43697 14.2182 9.06074C13.7792 8.55911 13.1208 8.29262 12.2273 8.29262C12.2116 8.29262 12.2116 8.29262 12.196 8.29262C11.4592 8.3083 10.5029 8.49641 9.8759 9.43697L8.38668 8.41803C9.21751 7.16395 10.55 6.4742 12.1646 6.4742C12.1803 6.4742 12.196 6.4742 12.196 6.4742C14.8922 6.48988 16.5069 8.18289 16.6636 11.1143C16.7577 11.1613 16.8517 11.1927 16.9301 11.2397C18.1842 11.8511 19.1091 12.7603 19.595 13.889C20.2691 15.4566 20.3318 18.0118 18.2939 20.0653C16.7263 21.6329 14.8295 22.3227 12.1489 22.354H12.1332C9.10777 22.3383 6.78772 21.3194 5.22012 19.3285C3.82495 17.5572 3.10385 15.096 3.08818 12.0235C3.11953 8.93534 3.82495 6.4742 5.22012 4.71848C6.78772 2.72763 9.10777 1.70869 12.1332 1.69301H12.1489C15.1744 1.70869 17.5415 2.72763 19.1404 4.70281C19.9399 5.67472 20.5199 6.85042 20.8961 8.22992L19.1561 8.7002C18.8426 7.5872 18.388 6.63096 17.7766 5.87851C16.5225 4.34226 14.6257 3.54278 12.1489 3.52711C9.70346 3.49575 7.83801 4.29523 6.63096 5.83148C5.50229 7.27368 4.9066 9.34291 4.89092 12.0078C4.9066 14.6571 5.50229 16.742 6.63096 18.1842Z" fill="#DEE3EB"/>
</g>
<defs>
<clipPath id="clip0_4910_7389">
<rect width="24" height="24" fill="white"/>
</clipPath>
</defs>
</svg>
