<svg width="40" height="40" viewBox="0 0 40 40" fill="none" xmlns="http://www.w3.org/2000/svg">
<g clip-path="url(#clip0_4900_101432)">
<path d="M20.641 20.4832C17.558 20.666 16.5391 22.1553 16.6174 23.4877C16.7219 25.2905 18.6553 26.1265 20.5364 26.022C22.3653 25.9175 24.4555 25.2121 24.8212 20.7706C23.8807 20.5615 22.8095 20.457 21.7121 20.457C21.3202 20.457 20.9806 20.457 20.641 20.4832Z" fill="url(#paint0_linear_4900_101432)"/>
<path d="M30.8034 0H9.1966C4.12802 0 0 4.12802 0 9.1966V30.8295C0 35.8981 4.12802 40.0261 9.1966 40.0261H30.8295C35.8981 40.0261 40.0261 35.8981 40.0261 30.8295V9.1966C40 4.12802 35.8981 0 30.8034 0ZM11.0516 30.307C13.0634 32.8674 16.1724 34.1737 20.2743 34.1999C23.9582 34.1737 26.4141 33.2854 28.452 31.2737C30.7773 28.9484 30.725 26.1006 29.9935 24.3762C29.5493 23.3573 28.7655 22.5212 27.6943 21.8681C27.4331 23.8014 26.8583 25.3429 25.9177 26.5186C24.6897 28.0862 22.9393 28.9223 20.6924 29.0529C18.9941 29.1574 17.3743 28.7394 16.0941 27.9033C14.6048 26.9105 13.7165 25.3952 13.6381 23.6447C13.4553 20.1698 16.1986 17.6878 20.4833 17.4265C21.9987 17.3481 23.4357 17.4004 24.742 17.6355C24.5591 16.5643 24.2195 15.7283 23.6969 15.1012C22.9654 14.2652 21.8681 13.821 20.3788 13.821C20.3527 13.821 20.3527 13.821 20.3266 13.821C19.0986 13.8472 17.5049 14.1607 16.4598 15.7283L13.9778 14.03C15.3625 11.9399 17.5833 10.7903 20.2743 10.7903C20.3005 10.7903 20.3266 10.7903 20.3266 10.7903C24.8204 10.8165 27.5114 13.6381 27.7727 18.5238C27.9295 18.6022 28.0862 18.6545 28.2169 18.7329C30.307 19.7518 31.8485 21.2671 32.6584 23.1483C33.7818 25.7609 33.8863 30.0196 30.4899 33.4422C27.8772 36.0549 24.7159 37.2044 20.2482 37.2567H20.2221C15.1796 37.2306 11.3129 35.5323 8.7002 32.2142C6.37492 29.2619 5.17309 25.16 5.14696 20.0392C5.19922 14.8922 6.37492 10.7903 8.7002 7.86414C11.3129 4.54605 15.1796 2.84781 20.2221 2.82169H20.2482C25.2907 2.84781 29.2358 4.54605 31.9007 7.83801C33.2332 9.45787 34.1999 11.4174 34.8269 13.7165L31.9268 14.5003C31.4043 12.6453 30.6466 11.0516 29.6277 9.79752C27.5376 7.2371 24.3762 5.90464 20.2482 5.87851C16.1724 5.82626 13.0634 7.15872 11.0516 9.71914C9.17048 12.1228 8.17766 15.5715 8.15154 20.0131C8.17766 24.4285 9.17048 27.9033 11.0516 30.307Z" fill="url(#paint1_linear_4900_101432)"/>
</g>
<defs>
<linearGradient id="paint0_linear_4900_101432" x1="8.13394" y1="-1.70226" x2="31.2561" y2="42.5825" gradientUnits="userSpaceOnUse">
<stop stop-color="#515BD4"/>
<stop offset="0.25" stop-color="#8134AF"/>
<stop offset="0.5" stop-color="#DD2A7B"/>
<stop offset="0.75" stop-color="#F58529"/>
<stop offset="1" stop-color="#FEDA77"/>
</linearGradient>
<linearGradient id="paint1_linear_4900_101432" x1="8.55543" y1="-1.92259" x2="31.6776" y2="42.3622" gradientUnits="userSpaceOnUse">
<stop stop-color="#515BD4"/>
<stop offset="0.25" stop-color="#8134AF"/>
<stop offset="0.5" stop-color="#DD2A7B"/>
<stop offset="0.75" stop-color="#F58529"/>
<stop offset="1" stop-color="#FEDA77"/>
</linearGradient>
<clipPath id="clip0_4900_101432">
<rect width="40" height="40" fill="white"/>
</clipPath>
</defs>
</svg>
