<svg width="246" height="245" viewBox="0 0 246 245" fill="none" xmlns="http://www.w3.org/2000/svg">
<path d="M0.863281 24.5C0.863281 10.969 11.8323 0 25.3633 0H221.363C234.894 0 245.863 10.969 245.863 24.5V220.5C245.863 234.031 234.894 245 221.363 245H25.3633C11.8323 245 0.863281 234.031 0.863281 220.5V24.5Z" fill="#F8E9EA"/>
<path d="M123.59 181.462C156.562 181.462 183.291 154.733 183.291 121.761C183.291 88.7888 156.562 62.0596 123.59 62.0596C90.6179 62.0596 63.8887 88.7888 63.8887 121.761C63.8887 154.733 90.6179 181.462 123.59 181.462Z" fill="#FF5252"/>
<path d="M123.586 183.52C89.5358 183.52 61.8262 155.81 61.8262 121.76C61.8262 87.7097 89.5358 60 123.586 60C157.637 60 185.346 87.7097 185.346 121.76C185.346 155.81 157.637 183.52 123.586 183.52ZM123.586 64.1173C91.8004 64.1173 65.9435 89.9742 65.9435 121.76C65.9435 153.546 91.8004 179.403 123.586 179.403C155.372 179.403 181.229 153.546 181.229 121.76C181.229 89.9742 155.372 64.1173 123.586 64.1173Z" fill="#FF5252"/>
<path d="M127.696 118.866C126.707 118.866 125.802 118.125 125.678 117.096C125.513 115.984 126.296 114.914 127.407 114.749L162.405 109.561C163.516 109.438 164.587 110.179 164.752 111.291C164.916 112.402 164.134 113.473 163.022 113.637L128.025 118.825C127.902 118.825 127.778 118.866 127.696 118.866Z" fill="white"/>
<path d="M127.7 118.866C127.247 118.866 126.794 118.701 126.382 118.413L91.3851 89.8796C90.5205 89.1796 90.3558 87.8621 91.0969 86.9974C91.838 86.1328 93.1144 85.9681 93.979 86.7092L128.976 115.242C129.841 115.942 130.006 117.26 129.265 118.124C128.894 118.577 128.318 118.866 127.7 118.866Z" fill="white"/>
<path d="M121.239 165.52C121.157 165.52 121.034 165.52 120.951 165.52C119.84 165.355 119.057 164.326 119.181 163.214L125.645 116.565C125.727 116.071 125.974 115.618 126.345 115.288L147.59 96.6369C148.455 95.8958 149.731 95.9781 150.514 96.8428C151.255 97.7074 151.172 98.9838 150.308 99.7661L129.639 117.923L123.257 163.749C123.133 164.779 122.228 165.52 121.239 165.52Z" fill="white"/>
<path d="M121.228 165.519C121.105 165.519 121.022 165.519 120.899 165.478C120.158 165.355 119.54 164.86 119.293 164.16L90.7599 89.0192C90.5128 88.3192 90.6363 87.5369 91.0892 86.9605C91.5421 86.3841 92.3244 86.137 93.0244 86.2606L149.267 96.101C149.679 96.1833 150.049 96.348 150.338 96.6774L164.09 110.141C164.831 110.882 164.913 112.076 164.254 112.9L122.834 164.737C122.422 165.231 121.846 165.519 121.228 165.519ZM95.9065 90.9132L121.846 159.343L159.89 111.747L147.95 100.012L95.9065 90.9132Z" fill="white"/>
</svg>
