<svg width="24" height="24" viewBox="0 0 24 24" fill="none" xmlns="http://www.w3.org/2000/svg">
<path d="M11.9997 21.6666C17.3384 21.6666 21.6663 17.3387 21.6663 11.9999C21.6663 6.66117 17.3384 2.33325 11.9997 2.33325C6.66092 2.33325 2.33301 6.66117 2.33301 11.9999C2.33301 17.3387 6.66092 21.6666 11.9997 21.6666Z" fill="#FF5252"/>
<path d="M12 22C6.48667 22 2 17.5133 2 12C2 6.48667 6.48667 2 12 2C17.5133 2 22 6.48667 22 12C22 17.5133 17.5133 22 12 22ZM12 2.66667C6.85333 2.66667 2.66667 6.85333 2.66667 12C2.66667 17.1467 6.85333 21.3333 12 21.3333C17.1467 21.3333 21.3333 17.1467 21.3333 12C21.3333 6.85333 17.1467 2.66667 12 2.66667Z" fill="#FF5252"/>
<path d="M12.6671 11.5333C12.5071 11.5333 12.3605 11.4133 12.3405 11.2466C12.3138 11.0666 12.4405 10.8933 12.6205 10.8666L18.2871 10.0266C18.4671 10.0066 18.6405 10.1266 18.6671 10.3066C18.6938 10.4866 18.5671 10.6599 18.3871 10.6866L12.7205 11.5266C12.7005 11.5266 12.6805 11.5333 12.6671 11.5333Z" fill="white"/>
<path d="M12.6668 11.5332C12.5935 11.5332 12.5202 11.5066 12.4535 11.4599L6.78682 6.83992C6.64682 6.72658 6.62016 6.51325 6.74016 6.37325C6.86016 6.23325 7.06682 6.20658 7.20682 6.32658L12.8735 10.9466C13.0135 11.0599 13.0402 11.2732 12.9202 11.4132C12.8602 11.4866 12.7668 11.5332 12.6668 11.5332Z" fill="white"/>
<path d="M11.6206 19.0868C11.6072 19.0868 11.5872 19.0868 11.5739 19.0868C11.3939 19.0601 11.2672 18.8934 11.2872 18.7134L12.3339 11.1601C12.3472 11.0801 12.3872 11.0068 12.4472 10.9534L15.8872 7.93342C16.0272 7.81342 16.2339 7.82676 16.3606 7.96676C16.4806 8.10676 16.4672 8.31342 16.3272 8.44009L12.9806 11.3801L11.9472 18.8001C11.9272 18.9668 11.7806 19.0868 11.6206 19.0868Z" fill="white"/>
<path d="M11.6206 19.0867C11.6006 19.0867 11.5872 19.0867 11.5672 19.08C11.4472 19.06 11.3472 18.98 11.3072 18.8667L6.68725 6.69999C6.64725 6.58666 6.66725 6.45999 6.74058 6.36666C6.81391 6.27332 6.94058 6.23332 7.05391 6.25332L16.1606 7.84666C16.2272 7.85999 16.2872 7.88666 16.3339 7.93999L18.5606 10.12C18.6806 10.24 18.6939 10.4333 18.5872 10.5667L11.8806 18.96C11.8139 19.04 11.7206 19.0867 11.6206 19.0867ZM7.52058 7.00666L11.7206 18.0867L17.8806 10.38L15.9472 8.47999L7.52058 7.00666Z" fill="white"/>
</svg>
