<svg width="24" height="24" viewBox="0 0 24 24" fill="none" xmlns="http://www.w3.org/2000/svg">
<g clip-path="url(#clip0_343_16829)">
<path d="M12 22C17.5228 22 22 17.5228 22 12C22 6.47715 17.5228 2 12 2C6.47715 2 2 6.47715 2 12C2 17.5228 6.47715 22 12 22Z" fill="#26A17B"/>
<path fill-rule="evenodd" clip-rule="evenodd" d="M13.2013 12.8645V12.8632C13.1325 12.8682 12.7781 12.8895 11.9875 12.8895C11.3562 12.8895 10.9119 12.8707 10.7556 12.8632V12.8651C8.32562 12.7582 6.51187 12.3351 6.51187 11.8288C6.51187 11.3232 8.32562 10.9001 10.7556 10.7913V12.4438C10.9144 12.4551 11.3694 12.482 11.9981 12.482C12.7525 12.482 13.1306 12.4507 13.2013 12.4445V10.7926C15.6263 10.9007 17.4356 11.3238 17.4356 11.8288C17.4356 12.3351 15.6263 12.757 13.2013 12.8645ZM13.2013 10.6207V9.14196H16.585V6.88696H7.37188V9.14196H10.7556V10.6201C8.00562 10.7463 5.9375 11.2913 5.9375 11.9438C5.9375 12.5963 8.00562 13.1407 10.7556 13.2676V18.0063H13.2013V13.2663C15.9469 13.1401 18.01 12.5957 18.01 11.9438C18.01 11.292 15.9469 10.7476 13.2013 10.6207Z" fill="white"/>
</g>
<defs>
<clipPath id="clip0_343_16829">
<rect width="20" height="20" fill="white" transform="translate(2 2)"/>
</clipPath>
</defs>
</svg>
