<svg width="42" height="42" viewBox="0 0 42 42" fill="none" xmlns="http://www.w3.org/2000/svg">
<path d="M36.3369 41.0005H5.66361C3.08787 41.0005 1 38.9126 1 36.3369V5.66361C1 3.08787 3.08787 1 5.66361 1H36.3364C38.9121 1 41 3.08787 41 5.66361V36.3364C41.0005 38.9126 38.9126 41.0005 36.3369 41.0005Z" fill="black" stroke="white" stroke-width="0.0467295" stroke-miterlimit="10"/>
<path d="M7.14588 7.96875L17.8969 22.3442L7.07812 34.0317H9.5132L18.9853 23.7988L26.6382 34.0317H34.9242L23.568 18.8478L33.6382 7.96875H31.2032L22.4802 17.3927L15.432 7.96875H7.14588ZM10.7268 9.7627H14.5334L31.3429 32.2382H27.5363L10.7268 9.7627Z" fill="white"/>
</svg>
