<svg width="26" height="26" viewBox="0 0 26 26" fill="none" xmlns="http://www.w3.org/2000/svg">
<path d="M22.2021 25.0003H3.79816C2.25272 25.0003 1 23.7476 1 22.2021V3.79816C1 2.25272 2.25272 1 3.79816 1H22.2018C23.7473 1 25 2.25272 25 3.79816V22.2018C25.0003 23.7476 23.7476 25.0003 22.2021 25.0003Z" fill="#DEE3EB" stroke="white" stroke-width="0.0280377" stroke-miterlimit="10"/>
<path d="M4.68714 5.18066L11.1378 13.8059L4.64648 20.8184H6.10753L11.7908 14.6787L16.3825 20.8184H21.3542L14.5404 11.7081L20.5826 5.18066H19.1215L13.8877 10.835L9.65878 5.18066H4.68714ZM6.83567 6.25703H9.11962L19.2053 19.7423H16.9214L6.83567 6.25703Z" fill="#0B2253"/>
</svg>
